ISO-10303-21;
HEADER;
FILE_DESCRIPTION(('FreeCAD Model'),'2;1');
FILE_NAME('Open CASCADE Shape Model','2026-01-23T18:04:59',('Author'),(
    ''),'Open CASCADE STEP processor 7.8','FreeCAD','Unknown');
FILE_SCHEMA(('AUTOMOTIVE_DESIGN { 1 0 10303 214 1 1 1 1 }'));
ENDSEC;
DATA;
#1 = APPLICATION_PROTOCOL_DEFINITION('international standard',
  'automotive_design',2000,#2);
#2 = APPLICATION_CONTEXT(
  'core data for automotive mechanical design processes');
#3 = SHAPE_DEFINITION_REPRESENTATION(#4,#10);
#4 = PRODUCT_DEFINITION_SHAPE('','',#5);
#5 = PRODUCT_DEFINITION('design','',#6,#9);
#6 = PRODUCT_DEFINITION_FORMATION('','',#7);
#7 = PRODUCT('Body','Body','',(#8));
#8 = PRODUCT_CONTEXT('',#2,'mechanical');
#9 = PRODUCT_DEFINITION_CONTEXT('part definition',#2,'design');
#10 = ADVANCED_BREP_SHAPE_REPRESENTATION('',(#11,#15),#1495);
#11 = AXIS2_PLACEMENT_3D('',#12,#13,#14);
#12 = CARTESIAN_POINT('',(0.,0.,0.));
#13 = DIRECTION('',(0.,0.,1.));
#14 = DIRECTION('',(1.,0.,-0.));
#15 = MANIFOLD_SOLID_BREP('',#16);
#16 = CLOSED_SHELL('',(#17,#152,#184,#217,#241,#266,#291,#316,#341,#366,
    #391,#416,#441,#495,#528,#597,#723,#748,#773,#891,#916,#938,#950,
    #967,#984,#1001,#1018,#1035,#1052,#1069,#1099,#1247,#1272,#1297,
    #1429,#1451,#1473));
#17 = ADVANCED_FACE('',(#18,#70,#81,#92,#103,#114,#125,#136),#147,.F.);
#18 = FACE_BOUND('',#19,.F.);
#19 = EDGE_LOOP('',(#20,#30,#39,#47,#56,#64));
#20 = ORIENTED_EDGE('',*,*,#21,.T.);
#21 = EDGE_CURVE('',#22,#24,#26,.T.);
#22 = VERTEX_POINT('',#23);
#23 = CARTESIAN_POINT('',(28.,-12.5,3.));
#24 = VERTEX_POINT('',#25);
#25 = CARTESIAN_POINT('',(28.,-12.5,55.5));
#26 = LINE('',#27,#28);
#27 = CARTESIAN_POINT('',(28.,-12.5,3.));
#28 = VECTOR('',#29,1.);
#29 = DIRECTION('',(1.110223024625E-16,0.,1.));
#30 = ORIENTED_EDGE('',*,*,#31,.F.);
#31 = EDGE_CURVE('',#32,#24,#34,.T.);
#32 = VERTEX_POINT('',#33);
#33 = CARTESIAN_POINT('',(28.,-0.5,67.5));
#34 = CIRCLE('',#35,12.);
#35 = AXIS2_PLACEMENT_3D('',#36,#37,#38);
#36 = CARTESIAN_POINT('',(28.,-0.5,55.5));
#37 = DIRECTION('',(1.,0.,-1.110223024625E-16));
#38 = DIRECTION('',(1.110223024625E-16,0.,1.));
#39 = ORIENTED_EDGE('',*,*,#40,.T.);
#40 = EDGE_CURVE('',#32,#41,#43,.T.);
#41 = VERTEX_POINT('',#42);
#42 = CARTESIAN_POINT('',(28.,0.5,67.5));
#43 = LINE('',#44,#45);
#44 = CARTESIAN_POINT('',(28.,-12.5,67.5));
#45 = VECTOR('',#46,1.);
#46 = DIRECTION('',(0.,1.,0.));
#47 = ORIENTED_EDGE('',*,*,#48,.T.);
#48 = EDGE_CURVE('',#41,#49,#51,.T.);
#49 = VERTEX_POINT('',#50);
#50 = CARTESIAN_POINT('',(28.,12.5,55.5));
#51 = CIRCLE('',#52,12.);
#52 = AXIS2_PLACEMENT_3D('',#53,#54,#55);
#53 = CARTESIAN_POINT('',(28.,0.5,55.5));
#54 = DIRECTION('',(-1.,0.,1.110223024625E-16));
#55 = DIRECTION('',(1.110223024625E-16,0.,1.));
#56 = ORIENTED_EDGE('',*,*,#57,.T.);
#57 = EDGE_CURVE('',#49,#58,#60,.T.);
#58 = VERTEX_POINT('',#59);
#59 = CARTESIAN_POINT('',(28.,12.5,3.));
#60 = LINE('',#61,#62);
#61 = CARTESIAN_POINT('',(28.,12.5,67.5));
#62 = VECTOR('',#63,1.);
#63 = DIRECTION('',(-1.110223024625E-16,0.,-1.));
#64 = ORIENTED_EDGE('',*,*,#65,.F.);
#65 = EDGE_CURVE('',#22,#58,#66,.T.);
#66 = LINE('',#67,#68);
#67 = CARTESIAN_POINT('',(28.,-12.5,3.));
#68 = VECTOR('',#69,1.);
#69 = DIRECTION('',(0.,1.,0.));
#70 = FACE_BOUND('',#71,.F.);
#71 = EDGE_LOOP('',(#72));
#72 = ORIENTED_EDGE('',*,*,#73,.T.);
#73 = EDGE_CURVE('',#74,#74,#76,.T.);
#74 = VERTEX_POINT('',#75);
#75 = CARTESIAN_POINT('',(28.,-5.5,52.));
#76 = CIRCLE('',#77,1.5);
#77 = AXIS2_PLACEMENT_3D('',#78,#79,#80);
#78 = CARTESIAN_POINT('',(28.,-7.,52.));
#79 = DIRECTION('',(1.,0.,0.));
#80 = DIRECTION('',(0.,1.,0.));
#81 = FACE_BOUND('',#82,.F.);
#82 = EDGE_LOOP('',(#83));
#83 = ORIENTED_EDGE('',*,*,#84,.T.);
#84 = EDGE_CURVE('',#85,#85,#87,.T.);
#85 = VERTEX_POINT('',#86);
#86 = CARTESIAN_POINT('',(28.,1.5,16.5));
#87 = CIRCLE('',#88,1.5);
#88 = AXIS2_PLACEMENT_3D('',#89,#90,#91);
#89 = CARTESIAN_POINT('',(28.,0.,16.5));
#90 = DIRECTION('',(1.,0.,0.));
#91 = DIRECTION('',(0.,1.,0.));
#92 = FACE_BOUND('',#93,.F.);
#93 = EDGE_LOOP('',(#94));
#94 = ORIENTED_EDGE('',*,*,#95,.T.);
#95 = EDGE_CURVE('',#96,#96,#98,.T.);
#96 = VERTEX_POINT('',#97);
#97 = CARTESIAN_POINT('',(28.,1.5,33.5));
#98 = CIRCLE('',#99,1.5);
#99 = AXIS2_PLACEMENT_3D('',#100,#101,#102);
#100 = CARTESIAN_POINT('',(28.,0.,33.5));
#101 = DIRECTION('',(1.,0.,0.));
#102 = DIRECTION('',(0.,1.,0.));
#103 = FACE_BOUND('',#104,.F.);
#104 = EDGE_LOOP('',(#105));
#105 = ORIENTED_EDGE('',*,*,#106,.T.);
#106 = EDGE_CURVE('',#107,#107,#109,.T.);
#107 = VERTEX_POINT('',#108);
#108 = CARTESIAN_POINT('',(28.,1.5,45.));
#109 = CIRCLE('',#110,1.5);
#110 = AXIS2_PLACEMENT_3D('',#111,#112,#113);
#111 = CARTESIAN_POINT('',(28.,0.,45.));
#112 = DIRECTION('',(1.,0.,0.));
#113 = DIRECTION('',(0.,1.,0.));
#114 = FACE_BOUND('',#115,.F.);
#115 = EDGE_LOOP('',(#116));
#116 = ORIENTED_EDGE('',*,*,#117,.T.);
#117 = EDGE_CURVE('',#118,#118,#120,.T.);
#118 = VERTEX_POINT('',#119);
#119 = CARTESIAN_POINT('',(28.,1.5,52.));
#120 = CIRCLE('',#121,1.5);
#121 = AXIS2_PLACEMENT_3D('',#122,#123,#124);
#122 = CARTESIAN_POINT('',(28.,0.,52.));
#123 = DIRECTION('',(1.,0.,0.));
#124 = DIRECTION('',(0.,1.,0.));
#125 = FACE_BOUND('',#126,.F.);
#126 = EDGE_LOOP('',(#127));
#127 = ORIENTED_EDGE('',*,*,#128,.T.);
#128 = EDGE_CURVE('',#129,#129,#131,.T.);
#129 = VERTEX_POINT('',#130);
#130 = CARTESIAN_POINT('',(28.,1.5,59.));
#131 = CIRCLE('',#132,1.5);
#132 = AXIS2_PLACEMENT_3D('',#133,#134,#135);
#133 = CARTESIAN_POINT('',(28.,0.,59.));
#134 = DIRECTION('',(1.,0.,0.));
#135 = DIRECTION('',(0.,1.,0.));
#136 = FACE_BOUND('',#137,.F.);
#137 = EDGE_LOOP('',(#138));
#138 = ORIENTED_EDGE('',*,*,#139,.T.);
#139 = EDGE_CURVE('',#140,#140,#142,.T.);
#140 = VERTEX_POINT('',#141);
#141 = CARTESIAN_POINT('',(28.,8.5,52.));
#142 = CIRCLE('',#143,1.5);
#143 = AXIS2_PLACEMENT_3D('',#144,#145,#146);
#144 = CARTESIAN_POINT('',(28.,7.,52.));
#145 = DIRECTION('',(1.,0.,0.));
#146 = DIRECTION('',(0.,1.,0.));
#147 = PLANE('',#148);
#148 = AXIS2_PLACEMENT_3D('',#149,#150,#151);
#149 = CARTESIAN_POINT('',(28.,0.,35.25));
#150 = DIRECTION('',(-1.,0.,1.110223024625E-16));
#151 = DIRECTION('',(1.110223024625E-16,0.,1.));
#152 = ADVANCED_FACE('',(#153),#179,.T.);
#153 = FACE_BOUND('',#154,.T.);
#154 = EDGE_LOOP('',(#155,#166,#172,#173));
#155 = ORIENTED_EDGE('',*,*,#156,.T.);
#156 = EDGE_CURVE('',#157,#159,#161,.T.);
#157 = VERTEX_POINT('',#158);
#158 = CARTESIAN_POINT('',(26.,-0.5,67.5));
#159 = VERTEX_POINT('',#160);
#160 = CARTESIAN_POINT('',(26.,-12.5,55.5));
#161 = CIRCLE('',#162,12.);
#162 = AXIS2_PLACEMENT_3D('',#163,#164,#165);
#163 = CARTESIAN_POINT('',(26.,-0.5,55.5));
#164 = DIRECTION('',(1.,0.,-1.110223024625E-16));
#165 = DIRECTION('',(1.110223024625E-16,0.,1.));
#166 = ORIENTED_EDGE('',*,*,#167,.T.);
#167 = EDGE_CURVE('',#159,#24,#168,.T.);
#168 = LINE('',#169,#170);
#169 = CARTESIAN_POINT('',(26.,-12.5,55.5));
#170 = VECTOR('',#171,1.);
#171 = DIRECTION('',(1.,0.,-1.110223024625E-16));
#172 = ORIENTED_EDGE('',*,*,#31,.F.);
#173 = ORIENTED_EDGE('',*,*,#174,.F.);
#174 = EDGE_CURVE('',#157,#32,#175,.T.);
#175 = LINE('',#176,#177);
#176 = CARTESIAN_POINT('',(26.,-0.5,67.5));
#177 = VECTOR('',#178,1.);
#178 = DIRECTION('',(1.,0.,-1.110223024625E-16));
#179 = CYLINDRICAL_SURFACE('',#180,12.);
#180 = AXIS2_PLACEMENT_3D('',#181,#182,#183);
#181 = CARTESIAN_POINT('',(26.,-0.5,55.5));
#182 = DIRECTION('',(1.,0.,-1.110223024625E-16));
#183 = DIRECTION('',(1.110223024625E-16,0.,1.));
#184 = ADVANCED_FACE('',(#185),#212,.T.);
#185 = FACE_BOUND('',#186,.F.);
#186 = EDGE_LOOP('',(#187,#196,#197,#206));
#187 = ORIENTED_EDGE('',*,*,#188,.T.);
#188 = EDGE_CURVE('',#189,#22,#191,.T.);
#189 = VERTEX_POINT('',#190);
#190 = CARTESIAN_POINT('',(25.,-12.5,0.));
#191 = CIRCLE('',#192,3.);
#192 = AXIS2_PLACEMENT_3D('',#193,#194,#195);
#193 = CARTESIAN_POINT('',(25.,-12.5,3.));
#194 = DIRECTION('',(0.,-1.,0.));
#195 = DIRECTION('',(0.,0.,-1.));
#196 = ORIENTED_EDGE('',*,*,#65,.T.);
#197 = ORIENTED_EDGE('',*,*,#198,.F.);
#198 = EDGE_CURVE('',#199,#58,#201,.T.);
#199 = VERTEX_POINT('',#200);
#200 = CARTESIAN_POINT('',(25.,12.5,0.));
#201 = CIRCLE('',#202,3.);
#202 = AXIS2_PLACEMENT_3D('',#203,#204,#205);
#203 = CARTESIAN_POINT('',(25.,12.5,3.));
#204 = DIRECTION('',(0.,-1.,0.));
#205 = DIRECTION('',(0.,0.,-1.));
#206 = ORIENTED_EDGE('',*,*,#207,.F.);
#207 = EDGE_CURVE('',#189,#199,#208,.T.);
#208 = LINE('',#209,#210);
#209 = CARTESIAN_POINT('',(25.,-12.5,0.));
#210 = VECTOR('',#211,1.);
#211 = DIRECTION('',(0.,1.,0.));
#212 = CYLINDRICAL_SURFACE('',#213,3.);
#213 = AXIS2_PLACEMENT_3D('',#214,#215,#216);
#214 = CARTESIAN_POINT('',(25.,-12.5,3.));
#215 = DIRECTION('',(0.,1.,0.));
#216 = DIRECTION('',(0.,0.,-1.));
#217 = ADVANCED_FACE('',(#218),#236,.T.);
#218 = FACE_BOUND('',#219,.T.);
#219 = EDGE_LOOP('',(#220,#228,#229,#230));
#220 = ORIENTED_EDGE('',*,*,#221,.F.);
#221 = EDGE_CURVE('',#157,#222,#224,.T.);
#222 = VERTEX_POINT('',#223);
#223 = CARTESIAN_POINT('',(26.,0.5,67.5));
#224 = LINE('',#225,#226);
#225 = CARTESIAN_POINT('',(26.,-12.5,67.5));
#226 = VECTOR('',#227,1.);
#227 = DIRECTION('',(0.,1.,0.));
#228 = ORIENTED_EDGE('',*,*,#174,.T.);
#229 = ORIENTED_EDGE('',*,*,#40,.T.);
#230 = ORIENTED_EDGE('',*,*,#231,.F.);
#231 = EDGE_CURVE('',#222,#41,#232,.T.);
#232 = LINE('',#233,#234);
#233 = CARTESIAN_POINT('',(26.,0.5,67.5));
#234 = VECTOR('',#235,1.);
#235 = DIRECTION('',(1.,0.,-1.110223024625E-16));
#236 = PLANE('',#237);
#237 = AXIS2_PLACEMENT_3D('',#238,#239,#240);
#238 = CARTESIAN_POINT('',(26.,-12.5,67.5));
#239 = DIRECTION('',(1.110223024625E-16,0.,1.));
#240 = DIRECTION('',(0.,1.,0.));
#241 = ADVANCED_FACE('',(#242),#261,.T.);
#242 = FACE_BOUND('',#243,.F.);
#243 = EDGE_LOOP('',(#244,#253,#259,#260));
#244 = ORIENTED_EDGE('',*,*,#245,.T.);
#245 = EDGE_CURVE('',#222,#246,#248,.T.);
#246 = VERTEX_POINT('',#247);
#247 = CARTESIAN_POINT('',(26.,12.5,55.5));
#248 = CIRCLE('',#249,12.);
#249 = AXIS2_PLACEMENT_3D('',#250,#251,#252);
#250 = CARTESIAN_POINT('',(26.,0.5,55.5));
#251 = DIRECTION('',(-1.,0.,1.110223024625E-16));
#252 = DIRECTION('',(1.110223024625E-16,0.,1.));
#253 = ORIENTED_EDGE('',*,*,#254,.T.);
#254 = EDGE_CURVE('',#246,#49,#255,.T.);
#255 = LINE('',#256,#257);
#256 = CARTESIAN_POINT('',(26.,12.5,55.5));
#257 = VECTOR('',#258,1.);
#258 = DIRECTION('',(1.,0.,-1.110223024625E-16));
#259 = ORIENTED_EDGE('',*,*,#48,.F.);
#260 = ORIENTED_EDGE('',*,*,#231,.F.);
#261 = CYLINDRICAL_SURFACE('',#262,12.);
#262 = AXIS2_PLACEMENT_3D('',#263,#264,#265);
#263 = CARTESIAN_POINT('',(26.,0.5,55.5));
#264 = DIRECTION('',(1.,0.,-1.110223024625E-16));
#265 = DIRECTION('',(1.110223024625E-16,0.,1.));
#266 = ADVANCED_FACE('',(#267),#286,.F.);
#267 = FACE_BOUND('',#268,.F.);
#268 = EDGE_LOOP('',(#269,#277,#278,#279));
#269 = ORIENTED_EDGE('',*,*,#270,.F.);
#270 = EDGE_CURVE('',#74,#271,#273,.T.);
#271 = VERTEX_POINT('',#272);
#272 = CARTESIAN_POINT('',(26.,-5.5,52.));
#273 = LINE('',#274,#275);
#274 = CARTESIAN_POINT('',(28.,-5.5,52.));
#275 = VECTOR('',#276,1.);
#276 = DIRECTION('',(-1.,-0.,-0.));
#277 = ORIENTED_EDGE('',*,*,#73,.F.);
#278 = ORIENTED_EDGE('',*,*,#270,.T.);
#279 = ORIENTED_EDGE('',*,*,#280,.T.);
#280 = EDGE_CURVE('',#271,#271,#281,.T.);
#281 = CIRCLE('',#282,1.5);
#282 = AXIS2_PLACEMENT_3D('',#283,#284,#285);
#283 = CARTESIAN_POINT('',(26.,-7.,52.));
#284 = DIRECTION('',(1.,0.,0.));
#285 = DIRECTION('',(0.,1.,0.));
#286 = CYLINDRICAL_SURFACE('',#287,1.5);
#287 = AXIS2_PLACEMENT_3D('',#288,#289,#290);
#288 = CARTESIAN_POINT('',(28.,-7.,52.));
#289 = DIRECTION('',(1.,0.,0.));
#290 = DIRECTION('',(0.,1.,0.));
#291 = ADVANCED_FACE('',(#292),#311,.F.);
#292 = FACE_BOUND('',#293,.F.);
#293 = EDGE_LOOP('',(#294,#302,#303,#304));
#294 = ORIENTED_EDGE('',*,*,#295,.F.);
#295 = EDGE_CURVE('',#85,#296,#298,.T.);
#296 = VERTEX_POINT('',#297);
#297 = CARTESIAN_POINT('',(26.,1.5,16.5));
#298 = LINE('',#299,#300);
#299 = CARTESIAN_POINT('',(28.,1.5,16.5));
#300 = VECTOR('',#301,1.);
#301 = DIRECTION('',(-1.,-0.,-0.));
#302 = ORIENTED_EDGE('',*,*,#84,.F.);
#303 = ORIENTED_EDGE('',*,*,#295,.T.);
#304 = ORIENTED_EDGE('',*,*,#305,.T.);
#305 = EDGE_CURVE('',#296,#296,#306,.T.);
#306 = CIRCLE('',#307,1.5);
#307 = AXIS2_PLACEMENT_3D('',#308,#309,#310);
#308 = CARTESIAN_POINT('',(26.,0.,16.5));
#309 = DIRECTION('',(1.,0.,0.));
#310 = DIRECTION('',(0.,1.,0.));
#311 = CYLINDRICAL_SURFACE('',#312,1.5);
#312 = AXIS2_PLACEMENT_3D('',#313,#314,#315);
#313 = CARTESIAN_POINT('',(28.,0.,16.5));
#314 = DIRECTION('',(1.,0.,0.));
#315 = DIRECTION('',(0.,1.,0.));
#316 = ADVANCED_FACE('',(#317),#336,.F.);
#317 = FACE_BOUND('',#318,.F.);
#318 = EDGE_LOOP('',(#319,#327,#328,#329));
#319 = ORIENTED_EDGE('',*,*,#320,.F.);
#320 = EDGE_CURVE('',#96,#321,#323,.T.);
#321 = VERTEX_POINT('',#322);
#322 = CARTESIAN_POINT('',(26.,1.5,33.5));
#323 = LINE('',#324,#325);
#324 = CARTESIAN_POINT('',(28.,1.5,33.5));
#325 = VECTOR('',#326,1.);
#326 = DIRECTION('',(-1.,-0.,-0.));
#327 = ORIENTED_EDGE('',*,*,#95,.F.);
#328 = ORIENTED_EDGE('',*,*,#320,.T.);
#329 = ORIENTED_EDGE('',*,*,#330,.T.);
#330 = EDGE_CURVE('',#321,#321,#331,.T.);
#331 = CIRCLE('',#332,1.5);
#332 = AXIS2_PLACEMENT_3D('',#333,#334,#335);
#333 = CARTESIAN_POINT('',(26.,0.,33.5));
#334 = DIRECTION('',(1.,0.,0.));
#335 = DIRECTION('',(0.,1.,0.));
#336 = CYLINDRICAL_SURFACE('',#337,1.5);
#337 = AXIS2_PLACEMENT_3D('',#338,#339,#340);
#338 = CARTESIAN_POINT('',(28.,0.,33.5));
#339 = DIRECTION('',(1.,0.,0.));
#340 = DIRECTION('',(0.,1.,0.));
#341 = ADVANCED_FACE('',(#342),#361,.F.);
#342 = FACE_BOUND('',#343,.F.);
#343 = EDGE_LOOP('',(#344,#352,#353,#354));
#344 = ORIENTED_EDGE('',*,*,#345,.F.);
#345 = EDGE_CURVE('',#107,#346,#348,.T.);
#346 = VERTEX_POINT('',#347);
#347 = CARTESIAN_POINT('',(26.,1.5,45.));
#348 = LINE('',#349,#350);
#349 = CARTESIAN_POINT('',(28.,1.5,45.));
#350 = VECTOR('',#351,1.);
#351 = DIRECTION('',(-1.,-0.,-0.));
#352 = ORIENTED_EDGE('',*,*,#106,.F.);
#353 = ORIENTED_EDGE('',*,*,#345,.T.);
#354 = ORIENTED_EDGE('',*,*,#355,.T.);
#355 = EDGE_CURVE('',#346,#346,#356,.T.);
#356 = CIRCLE('',#357,1.5);
#357 = AXIS2_PLACEMENT_3D('',#358,#359,#360);
#358 = CARTESIAN_POINT('',(26.,0.,45.));
#359 = DIRECTION('',(1.,0.,0.));
#360 = DIRECTION('',(0.,1.,0.));
#361 = CYLINDRICAL_SURFACE('',#362,1.5);
#362 = AXIS2_PLACEMENT_3D('',#363,#364,#365);
#363 = CARTESIAN_POINT('',(28.,0.,45.));
#364 = DIRECTION('',(1.,0.,0.));
#365 = DIRECTION('',(0.,1.,0.));
#366 = ADVANCED_FACE('',(#367),#386,.F.);
#367 = FACE_BOUND('',#368,.F.);
#368 = EDGE_LOOP('',(#369,#377,#378,#379));
#369 = ORIENTED_EDGE('',*,*,#370,.F.);
#370 = EDGE_CURVE('',#118,#371,#373,.T.);
#371 = VERTEX_POINT('',#372);
#372 = CARTESIAN_POINT('',(26.,1.5,52.));
#373 = LINE('',#374,#375);
#374 = CARTESIAN_POINT('',(28.,1.5,52.));
#375 = VECTOR('',#376,1.);
#376 = DIRECTION('',(-1.,-0.,-0.));
#377 = ORIENTED_EDGE('',*,*,#117,.F.);
#378 = ORIENTED_EDGE('',*,*,#370,.T.);
#379 = ORIENTED_EDGE('',*,*,#380,.T.);
#380 = EDGE_CURVE('',#371,#371,#381,.T.);
#381 = CIRCLE('',#382,1.5);
#382 = AXIS2_PLACEMENT_3D('',#383,#384,#385);
#383 = CARTESIAN_POINT('',(26.,0.,52.));
#384 = DIRECTION('',(1.,0.,0.));
#385 = DIRECTION('',(0.,1.,0.));
#386 = CYLINDRICAL_SURFACE('',#387,1.5);
#387 = AXIS2_PLACEMENT_3D('',#388,#389,#390);
#388 = CARTESIAN_POINT('',(28.,0.,52.));
#389 = DIRECTION('',(1.,0.,0.));
#390 = DIRECTION('',(0.,1.,0.));
#391 = ADVANCED_FACE('',(#392),#411,.F.);
#392 = FACE_BOUND('',#393,.F.);
#393 = EDGE_LOOP('',(#394,#402,#403,#404));
#394 = ORIENTED_EDGE('',*,*,#395,.F.);
#395 = EDGE_CURVE('',#129,#396,#398,.T.);
#396 = VERTEX_POINT('',#397);
#397 = CARTESIAN_POINT('',(26.,1.5,59.));
#398 = LINE('',#399,#400);
#399 = CARTESIAN_POINT('',(28.,1.5,59.));
#400 = VECTOR('',#401,1.);
#401 = DIRECTION('',(-1.,-0.,-0.));
#402 = ORIENTED_EDGE('',*,*,#128,.F.);
#403 = ORIENTED_EDGE('',*,*,#395,.T.);
#404 = ORIENTED_EDGE('',*,*,#405,.T.);
#405 = EDGE_CURVE('',#396,#396,#406,.T.);
#406 = CIRCLE('',#407,1.5);
#407 = AXIS2_PLACEMENT_3D('',#408,#409,#410);
#408 = CARTESIAN_POINT('',(26.,0.,59.));
#409 = DIRECTION('',(1.,0.,0.));
#410 = DIRECTION('',(0.,1.,0.));
#411 = CYLINDRICAL_SURFACE('',#412,1.5);
#412 = AXIS2_PLACEMENT_3D('',#413,#414,#415);
#413 = CARTESIAN_POINT('',(28.,0.,59.));
#414 = DIRECTION('',(1.,0.,0.));
#415 = DIRECTION('',(0.,1.,0.));
#416 = ADVANCED_FACE('',(#417),#436,.F.);
#417 = FACE_BOUND('',#418,.F.);
#418 = EDGE_LOOP('',(#419,#427,#428,#429));
#419 = ORIENTED_EDGE('',*,*,#420,.F.);
#420 = EDGE_CURVE('',#140,#421,#423,.T.);
#421 = VERTEX_POINT('',#422);
#422 = CARTESIAN_POINT('',(26.,8.5,52.));
#423 = LINE('',#424,#425);
#424 = CARTESIAN_POINT('',(28.,8.5,52.));
#425 = VECTOR('',#426,1.);
#426 = DIRECTION('',(-1.,-0.,-0.));
#427 = ORIENTED_EDGE('',*,*,#139,.F.);
#428 = ORIENTED_EDGE('',*,*,#420,.T.);
#429 = ORIENTED_EDGE('',*,*,#430,.T.);
#430 = EDGE_CURVE('',#421,#421,#431,.T.);
#431 = CIRCLE('',#432,1.5);
#432 = AXIS2_PLACEMENT_3D('',#433,#434,#435);
#433 = CARTESIAN_POINT('',(26.,7.,52.));
#434 = DIRECTION('',(1.,0.,0.));
#435 = DIRECTION('',(0.,1.,0.));
#436 = CYLINDRICAL_SURFACE('',#437,1.5);
#437 = AXIS2_PLACEMENT_3D('',#438,#439,#440);
#438 = CARTESIAN_POINT('',(28.,7.,52.));
#439 = DIRECTION('',(1.,0.,0.));
#440 = DIRECTION('',(0.,1.,0.));
#441 = ADVANCED_FACE('',(#442,#469,#472,#475,#478,#481,#484,#487),#490,
  .T.);
#442 = FACE_BOUND('',#443,.T.);
#443 = EDGE_LOOP('',(#444,#452,#460,#466,#467,#468));
#444 = ORIENTED_EDGE('',*,*,#445,.T.);
#445 = EDGE_CURVE('',#246,#446,#448,.T.);
#446 = VERTEX_POINT('',#447);
#447 = CARTESIAN_POINT('',(26.,12.5,3.));
#448 = LINE('',#449,#450);
#449 = CARTESIAN_POINT('',(26.,12.5,67.5));
#450 = VECTOR('',#451,1.);
#451 = DIRECTION('',(-1.110223024625E-16,0.,-1.));
#452 = ORIENTED_EDGE('',*,*,#453,.T.);
#453 = EDGE_CURVE('',#446,#454,#456,.T.);
#454 = VERTEX_POINT('',#455);
#455 = CARTESIAN_POINT('',(26.,-12.5,3.));
#456 = LINE('',#457,#458);
#457 = CARTESIAN_POINT('',(26.,12.5,3.));
#458 = VECTOR('',#459,1.);
#459 = DIRECTION('',(0.,-1.,0.));
#460 = ORIENTED_EDGE('',*,*,#461,.T.);
#461 = EDGE_CURVE('',#454,#159,#462,.T.);
#462 = LINE('',#463,#464);
#463 = CARTESIAN_POINT('',(26.,-12.5,3.));
#464 = VECTOR('',#465,1.);
#465 = DIRECTION('',(1.110223024625E-16,0.,1.));
#466 = ORIENTED_EDGE('',*,*,#156,.F.);
#467 = ORIENTED_EDGE('',*,*,#221,.T.);
#468 = ORIENTED_EDGE('',*,*,#245,.T.);
#469 = FACE_BOUND('',#470,.T.);
#470 = EDGE_LOOP('',(#471));
#471 = ORIENTED_EDGE('',*,*,#280,.T.);
#472 = FACE_BOUND('',#473,.T.);
#473 = EDGE_LOOP('',(#474));
#474 = ORIENTED_EDGE('',*,*,#305,.T.);
#475 = FACE_BOUND('',#476,.T.);
#476 = EDGE_LOOP('',(#477));
#477 = ORIENTED_EDGE('',*,*,#330,.T.);
#478 = FACE_BOUND('',#479,.T.);
#479 = EDGE_LOOP('',(#480));
#480 = ORIENTED_EDGE('',*,*,#355,.T.);
#481 = FACE_BOUND('',#482,.T.);
#482 = EDGE_LOOP('',(#483));
#483 = ORIENTED_EDGE('',*,*,#380,.T.);
#484 = FACE_BOUND('',#485,.T.);
#485 = EDGE_LOOP('',(#486));
#486 = ORIENTED_EDGE('',*,*,#405,.T.);
#487 = FACE_BOUND('',#488,.T.);
#488 = EDGE_LOOP('',(#489));
#489 = ORIENTED_EDGE('',*,*,#430,.T.);
#490 = PLANE('',#491);
#491 = AXIS2_PLACEMENT_3D('',#492,#493,#494);
#492 = CARTESIAN_POINT('',(26.,0.,35.25));
#493 = DIRECTION('',(-1.,0.,1.110223024625E-16));
#494 = DIRECTION('',(1.110223024625E-16,0.,1.));
#495 = ADVANCED_FACE('',(#496),#523,.F.);
#496 = FACE_BOUND('',#497,.F.);
#497 = EDGE_LOOP('',(#498,#507,#508,#517));
#498 = ORIENTED_EDGE('',*,*,#499,.T.);
#499 = EDGE_CURVE('',#500,#446,#502,.T.);
#500 = VERTEX_POINT('',#501);
#501 = CARTESIAN_POINT('',(25.,12.5,2.));
#502 = CIRCLE('',#503,1.);
#503 = AXIS2_PLACEMENT_3D('',#504,#505,#506);
#504 = CARTESIAN_POINT('',(25.,12.5,3.));
#505 = DIRECTION('',(0.,-1.,0.));
#506 = DIRECTION('',(0.,0.,-1.));
#507 = ORIENTED_EDGE('',*,*,#453,.T.);
#508 = ORIENTED_EDGE('',*,*,#509,.F.);
#509 = EDGE_CURVE('',#510,#454,#512,.T.);
#510 = VERTEX_POINT('',#511);
#511 = CARTESIAN_POINT('',(25.,-12.5,2.));
#512 = CIRCLE('',#513,1.);
#513 = AXIS2_PLACEMENT_3D('',#514,#515,#516);
#514 = CARTESIAN_POINT('',(25.,-12.5,3.));
#515 = DIRECTION('',(0.,-1.,0.));
#516 = DIRECTION('',(0.,0.,-1.));
#517 = ORIENTED_EDGE('',*,*,#518,.T.);
#518 = EDGE_CURVE('',#510,#500,#519,.T.);
#519 = LINE('',#520,#521);
#520 = CARTESIAN_POINT('',(25.,-12.5,2.));
#521 = VECTOR('',#522,1.);
#522 = DIRECTION('',(0.,1.,0.));
#523 = CYLINDRICAL_SURFACE('',#524,1.);
#524 = AXIS2_PLACEMENT_3D('',#525,#526,#527);
#525 = CARTESIAN_POINT('',(25.,12.5,3.));
#526 = DIRECTION('',(-0.,-1.,-0.));
#527 = DIRECTION('',(0.,0.,-1.));
#528 = ADVANCED_FACE('',(#529),#592,.T.);
#529 = FACE_BOUND('',#530,.T.);
#530 = EDGE_LOOP('',(#531,#532,#533,#534,#535,#543,#552,#560,#568,#576,
    #585,#591));
#531 = ORIENTED_EDGE('',*,*,#21,.T.);
#532 = ORIENTED_EDGE('',*,*,#167,.F.);
#533 = ORIENTED_EDGE('',*,*,#461,.F.);
#534 = ORIENTED_EDGE('',*,*,#509,.F.);
#535 = ORIENTED_EDGE('',*,*,#536,.F.);
#536 = EDGE_CURVE('',#537,#510,#539,.T.);
#537 = VERTEX_POINT('',#538);
#538 = CARTESIAN_POINT('',(-25.,-12.5,2.));
#539 = LINE('',#540,#541);
#540 = CARTESIAN_POINT('',(-4.354155924702E-16,-12.5,2.));
#541 = VECTOR('',#542,1.);
#542 = DIRECTION('',(1.,0.,0.));
#543 = ORIENTED_EDGE('',*,*,#544,.T.);
#544 = EDGE_CURVE('',#537,#545,#547,.T.);
#545 = VERTEX_POINT('',#546);
#546 = CARTESIAN_POINT('',(-26.,-12.5,3.));
#547 = CIRCLE('',#548,1.);
#548 = AXIS2_PLACEMENT_3D('',#549,#550,#551);
#549 = CARTESIAN_POINT('',(-25.,-12.5,3.));
#550 = DIRECTION('',(2.22044604925E-16,1.,2.465190328816E-32));
#551 = DIRECTION('',(2.22044604925E-16,-2.465190328816E-32,-1.));
#552 = ORIENTED_EDGE('',*,*,#553,.T.);
#553 = EDGE_CURVE('',#545,#554,#556,.T.);
#554 = VERTEX_POINT('',#555);
#555 = CARTESIAN_POINT('',(-26.,-12.5,55.5));
#556 = LINE('',#557,#558);
#557 = CARTESIAN_POINT('',(-26.,-12.5,3.));
#558 = VECTOR('',#559,1.);
#559 = DIRECTION('',(-3.330669073875E-16,4.930380657631E-32,1.));
#560 = ORIENTED_EDGE('',*,*,#561,.T.);
#561 = EDGE_CURVE('',#554,#562,#564,.T.);
#562 = VERTEX_POINT('',#563);
#563 = CARTESIAN_POINT('',(-28.,-12.5,55.5));
#564 = LINE('',#565,#566);
#565 = CARTESIAN_POINT('',(-26.,-12.5,55.5));
#566 = VECTOR('',#567,1.);
#567 = DIRECTION('',(-1.,2.22044604925E-16,-3.330669073875E-16));
#568 = ORIENTED_EDGE('',*,*,#569,.F.);
#569 = EDGE_CURVE('',#570,#562,#572,.T.);
#570 = VERTEX_POINT('',#571);
#571 = CARTESIAN_POINT('',(-28.,-12.5,3.));
#572 = LINE('',#573,#574);
#573 = CARTESIAN_POINT('',(-28.,-12.5,3.));
#574 = VECTOR('',#575,1.);
#575 = DIRECTION('',(-3.330669073875E-16,4.930380657631E-32,1.));
#576 = ORIENTED_EDGE('',*,*,#577,.F.);
#577 = EDGE_CURVE('',#578,#570,#580,.T.);
#578 = VERTEX_POINT('',#579);
#579 = CARTESIAN_POINT('',(-25.,-12.5,-5.551115123126E-15));
#580 = CIRCLE('',#581,3.);
#581 = AXIS2_PLACEMENT_3D('',#582,#583,#584);
#582 = CARTESIAN_POINT('',(-25.,-12.5,3.));
#583 = DIRECTION('',(2.22044604925E-16,1.,2.465190328816E-32));
#584 = DIRECTION('',(2.22044604925E-16,-2.465190328816E-32,-1.));
#585 = ORIENTED_EDGE('',*,*,#586,.F.);
#586 = EDGE_CURVE('',#189,#578,#587,.T.);
#587 = LINE('',#588,#589);
#588 = CARTESIAN_POINT('',(-2.340141969093E-15,-12.5,-2.114671078937E-31
    ));
#589 = VECTOR('',#590,1.);
#590 = DIRECTION('',(-1.,2.22044604925E-16,-2.22044604925E-16));
#591 = ORIENTED_EDGE('',*,*,#188,.T.);
#592 = PLANE('',#593);
#593 = AXIS2_PLACEMENT_3D('',#594,#595,#596);
#594 = CARTESIAN_POINT('',(-2.133217361714E-15,-12.5,19.859033177679));
#595 = DIRECTION('',(-0.,-1.,-0.));
#596 = DIRECTION('',(0.,0.,-1.));
#597 = ADVANCED_FACE('',(#598,#641,#652,#663,#674,#685,#696,#707),#718,
  .F.);
#598 = FACE_BOUND('',#599,.T.);
#599 = EDGE_LOOP('',(#600,#601,#610,#618,#627,#635));
#600 = ORIENTED_EDGE('',*,*,#569,.T.);
#601 = ORIENTED_EDGE('',*,*,#602,.F.);
#602 = EDGE_CURVE('',#603,#562,#605,.T.);
#603 = VERTEX_POINT('',#604);
#604 = CARTESIAN_POINT('',(-28.,-0.5,67.5));
#605 = CIRCLE('',#606,12.);
#606 = AXIS2_PLACEMENT_3D('',#607,#608,#609);
#607 = CARTESIAN_POINT('',(-28.,-0.5,55.5));
#608 = DIRECTION('',(1.,-2.22044604925E-16,3.330669073875E-16));
#609 = DIRECTION('',(-3.330669073875E-16,4.930380657631E-32,1.));
#610 = ORIENTED_EDGE('',*,*,#611,.T.);
#611 = EDGE_CURVE('',#603,#612,#614,.T.);
#612 = VERTEX_POINT('',#613);
#613 = CARTESIAN_POINT('',(-28.,0.5,67.5));
#614 = LINE('',#615,#616);
#615 = CARTESIAN_POINT('',(-28.,-12.5,67.5));
#616 = VECTOR('',#617,1.);
#617 = DIRECTION('',(2.22044604925E-16,1.,2.465190328816E-32));
#618 = ORIENTED_EDGE('',*,*,#619,.T.);
#619 = EDGE_CURVE('',#612,#620,#622,.T.);
#620 = VERTEX_POINT('',#621);
#621 = CARTESIAN_POINT('',(-28.,12.5,55.5));
#622 = CIRCLE('',#623,12.);
#623 = AXIS2_PLACEMENT_3D('',#624,#625,#626);
#624 = CARTESIAN_POINT('',(-28.,0.5,55.5));
#625 = DIRECTION('',(-1.,2.22044604925E-16,-3.330669073875E-16));
#626 = DIRECTION('',(-3.330669073875E-16,4.930380657631E-32,1.));
#627 = ORIENTED_EDGE('',*,*,#628,.T.);
#628 = EDGE_CURVE('',#620,#629,#631,.T.);
#629 = VERTEX_POINT('',#630);
#630 = CARTESIAN_POINT('',(-28.,12.5,3.));
#631 = LINE('',#632,#633);
#632 = CARTESIAN_POINT('',(-28.,12.5,67.5));
#633 = VECTOR('',#634,1.);
#634 = DIRECTION('',(3.330669073875E-16,-4.930380657631E-32,-1.));
#635 = ORIENTED_EDGE('',*,*,#636,.F.);
#636 = EDGE_CURVE('',#570,#629,#637,.T.);
#637 = LINE('',#638,#639);
#638 = CARTESIAN_POINT('',(-28.,-12.5,3.));
#639 = VECTOR('',#640,1.);
#640 = DIRECTION('',(2.22044604925E-16,1.,2.465190328816E-32));
#641 = FACE_BOUND('',#642,.T.);
#642 = EDGE_LOOP('',(#643));
#643 = ORIENTED_EDGE('',*,*,#644,.T.);
#644 = EDGE_CURVE('',#645,#645,#647,.T.);
#645 = VERTEX_POINT('',#646);
#646 = CARTESIAN_POINT('',(-28.,-5.5,52.));
#647 = CIRCLE('',#648,1.5);
#648 = AXIS2_PLACEMENT_3D('',#649,#650,#651);
#649 = CARTESIAN_POINT('',(-28.,-7.,52.));
#650 = DIRECTION('',(1.,-2.22044604925E-16,2.22044604925E-16));
#651 = DIRECTION('',(2.22044604925E-16,1.,2.465190328816E-32));
#652 = FACE_BOUND('',#653,.T.);
#653 = EDGE_LOOP('',(#654));
#654 = ORIENTED_EDGE('',*,*,#655,.T.);
#655 = EDGE_CURVE('',#656,#656,#658,.T.);
#656 = VERTEX_POINT('',#657);
#657 = CARTESIAN_POINT('',(-28.,1.5,16.5));
#658 = CIRCLE('',#659,1.5);
#659 = AXIS2_PLACEMENT_3D('',#660,#661,#662);
#660 = CARTESIAN_POINT('',(-28.,6.217248937901E-15,16.5));
#661 = DIRECTION('',(1.,-2.22044604925E-16,2.22044604925E-16));
#662 = DIRECTION('',(2.22044604925E-16,1.,2.465190328816E-32));
#663 = FACE_BOUND('',#664,.T.);
#664 = EDGE_LOOP('',(#665));
#665 = ORIENTED_EDGE('',*,*,#666,.T.);
#666 = EDGE_CURVE('',#667,#667,#669,.T.);
#667 = VERTEX_POINT('',#668);
#668 = CARTESIAN_POINT('',(-28.,1.5,33.5));
#669 = CIRCLE('',#670,1.5);
#670 = AXIS2_PLACEMENT_3D('',#671,#672,#673);
#671 = CARTESIAN_POINT('',(-28.,6.217248937901E-15,33.5));
#672 = DIRECTION('',(1.,-2.22044604925E-16,2.22044604925E-16));
#673 = DIRECTION('',(2.22044604925E-16,1.,2.465190328816E-32));
#674 = FACE_BOUND('',#675,.T.);
#675 = EDGE_LOOP('',(#676));
#676 = ORIENTED_EDGE('',*,*,#677,.T.);
#677 = EDGE_CURVE('',#678,#678,#680,.T.);
#678 = VERTEX_POINT('',#679);
#679 = CARTESIAN_POINT('',(-28.,1.5,45.));
#680 = CIRCLE('',#681,1.5);
#681 = AXIS2_PLACEMENT_3D('',#682,#683,#684);
#682 = CARTESIAN_POINT('',(-28.,6.217248937901E-15,45.));
#683 = DIRECTION('',(1.,-2.22044604925E-16,2.22044604925E-16));
#684 = DIRECTION('',(2.22044604925E-16,1.,2.465190328816E-32));
#685 = FACE_BOUND('',#686,.T.);
#686 = EDGE_LOOP('',(#687));
#687 = ORIENTED_EDGE('',*,*,#688,.T.);
#688 = EDGE_CURVE('',#689,#689,#691,.T.);
#689 = VERTEX_POINT('',#690);
#690 = CARTESIAN_POINT('',(-28.,1.5,52.));
#691 = CIRCLE('',#692,1.5);
#692 = AXIS2_PLACEMENT_3D('',#693,#694,#695);
#693 = CARTESIAN_POINT('',(-28.,6.217248937901E-15,52.));
#694 = DIRECTION('',(1.,-2.22044604925E-16,2.22044604925E-16));
#695 = DIRECTION('',(2.22044604925E-16,1.,2.465190328816E-32));
#696 = FACE_BOUND('',#697,.T.);
#697 = EDGE_LOOP('',(#698));
#698 = ORIENTED_EDGE('',*,*,#699,.T.);
#699 = EDGE_CURVE('',#700,#700,#702,.T.);
#700 = VERTEX_POINT('',#701);
#701 = CARTESIAN_POINT('',(-28.,1.5,59.));
#702 = CIRCLE('',#703,1.5);
#703 = AXIS2_PLACEMENT_3D('',#704,#705,#706);
#704 = CARTESIAN_POINT('',(-28.,6.217248937901E-15,59.));
#705 = DIRECTION('',(1.,-2.22044604925E-16,2.22044604925E-16));
#706 = DIRECTION('',(2.22044604925E-16,1.,2.465190328816E-32));
#707 = FACE_BOUND('',#708,.T.);
#708 = EDGE_LOOP('',(#709));
#709 = ORIENTED_EDGE('',*,*,#710,.T.);
#710 = EDGE_CURVE('',#711,#711,#713,.T.);
#711 = VERTEX_POINT('',#712);
#712 = CARTESIAN_POINT('',(-28.,8.5,52.));
#713 = CIRCLE('',#714,1.5);
#714 = AXIS2_PLACEMENT_3D('',#715,#716,#717);
#715 = CARTESIAN_POINT('',(-28.,7.,52.));
#716 = DIRECTION('',(1.,-2.22044604925E-16,2.22044604925E-16));
#717 = DIRECTION('',(2.22044604925E-16,1.,2.465190328816E-32));
#718 = PLANE('',#719);
#719 = AXIS2_PLACEMENT_3D('',#720,#721,#722);
#720 = CARTESIAN_POINT('',(-28.,6.217248937901E-15,35.25));
#721 = DIRECTION('',(1.,-2.22044604925E-16,3.330669073875E-16));
#722 = DIRECTION('',(3.330669073875E-16,-4.930380657631E-32,-1.));
#723 = ADVANCED_FACE('',(#724),#743,.T.);
#724 = FACE_BOUND('',#725,.F.);
#725 = EDGE_LOOP('',(#726,#735,#736,#737));
#726 = ORIENTED_EDGE('',*,*,#727,.T.);
#727 = EDGE_CURVE('',#728,#554,#730,.T.);
#728 = VERTEX_POINT('',#729);
#729 = CARTESIAN_POINT('',(-26.,-0.5,67.5));
#730 = CIRCLE('',#731,12.);
#731 = AXIS2_PLACEMENT_3D('',#732,#733,#734);
#732 = CARTESIAN_POINT('',(-26.,-0.5,55.5));
#733 = DIRECTION('',(1.,-2.22044604925E-16,3.330669073875E-16));
#734 = DIRECTION('',(-3.330669073875E-16,4.930380657631E-32,1.));
#735 = ORIENTED_EDGE('',*,*,#561,.T.);
#736 = ORIENTED_EDGE('',*,*,#602,.F.);
#737 = ORIENTED_EDGE('',*,*,#738,.F.);
#738 = EDGE_CURVE('',#728,#603,#739,.T.);
#739 = LINE('',#740,#741);
#740 = CARTESIAN_POINT('',(-26.,-0.5,67.5));
#741 = VECTOR('',#742,1.);
#742 = DIRECTION('',(-1.,2.22044604925E-16,-3.330669073875E-16));
#743 = CYLINDRICAL_SURFACE('',#744,12.);
#744 = AXIS2_PLACEMENT_3D('',#745,#746,#747);
#745 = CARTESIAN_POINT('',(-26.,-0.5,55.5));
#746 = DIRECTION('',(-1.,2.22044604925E-16,-3.330669073875E-16));
#747 = DIRECTION('',(-3.330669073875E-16,4.930380657631E-32,1.));
#748 = ADVANCED_FACE('',(#749),#768,.T.);
#749 = FACE_BOUND('',#750,.T.);
#750 = EDGE_LOOP('',(#751,#752,#753,#762));
#751 = ORIENTED_EDGE('',*,*,#577,.T.);
#752 = ORIENTED_EDGE('',*,*,#636,.T.);
#753 = ORIENTED_EDGE('',*,*,#754,.F.);
#754 = EDGE_CURVE('',#755,#629,#757,.T.);
#755 = VERTEX_POINT('',#756);
#756 = CARTESIAN_POINT('',(-25.,12.5,-5.551115123126E-15));
#757 = CIRCLE('',#758,3.);
#758 = AXIS2_PLACEMENT_3D('',#759,#760,#761);
#759 = CARTESIAN_POINT('',(-25.,12.5,3.));
#760 = DIRECTION('',(2.22044604925E-16,1.,2.465190328816E-32));
#761 = DIRECTION('',(2.22044604925E-16,-2.465190328816E-32,-1.));
#762 = ORIENTED_EDGE('',*,*,#763,.F.);
#763 = EDGE_CURVE('',#578,#755,#764,.T.);
#764 = LINE('',#765,#766);
#765 = CARTESIAN_POINT('',(-25.,-12.5,-5.551115123126E-15));
#766 = VECTOR('',#767,1.);
#767 = DIRECTION('',(2.22044604925E-16,1.,2.465190328816E-32));
#768 = CYLINDRICAL_SURFACE('',#769,3.);
#769 = AXIS2_PLACEMENT_3D('',#770,#771,#772);
#770 = CARTESIAN_POINT('',(-25.,-12.5,3.));
#771 = DIRECTION('',(2.22044604925E-16,1.,2.465190328816E-32));
#772 = DIRECTION('',(2.22044604925E-16,-2.465190328816E-32,-1.));
#773 = ADVANCED_FACE('',(#774,#809,#820,#831,#842,#853,#864,#875),#886,
  .T.);
#774 = FACE_BOUND('',#775,.F.);
#775 = EDGE_LOOP('',(#776,#786,#792,#793,#794,#802));
#776 = ORIENTED_EDGE('',*,*,#777,.T.);
#777 = EDGE_CURVE('',#778,#780,#782,.T.);
#778 = VERTEX_POINT('',#779);
#779 = CARTESIAN_POINT('',(-26.,12.5,55.5));
#780 = VERTEX_POINT('',#781);
#781 = CARTESIAN_POINT('',(-26.,12.5,3.));
#782 = LINE('',#783,#784);
#783 = CARTESIAN_POINT('',(-26.,12.5,67.5));
#784 = VECTOR('',#785,1.);
#785 = DIRECTION('',(3.330669073875E-16,-4.930380657631E-32,-1.));
#786 = ORIENTED_EDGE('',*,*,#787,.T.);
#787 = EDGE_CURVE('',#780,#545,#788,.T.);
#788 = LINE('',#789,#790);
#789 = CARTESIAN_POINT('',(-26.,12.5,3.));
#790 = VECTOR('',#791,1.);
#791 = DIRECTION('',(-2.22044604925E-16,-1.,-2.465190328816E-32));
#792 = ORIENTED_EDGE('',*,*,#553,.T.);
#793 = ORIENTED_EDGE('',*,*,#727,.F.);
#794 = ORIENTED_EDGE('',*,*,#795,.T.);
#795 = EDGE_CURVE('',#728,#796,#798,.T.);
#796 = VERTEX_POINT('',#797);
#797 = CARTESIAN_POINT('',(-26.,0.5,67.5));
#798 = LINE('',#799,#800);
#799 = CARTESIAN_POINT('',(-26.,-12.5,67.5));
#800 = VECTOR('',#801,1.);
#801 = DIRECTION('',(2.22044604925E-16,1.,2.465190328816E-32));
#802 = ORIENTED_EDGE('',*,*,#803,.T.);
#803 = EDGE_CURVE('',#796,#778,#804,.T.);
#804 = CIRCLE('',#805,12.);
#805 = AXIS2_PLACEMENT_3D('',#806,#807,#808);
#806 = CARTESIAN_POINT('',(-26.,0.5,55.5));
#807 = DIRECTION('',(-1.,2.22044604925E-16,-3.330669073875E-16));
#808 = DIRECTION('',(-3.330669073875E-16,4.930380657631E-32,1.));
#809 = FACE_BOUND('',#810,.F.);
#810 = EDGE_LOOP('',(#811));
#811 = ORIENTED_EDGE('',*,*,#812,.T.);
#812 = EDGE_CURVE('',#813,#813,#815,.T.);
#813 = VERTEX_POINT('',#814);
#814 = CARTESIAN_POINT('',(-26.,-5.5,52.));
#815 = CIRCLE('',#816,1.5);
#816 = AXIS2_PLACEMENT_3D('',#817,#818,#819);
#817 = CARTESIAN_POINT('',(-26.,-7.,52.));
#818 = DIRECTION('',(1.,-2.22044604925E-16,2.22044604925E-16));
#819 = DIRECTION('',(2.22044604925E-16,1.,2.465190328816E-32));
#820 = FACE_BOUND('',#821,.F.);
#821 = EDGE_LOOP('',(#822));
#822 = ORIENTED_EDGE('',*,*,#823,.T.);
#823 = EDGE_CURVE('',#824,#824,#826,.T.);
#824 = VERTEX_POINT('',#825);
#825 = CARTESIAN_POINT('',(-26.,1.5,16.5));
#826 = CIRCLE('',#827,1.5);
#827 = AXIS2_PLACEMENT_3D('',#828,#829,#830);
#828 = CARTESIAN_POINT('',(-26.,5.773159728051E-15,16.5));
#829 = DIRECTION('',(1.,-2.22044604925E-16,2.22044604925E-16));
#830 = DIRECTION('',(2.22044604925E-16,1.,2.465190328816E-32));
#831 = FACE_BOUND('',#832,.F.);
#832 = EDGE_LOOP('',(#833));
#833 = ORIENTED_EDGE('',*,*,#834,.T.);
#834 = EDGE_CURVE('',#835,#835,#837,.T.);
#835 = VERTEX_POINT('',#836);
#836 = CARTESIAN_POINT('',(-26.,1.5,33.5));
#837 = CIRCLE('',#838,1.5);
#838 = AXIS2_PLACEMENT_3D('',#839,#840,#841);
#839 = CARTESIAN_POINT('',(-26.,5.773159728051E-15,33.5));
#840 = DIRECTION('',(1.,-2.22044604925E-16,2.22044604925E-16));
#841 = DIRECTION('',(2.22044604925E-16,1.,2.465190328816E-32));
#842 = FACE_BOUND('',#843,.F.);
#843 = EDGE_LOOP('',(#844));
#844 = ORIENTED_EDGE('',*,*,#845,.T.);
#845 = EDGE_CURVE('',#846,#846,#848,.T.);
#846 = VERTEX_POINT('',#847);
#847 = CARTESIAN_POINT('',(-26.,1.5,45.));
#848 = CIRCLE('',#849,1.5);
#849 = AXIS2_PLACEMENT_3D('',#850,#851,#852);
#850 = CARTESIAN_POINT('',(-26.,5.773159728051E-15,45.));
#851 = DIRECTION('',(1.,-2.22044604925E-16,2.22044604925E-16));
#852 = DIRECTION('',(2.22044604925E-16,1.,2.465190328816E-32));
#853 = FACE_BOUND('',#854,.F.);
#854 = EDGE_LOOP('',(#855));
#855 = ORIENTED_EDGE('',*,*,#856,.T.);
#856 = EDGE_CURVE('',#857,#857,#859,.T.);
#857 = VERTEX_POINT('',#858);
#858 = CARTESIAN_POINT('',(-26.,1.5,52.));
#859 = CIRCLE('',#860,1.5);
#860 = AXIS2_PLACEMENT_3D('',#861,#862,#863);
#861 = CARTESIAN_POINT('',(-26.,5.773159728051E-15,52.));
#862 = DIRECTION('',(1.,-2.22044604925E-16,2.22044604925E-16));
#863 = DIRECTION('',(2.22044604925E-16,1.,2.465190328816E-32));
#864 = FACE_BOUND('',#865,.F.);
#865 = EDGE_LOOP('',(#866));
#866 = ORIENTED_EDGE('',*,*,#867,.T.);
#867 = EDGE_CURVE('',#868,#868,#870,.T.);
#868 = VERTEX_POINT('',#869);
#869 = CARTESIAN_POINT('',(-26.,1.5,59.));
#870 = CIRCLE('',#871,1.5);
#871 = AXIS2_PLACEMENT_3D('',#872,#873,#874);
#872 = CARTESIAN_POINT('',(-26.,5.773159728051E-15,59.));
#873 = DIRECTION('',(1.,-2.22044604925E-16,2.22044604925E-16));
#874 = DIRECTION('',(2.22044604925E-16,1.,2.465190328816E-32));
#875 = FACE_BOUND('',#876,.F.);
#876 = EDGE_LOOP('',(#877));
#877 = ORIENTED_EDGE('',*,*,#878,.T.);
#878 = EDGE_CURVE('',#879,#879,#881,.T.);
#879 = VERTEX_POINT('',#880);
#880 = CARTESIAN_POINT('',(-26.,8.5,52.));
#881 = CIRCLE('',#882,1.5);
#882 = AXIS2_PLACEMENT_3D('',#883,#884,#885);
#883 = CARTESIAN_POINT('',(-26.,7.,52.));
#884 = DIRECTION('',(1.,-2.22044604925E-16,2.22044604925E-16));
#885 = DIRECTION('',(2.22044604925E-16,1.,2.465190328816E-32));
#886 = PLANE('',#887);
#887 = AXIS2_PLACEMENT_3D('',#888,#889,#890);
#888 = CARTESIAN_POINT('',(-26.,5.773159728051E-15,35.25));
#889 = DIRECTION('',(1.,-2.22044604925E-16,3.330669073875E-16));
#890 = DIRECTION('',(3.330669073875E-16,-4.930380657631E-32,-1.));
#891 = ADVANCED_FACE('',(#892),#911,.F.);
#892 = FACE_BOUND('',#893,.T.);
#893 = EDGE_LOOP('',(#894,#903,#904,#905));
#894 = ORIENTED_EDGE('',*,*,#895,.T.);
#895 = EDGE_CURVE('',#896,#780,#898,.T.);
#896 = VERTEX_POINT('',#897);
#897 = CARTESIAN_POINT('',(-25.,12.5,2.));
#898 = CIRCLE('',#899,1.);
#899 = AXIS2_PLACEMENT_3D('',#900,#901,#902);
#900 = CARTESIAN_POINT('',(-25.,12.5,3.));
#901 = DIRECTION('',(2.22044604925E-16,1.,2.465190328816E-32));
#902 = DIRECTION('',(2.22044604925E-16,-2.465190328816E-32,-1.));
#903 = ORIENTED_EDGE('',*,*,#787,.T.);
#904 = ORIENTED_EDGE('',*,*,#544,.F.);
#905 = ORIENTED_EDGE('',*,*,#906,.T.);
#906 = EDGE_CURVE('',#537,#896,#907,.T.);
#907 = LINE('',#908,#909);
#908 = CARTESIAN_POINT('',(-25.,-12.5,2.));
#909 = VECTOR('',#910,1.);
#910 = DIRECTION('',(2.22044604925E-16,1.,2.465190328816E-32));
#911 = CYLINDRICAL_SURFACE('',#912,1.);
#912 = AXIS2_PLACEMENT_3D('',#913,#914,#915);
#913 = CARTESIAN_POINT('',(-25.,12.5,3.));
#914 = DIRECTION('',(-2.22044604925E-16,-1.,-2.465190328816E-32));
#915 = DIRECTION('',(2.22044604925E-16,-2.465190328816E-32,-1.));
#916 = ADVANCED_FACE('',(#917),#933,.T.);
#917 = FACE_BOUND('',#918,.T.);
#918 = EDGE_LOOP('',(#919,#920,#926,#927));
#919 = ORIENTED_EDGE('',*,*,#803,.T.);
#920 = ORIENTED_EDGE('',*,*,#921,.T.);
#921 = EDGE_CURVE('',#778,#620,#922,.T.);
#922 = LINE('',#923,#924);
#923 = CARTESIAN_POINT('',(-26.,12.5,55.5));
#924 = VECTOR('',#925,1.);
#925 = DIRECTION('',(-1.,2.22044604925E-16,-3.330669073875E-16));
#926 = ORIENTED_EDGE('',*,*,#619,.F.);
#927 = ORIENTED_EDGE('',*,*,#928,.F.);
#928 = EDGE_CURVE('',#796,#612,#929,.T.);
#929 = LINE('',#930,#931);
#930 = CARTESIAN_POINT('',(-26.,0.5,67.5));
#931 = VECTOR('',#932,1.);
#932 = DIRECTION('',(-1.,2.22044604925E-16,-3.330669073875E-16));
#933 = CYLINDRICAL_SURFACE('',#934,12.);
#934 = AXIS2_PLACEMENT_3D('',#935,#936,#937);
#935 = CARTESIAN_POINT('',(-26.,0.5,55.5));
#936 = DIRECTION('',(-1.,2.22044604925E-16,-3.330669073875E-16));
#937 = DIRECTION('',(-3.330669073875E-16,4.930380657631E-32,1.));
#938 = ADVANCED_FACE('',(#939),#945,.T.);
#939 = FACE_BOUND('',#940,.F.);
#940 = EDGE_LOOP('',(#941,#942,#943,#944));
#941 = ORIENTED_EDGE('',*,*,#795,.F.);
#942 = ORIENTED_EDGE('',*,*,#738,.T.);
#943 = ORIENTED_EDGE('',*,*,#611,.T.);
#944 = ORIENTED_EDGE('',*,*,#928,.F.);
#945 = PLANE('',#946);
#946 = AXIS2_PLACEMENT_3D('',#947,#948,#949);
#947 = CARTESIAN_POINT('',(-26.,-12.5,67.5));
#948 = DIRECTION('',(-3.330669073875E-16,4.930380657631E-32,1.));
#949 = DIRECTION('',(-2.22044604925E-16,-1.,-2.465190328816E-32));
#950 = ADVANCED_FACE('',(#951),#962,.F.);
#951 = FACE_BOUND('',#952,.T.);
#952 = EDGE_LOOP('',(#953,#959,#960,#961));
#953 = ORIENTED_EDGE('',*,*,#954,.F.);
#954 = EDGE_CURVE('',#645,#813,#955,.T.);
#955 = LINE('',#956,#957);
#956 = CARTESIAN_POINT('',(-28.,-5.5,52.));
#957 = VECTOR('',#958,1.);
#958 = DIRECTION('',(1.,-2.22044604925E-16,2.22044604925E-16));
#959 = ORIENTED_EDGE('',*,*,#644,.F.);
#960 = ORIENTED_EDGE('',*,*,#954,.T.);
#961 = ORIENTED_EDGE('',*,*,#812,.T.);
#962 = CYLINDRICAL_SURFACE('',#963,1.5);
#963 = AXIS2_PLACEMENT_3D('',#964,#965,#966);
#964 = CARTESIAN_POINT('',(-28.,-7.,52.));
#965 = DIRECTION('',(-1.,2.22044604925E-16,-2.22044604925E-16));
#966 = DIRECTION('',(2.22044604925E-16,1.,2.465190328816E-32));
#967 = ADVANCED_FACE('',(#968),#979,.F.);
#968 = FACE_BOUND('',#969,.T.);
#969 = EDGE_LOOP('',(#970,#976,#977,#978));
#970 = ORIENTED_EDGE('',*,*,#971,.F.);
#971 = EDGE_CURVE('',#656,#824,#972,.T.);
#972 = LINE('',#973,#974);
#973 = CARTESIAN_POINT('',(-28.,1.5,16.5));
#974 = VECTOR('',#975,1.);
#975 = DIRECTION('',(1.,-2.22044604925E-16,2.22044604925E-16));
#976 = ORIENTED_EDGE('',*,*,#655,.F.);
#977 = ORIENTED_EDGE('',*,*,#971,.T.);
#978 = ORIENTED_EDGE('',*,*,#823,.T.);
#979 = CYLINDRICAL_SURFACE('',#980,1.5);
#980 = AXIS2_PLACEMENT_3D('',#981,#982,#983);
#981 = CARTESIAN_POINT('',(-28.,6.217248937901E-15,16.5));
#982 = DIRECTION('',(-1.,2.22044604925E-16,-2.22044604925E-16));
#983 = DIRECTION('',(2.22044604925E-16,1.,2.465190328816E-32));
#984 = ADVANCED_FACE('',(#985),#996,.F.);
#985 = FACE_BOUND('',#986,.T.);
#986 = EDGE_LOOP('',(#987,#993,#994,#995));
#987 = ORIENTED_EDGE('',*,*,#988,.F.);
#988 = EDGE_CURVE('',#667,#835,#989,.T.);
#989 = LINE('',#990,#991);
#990 = CARTESIAN_POINT('',(-28.,1.5,33.5));
#991 = VECTOR('',#992,1.);
#992 = DIRECTION('',(1.,-2.22044604925E-16,2.22044604925E-16));
#993 = ORIENTED_EDGE('',*,*,#666,.F.);
#994 = ORIENTED_EDGE('',*,*,#988,.T.);
#995 = ORIENTED_EDGE('',*,*,#834,.T.);
#996 = CYLINDRICAL_SURFACE('',#997,1.5);
#997 = AXIS2_PLACEMENT_3D('',#998,#999,#1000);
#998 = CARTESIAN_POINT('',(-28.,6.217248937901E-15,33.5));
#999 = DIRECTION('',(-1.,2.22044604925E-16,-2.22044604925E-16));
#1000 = DIRECTION('',(2.22044604925E-16,1.,2.465190328816E-32));
#1001 = ADVANCED_FACE('',(#1002),#1013,.F.);
#1002 = FACE_BOUND('',#1003,.T.);
#1003 = EDGE_LOOP('',(#1004,#1010,#1011,#1012));
#1004 = ORIENTED_EDGE('',*,*,#1005,.F.);
#1005 = EDGE_CURVE('',#678,#846,#1006,.T.);
#1006 = LINE('',#1007,#1008);
#1007 = CARTESIAN_POINT('',(-28.,1.5,45.));
#1008 = VECTOR('',#1009,1.);
#1009 = DIRECTION('',(1.,-2.22044604925E-16,2.22044604925E-16));
#1010 = ORIENTED_EDGE('',*,*,#677,.F.);
#1011 = ORIENTED_EDGE('',*,*,#1005,.T.);
#1012 = ORIENTED_EDGE('',*,*,#845,.T.);
#1013 = CYLINDRICAL_SURFACE('',#1014,1.5);
#1014 = AXIS2_PLACEMENT_3D('',#1015,#1016,#1017);
#1015 = CARTESIAN_POINT('',(-28.,6.217248937901E-15,45.));
#1016 = DIRECTION('',(-1.,2.22044604925E-16,-2.22044604925E-16));
#1017 = DIRECTION('',(2.22044604925E-16,1.,2.465190328816E-32));
#1018 = ADVANCED_FACE('',(#1019),#1030,.F.);
#1019 = FACE_BOUND('',#1020,.T.);
#1020 = EDGE_LOOP('',(#1021,#1027,#1028,#1029));
#1021 = ORIENTED_EDGE('',*,*,#1022,.F.);
#1022 = EDGE_CURVE('',#689,#857,#1023,.T.);
#1023 = LINE('',#1024,#1025);
#1024 = CARTESIAN_POINT('',(-28.,1.5,52.));
#1025 = VECTOR('',#1026,1.);
#1026 = DIRECTION('',(1.,-2.22044604925E-16,2.22044604925E-16));
#1027 = ORIENTED_EDGE('',*,*,#688,.F.);
#1028 = ORIENTED_EDGE('',*,*,#1022,.T.);
#1029 = ORIENTED_EDGE('',*,*,#856,.T.);
#1030 = CYLINDRICAL_SURFACE('',#1031,1.5);
#1031 = AXIS2_PLACEMENT_3D('',#1032,#1033,#1034);
#1032 = CARTESIAN_POINT('',(-28.,6.217248937901E-15,52.));
#1033 = DIRECTION('',(-1.,2.22044604925E-16,-2.22044604925E-16));
#1034 = DIRECTION('',(2.22044604925E-16,1.,2.465190328816E-32));
#1035 = ADVANCED_FACE('',(#1036),#1047,.F.);
#1036 = FACE_BOUND('',#1037,.T.);
#1037 = EDGE_LOOP('',(#1038,#1044,#1045,#1046));
#1038 = ORIENTED_EDGE('',*,*,#1039,.F.);
#1039 = EDGE_CURVE('',#700,#868,#1040,.T.);
#1040 = LINE('',#1041,#1042);
#1041 = CARTESIAN_POINT('',(-28.,1.5,59.));
#1042 = VECTOR('',#1043,1.);
#1043 = DIRECTION('',(1.,-2.22044604925E-16,2.22044604925E-16));
#1044 = ORIENTED_EDGE('',*,*,#699,.F.);
#1045 = ORIENTED_EDGE('',*,*,#1039,.T.);
#1046 = ORIENTED_EDGE('',*,*,#867,.T.);
#1047 = CYLINDRICAL_SURFACE('',#1048,1.5);
#1048 = AXIS2_PLACEMENT_3D('',#1049,#1050,#1051);
#1049 = CARTESIAN_POINT('',(-28.,6.217248937901E-15,59.));
#1050 = DIRECTION('',(-1.,2.22044604925E-16,-2.22044604925E-16));
#1051 = DIRECTION('',(2.22044604925E-16,1.,2.465190328816E-32));
#1052 = ADVANCED_FACE('',(#1053),#1064,.F.);
#1053 = FACE_BOUND('',#1054,.T.);
#1054 = EDGE_LOOP('',(#1055,#1061,#1062,#1063));
#1055 = ORIENTED_EDGE('',*,*,#1056,.F.);
#1056 = EDGE_CURVE('',#711,#879,#1057,.T.);
#1057 = LINE('',#1058,#1059);
#1058 = CARTESIAN_POINT('',(-28.,8.5,52.));
#1059 = VECTOR('',#1060,1.);
#1060 = DIRECTION('',(1.,-2.22044604925E-16,2.22044604925E-16));
#1061 = ORIENTED_EDGE('',*,*,#710,.F.);
#1062 = ORIENTED_EDGE('',*,*,#1056,.T.);
#1063 = ORIENTED_EDGE('',*,*,#878,.T.);
#1064 = CYLINDRICAL_SURFACE('',#1065,1.5);
#1065 = AXIS2_PLACEMENT_3D('',#1066,#1067,#1068);
#1066 = CARTESIAN_POINT('',(-28.,7.,52.));
#1067 = DIRECTION('',(-1.,2.22044604925E-16,-2.22044604925E-16));
#1068 = DIRECTION('',(2.22044604925E-16,1.,2.465190328816E-32));
#1069 = ADVANCED_FACE('',(#1070),#1094,.T.);
#1070 = FACE_BOUND('',#1071,.T.);
#1071 = EDGE_LOOP('',(#1072,#1073,#1074,#1075,#1076,#1082,#1083,#1084,
    #1085,#1086,#1087,#1093));
#1072 = ORIENTED_EDGE('',*,*,#445,.F.);
#1073 = ORIENTED_EDGE('',*,*,#254,.T.);
#1074 = ORIENTED_EDGE('',*,*,#57,.T.);
#1075 = ORIENTED_EDGE('',*,*,#198,.F.);
#1076 = ORIENTED_EDGE('',*,*,#1077,.T.);
#1077 = EDGE_CURVE('',#199,#755,#1078,.T.);
#1078 = LINE('',#1079,#1080);
#1079 = CARTESIAN_POINT('',(25.,12.5,0.));
#1080 = VECTOR('',#1081,1.);
#1081 = DIRECTION('',(-1.,0.,0.));
#1082 = ORIENTED_EDGE('',*,*,#754,.T.);
#1083 = ORIENTED_EDGE('',*,*,#628,.F.);
#1084 = ORIENTED_EDGE('',*,*,#921,.F.);
#1085 = ORIENTED_EDGE('',*,*,#777,.T.);
#1086 = ORIENTED_EDGE('',*,*,#895,.F.);
#1087 = ORIENTED_EDGE('',*,*,#1088,.T.);
#1088 = EDGE_CURVE('',#896,#500,#1089,.T.);
#1089 = LINE('',#1090,#1091);
#1090 = CARTESIAN_POINT('',(-25.,12.5,2.));
#1091 = VECTOR('',#1092,1.);
#1092 = DIRECTION('',(1.,-2.22044604925E-16,2.22044604925E-16));
#1093 = ORIENTED_EDGE('',*,*,#499,.T.);
#1094 = PLANE('',#1095);
#1095 = AXIS2_PLACEMENT_3D('',#1096,#1097,#1098);
#1096 = CARTESIAN_POINT('',(-1.284283921848E-15,12.5,19.859033177679));
#1097 = DIRECTION('',(0.,1.,0.));
#1098 = DIRECTION('',(0.,0.,1.));
#1099 = ADVANCED_FACE('',(#1100,#1106,#1144,#1182,#1193,#1204),#1242,.T.
  );
#1100 = FACE_BOUND('',#1101,.T.);
#1101 = EDGE_LOOP('',(#1102,#1103,#1104,#1105));
#1102 = ORIENTED_EDGE('',*,*,#1077,.F.);
#1103 = ORIENTED_EDGE('',*,*,#207,.F.);
#1104 = ORIENTED_EDGE('',*,*,#586,.T.);
#1105 = ORIENTED_EDGE('',*,*,#763,.T.);
#1106 = FACE_BOUND('',#1107,.T.);
#1107 = EDGE_LOOP('',(#1108,#1119,#1128,#1137));
#1108 = ORIENTED_EDGE('',*,*,#1109,.T.);
#1109 = EDGE_CURVE('',#1110,#1112,#1114,.T.);
#1110 = VERTEX_POINT('',#1111);
#1111 = CARTESIAN_POINT('',(-4.440892098501E-16,-4.,3.557311676851E-30)
  );
#1112 = VERTEX_POINT('',#1113);
#1113 = CARTESIAN_POINT('',(4.,0.,0.));
#1114 = CIRCLE('',#1115,4.);
#1115 = AXIS2_PLACEMENT_3D('',#1116,#1117,#1118);
#1116 = CARTESIAN_POINT('',(0.,0.,0.));
#1117 = DIRECTION('',(0.,0.,1.));
#1118 = DIRECTION('',(1.,0.,0.));
#1119 = ORIENTED_EDGE('',*,*,#1120,.T.);
#1120 = EDGE_CURVE('',#1112,#1121,#1123,.T.);
#1121 = VERTEX_POINT('',#1122);
#1122 = CARTESIAN_POINT('',(4.440892098501E-16,4.,4.136141384749E-30));
#1123 = CIRCLE('',#1124,4.);
#1124 = AXIS2_PLACEMENT_3D('',#1125,#1126,#1127);
#1125 = CARTESIAN_POINT('',(0.,0.,0.));
#1126 = DIRECTION('',(0.,0.,1.));
#1127 = DIRECTION('',(1.,0.,0.));
#1128 = ORIENTED_EDGE('',*,*,#1129,.F.);
#1129 = EDGE_CURVE('',#1130,#1121,#1132,.T.);
#1130 = VERTEX_POINT('',#1131);
#1131 = CARTESIAN_POINT('',(-4.,8.881784197001E-16,-8.881784197001E-16)
  );
#1132 = CIRCLE('',#1133,4.);
#1133 = AXIS2_PLACEMENT_3D('',#1134,#1135,#1136);
#1134 = CARTESIAN_POINT('',(0.,0.,0.));
#1135 = DIRECTION('',(2.22044604925E-16,-2.465190328816E-32,-1.));
#1136 = DIRECTION('',(-1.,2.22044604925E-16,-2.22044604925E-16));
#1137 = ORIENTED_EDGE('',*,*,#1138,.F.);
#1138 = EDGE_CURVE('',#1110,#1130,#1139,.T.);
#1139 = CIRCLE('',#1140,4.);
#1140 = AXIS2_PLACEMENT_3D('',#1141,#1142,#1143);
#1141 = CARTESIAN_POINT('',(0.,0.,0.));
#1142 = DIRECTION('',(2.22044604925E-16,-2.465190328816E-32,-1.));
#1143 = DIRECTION('',(-1.,2.22044604925E-16,-2.22044604925E-16));
#1144 = FACE_BOUND('',#1145,.T.);
#1145 = EDGE_LOOP('',(#1146,#1157,#1166,#1175));
#1146 = ORIENTED_EDGE('',*,*,#1147,.T.);
#1147 = EDGE_CURVE('',#1148,#1150,#1152,.T.);
#1148 = VERTEX_POINT('',#1149);
#1149 = CARTESIAN_POINT('',(-9.436895709314E-16,-8.5,8.18296932449E-31)
  );
#1150 = VERTEX_POINT('',#1151);
#1151 = CARTESIAN_POINT('',(1.5,-7.,0.));
#1152 = CIRCLE('',#1153,1.5);
#1153 = AXIS2_PLACEMENT_3D('',#1154,#1155,#1156);
#1154 = CARTESIAN_POINT('',(0.,-7.,0.));
#1155 = DIRECTION('',(0.,0.,1.));
#1156 = DIRECTION('',(1.,0.,0.));
#1157 = ORIENTED_EDGE('',*,*,#1158,.T.);
#1158 = EDGE_CURVE('',#1150,#1159,#1161,.T.);
#1159 = VERTEX_POINT('',#1160);
#1160 = CARTESIAN_POINT('',(-6.106226635438E-16,-5.5,9.244245081139E-31)
  );
#1161 = CIRCLE('',#1162,1.5);
#1162 = AXIS2_PLACEMENT_3D('',#1163,#1164,#1165);
#1163 = CARTESIAN_POINT('',(0.,-7.,0.));
#1164 = DIRECTION('',(0.,0.,1.));
#1165 = DIRECTION('',(1.,0.,0.));
#1166 = ORIENTED_EDGE('',*,*,#1167,.F.);
#1167 = EDGE_CURVE('',#1168,#1159,#1170,.T.);
#1168 = VERTEX_POINT('',#1169);
#1169 = CARTESIAN_POINT('',(-1.5,-7.,-3.330669073875E-16));
#1170 = CIRCLE('',#1171,1.5);
#1171 = AXIS2_PLACEMENT_3D('',#1172,#1173,#1174);
#1172 = CARTESIAN_POINT('',(-1.554312234475E-15,-7.,-1.725633230171E-31)
  );
#1173 = DIRECTION('',(2.22044604925E-16,-2.465190328816E-32,-1.));
#1174 = DIRECTION('',(-1.,2.22044604925E-16,-2.22044604925E-16));
#1175 = ORIENTED_EDGE('',*,*,#1176,.F.);
#1176 = EDGE_CURVE('',#1148,#1168,#1177,.T.);
#1177 = CIRCLE('',#1178,1.5);
#1178 = AXIS2_PLACEMENT_3D('',#1179,#1180,#1181);
#1179 = CARTESIAN_POINT('',(-1.554312234475E-15,-7.,-1.725633230171E-31)
  );
#1180 = DIRECTION('',(2.22044604925E-16,-2.465190328816E-32,-1.));
#1181 = DIRECTION('',(-1.,2.22044604925E-16,-2.22044604925E-16));
#1182 = FACE_BOUND('',#1183,.T.);
#1183 = EDGE_LOOP('',(#1184));
#1184 = ORIENTED_EDGE('',*,*,#1185,.T.);
#1185 = EDGE_CURVE('',#1186,#1186,#1188,.T.);
#1186 = VERTEX_POINT('',#1187);
#1187 = CARTESIAN_POINT('',(8.5,0.,0.));
#1188 = CIRCLE('',#1189,1.5);
#1189 = AXIS2_PLACEMENT_3D('',#1190,#1191,#1192);
#1190 = CARTESIAN_POINT('',(7.,0.,0.));
#1191 = DIRECTION('',(0.,0.,1.));
#1192 = DIRECTION('',(1.,0.,0.));
#1193 = FACE_BOUND('',#1194,.T.);
#1194 = EDGE_LOOP('',(#1195));
#1195 = ORIENTED_EDGE('',*,*,#1196,.F.);
#1196 = EDGE_CURVE('',#1197,#1197,#1199,.T.);
#1197 = VERTEX_POINT('',#1198);
#1198 = CARTESIAN_POINT('',(-8.5,1.887379141863E-15,-1.887379141863E-15)
  );
#1199 = CIRCLE('',#1200,1.5);
#1200 = AXIS2_PLACEMENT_3D('',#1201,#1202,#1203);
#1201 = CARTESIAN_POINT('',(-7.,1.554312234475E-15,-1.554312234475E-15)
  );
#1202 = DIRECTION('',(2.22044604925E-16,-2.465190328816E-32,-1.));
#1203 = DIRECTION('',(-1.,2.22044604925E-16,-2.22044604925E-16));
#1204 = FACE_BOUND('',#1205,.T.);
#1205 = EDGE_LOOP('',(#1206,#1217,#1226,#1235));
#1206 = ORIENTED_EDGE('',*,*,#1207,.T.);
#1207 = EDGE_CURVE('',#1208,#1210,#1212,.T.);
#1208 = VERTEX_POINT('',#1209);
#1209 = CARTESIAN_POINT('',(6.106226635438E-16,5.5,9.773248198169E-31));
#1210 = VERTEX_POINT('',#1211);
#1211 = CARTESIAN_POINT('',(1.5,7.,0.));
#1212 = CIRCLE('',#1213,1.5);
#1213 = AXIS2_PLACEMENT_3D('',#1214,#1215,#1216);
#1214 = CARTESIAN_POINT('',(0.,7.,0.));
#1215 = DIRECTION('',(0.,0.,1.));
#1216 = DIRECTION('',(1.,0.,0.));
#1217 = ORIENTED_EDGE('',*,*,#1218,.T.);
#1218 = EDGE_CURVE('',#1210,#1219,#1221,.T.);
#1219 = VERTEX_POINT('',#1220);
#1220 = CARTESIAN_POINT('',(9.436895709314E-16,8.5,1.064963468016E-30));
#1221 = CIRCLE('',#1222,1.5);
#1222 = AXIS2_PLACEMENT_3D('',#1223,#1224,#1225);
#1223 = CARTESIAN_POINT('',(0.,7.,0.));
#1224 = DIRECTION('',(0.,0.,1.));
#1225 = DIRECTION('',(1.,0.,0.));
#1226 = ORIENTED_EDGE('',*,*,#1227,.F.);
#1227 = EDGE_CURVE('',#1228,#1219,#1230,.T.);
#1228 = VERTEX_POINT('',#1229);
#1229 = CARTESIAN_POINT('',(-1.5,7.,-3.330669073875E-16));
#1230 = CIRCLE('',#1231,1.5);
#1231 = AXIS2_PLACEMENT_3D('',#1232,#1233,#1234);
#1232 = CARTESIAN_POINT('',(1.554312234475E-15,7.,1.725633230171E-31));
#1233 = DIRECTION('',(2.22044604925E-16,-2.465190328816E-32,-1.));
#1234 = DIRECTION('',(-1.,2.22044604925E-16,-2.22044604925E-16));
#1235 = ORIENTED_EDGE('',*,*,#1236,.F.);
#1236 = EDGE_CURVE('',#1208,#1228,#1237,.T.);
#1237 = CIRCLE('',#1238,1.5);
#1238 = AXIS2_PLACEMENT_3D('',#1239,#1240,#1241);
#1239 = CARTESIAN_POINT('',(1.554312234475E-15,7.,1.725633230171E-31));
#1240 = DIRECTION('',(2.22044604925E-16,-2.465190328816E-32,-1.));
#1241 = DIRECTION('',(-1.,2.22044604925E-16,-2.22044604925E-16));
#1242 = PLANE('',#1243);
#1243 = AXIS2_PLACEMENT_3D('',#1244,#1245,#1246);
#1244 = CARTESIAN_POINT('',(1.43292785045E-15,1.515824502955E-15,
    -1.850371707709E-15));
#1245 = DIRECTION('',(-0.,-0.,-1.));
#1246 = DIRECTION('',(-1.,0.,0.));
#1247 = ADVANCED_FACE('',(#1248),#1267,.F.);
#1248 = FACE_BOUND('',#1249,.F.);
#1249 = EDGE_LOOP('',(#1250,#1258,#1265,#1266));
#1250 = ORIENTED_EDGE('',*,*,#1251,.F.);
#1251 = EDGE_CURVE('',#1252,#1186,#1254,.T.);
#1252 = VERTEX_POINT('',#1253);
#1253 = CARTESIAN_POINT('',(8.5,0.,2.));
#1254 = LINE('',#1255,#1256);
#1255 = CARTESIAN_POINT('',(8.5,0.,2.));
#1256 = VECTOR('',#1257,1.);
#1257 = DIRECTION('',(-0.,-0.,-1.));
#1258 = ORIENTED_EDGE('',*,*,#1259,.F.);
#1259 = EDGE_CURVE('',#1252,#1252,#1260,.T.);
#1260 = CIRCLE('',#1261,1.5);
#1261 = AXIS2_PLACEMENT_3D('',#1262,#1263,#1264);
#1262 = CARTESIAN_POINT('',(7.,0.,2.));
#1263 = DIRECTION('',(0.,0.,1.));
#1264 = DIRECTION('',(1.,0.,0.));
#1265 = ORIENTED_EDGE('',*,*,#1251,.T.);
#1266 = ORIENTED_EDGE('',*,*,#1185,.T.);
#1267 = CYLINDRICAL_SURFACE('',#1268,1.5);
#1268 = AXIS2_PLACEMENT_3D('',#1269,#1270,#1271);
#1269 = CARTESIAN_POINT('',(7.,0.,2.));
#1270 = DIRECTION('',(0.,0.,1.));
#1271 = DIRECTION('',(1.,0.,0.));
#1272 = ADVANCED_FACE('',(#1273),#1292,.F.);
#1273 = FACE_BOUND('',#1274,.T.);
#1274 = EDGE_LOOP('',(#1275,#1283,#1290,#1291));
#1275 = ORIENTED_EDGE('',*,*,#1276,.F.);
#1276 = EDGE_CURVE('',#1277,#1197,#1279,.T.);
#1277 = VERTEX_POINT('',#1278);
#1278 = CARTESIAN_POINT('',(-8.5,1.887379141863E-15,2.));
#1279 = LINE('',#1280,#1281);
#1280 = CARTESIAN_POINT('',(-8.5,1.887379141863E-15,2.));
#1281 = VECTOR('',#1282,1.);
#1282 = DIRECTION('',(2.22044604925E-16,-2.465190328816E-32,-1.));
#1283 = ORIENTED_EDGE('',*,*,#1284,.F.);
#1284 = EDGE_CURVE('',#1277,#1277,#1285,.T.);
#1285 = CIRCLE('',#1286,1.5);
#1286 = AXIS2_PLACEMENT_3D('',#1287,#1288,#1289);
#1287 = CARTESIAN_POINT('',(-7.,1.554312234475E-15,2.));
#1288 = DIRECTION('',(2.22044604925E-16,-2.465190328816E-32,-1.));
#1289 = DIRECTION('',(-1.,2.22044604925E-16,-2.22044604925E-16));
#1290 = ORIENTED_EDGE('',*,*,#1276,.T.);
#1291 = ORIENTED_EDGE('',*,*,#1196,.T.);
#1292 = CYLINDRICAL_SURFACE('',#1293,1.5);
#1293 = AXIS2_PLACEMENT_3D('',#1294,#1295,#1296);
#1294 = CARTESIAN_POINT('',(-7.,1.554312234475E-15,2.));
#1295 = DIRECTION('',(-2.22044604925E-16,2.465190328816E-32,1.));
#1296 = DIRECTION('',(-1.,2.22044604925E-16,-2.22044604925E-16));
#1297 = ADVANCED_FACE('',(#1298,#1304,#1342,#1380,#1383,#1386),#1424,.T.
  );
#1298 = FACE_BOUND('',#1299,.T.);
#1299 = EDGE_LOOP('',(#1300,#1301,#1302,#1303));
#1300 = ORIENTED_EDGE('',*,*,#1088,.F.);
#1301 = ORIENTED_EDGE('',*,*,#906,.F.);
#1302 = ORIENTED_EDGE('',*,*,#536,.T.);
#1303 = ORIENTED_EDGE('',*,*,#518,.T.);
#1304 = FACE_BOUND('',#1305,.T.);
#1305 = EDGE_LOOP('',(#1306,#1317,#1326,#1335));
#1306 = ORIENTED_EDGE('',*,*,#1307,.F.);
#1307 = EDGE_CURVE('',#1308,#1310,#1312,.T.);
#1308 = VERTEX_POINT('',#1309);
#1309 = CARTESIAN_POINT('',(-6.661338147751E-16,-4.,2.));
#1310 = VERTEX_POINT('',#1311);
#1311 = CARTESIAN_POINT('',(4.,0.,2.));
#1312 = CIRCLE('',#1313,4.);
#1313 = AXIS2_PLACEMENT_3D('',#1314,#1315,#1316);
#1314 = CARTESIAN_POINT('',(0.,0.,2.));
#1315 = DIRECTION('',(0.,0.,1.));
#1316 = DIRECTION('',(1.,0.,0.));
#1317 = ORIENTED_EDGE('',*,*,#1318,.T.);
#1318 = EDGE_CURVE('',#1308,#1319,#1321,.T.);
#1319 = VERTEX_POINT('',#1320);
#1320 = CARTESIAN_POINT('',(-4.,8.881784197001E-16,2.));
#1321 = CIRCLE('',#1322,4.);
#1322 = AXIS2_PLACEMENT_3D('',#1323,#1324,#1325);
#1323 = CARTESIAN_POINT('',(-4.440892098501E-16,4.930380657631E-32,2.));
#1324 = DIRECTION('',(2.22044604925E-16,-2.465190328816E-32,-1.));
#1325 = DIRECTION('',(-1.,2.22044604925E-16,-2.22044604925E-16));
#1326 = ORIENTED_EDGE('',*,*,#1327,.T.);
#1327 = EDGE_CURVE('',#1319,#1328,#1330,.T.);
#1328 = VERTEX_POINT('',#1329);
#1329 = CARTESIAN_POINT('',(2.22044604925E-16,4.,2.));
#1330 = CIRCLE('',#1331,4.);
#1331 = AXIS2_PLACEMENT_3D('',#1332,#1333,#1334);
#1332 = CARTESIAN_POINT('',(-4.440892098501E-16,4.930380657631E-32,2.));
#1333 = DIRECTION('',(2.22044604925E-16,-2.465190328816E-32,-1.));
#1334 = DIRECTION('',(-1.,2.22044604925E-16,-2.22044604925E-16));
#1335 = ORIENTED_EDGE('',*,*,#1336,.F.);
#1336 = EDGE_CURVE('',#1310,#1328,#1337,.T.);
#1337 = CIRCLE('',#1338,4.);
#1338 = AXIS2_PLACEMENT_3D('',#1339,#1340,#1341);
#1339 = CARTESIAN_POINT('',(0.,0.,2.));
#1340 = DIRECTION('',(0.,0.,1.));
#1341 = DIRECTION('',(1.,0.,0.));
#1342 = FACE_BOUND('',#1343,.T.);
#1343 = EDGE_LOOP('',(#1344,#1355,#1364,#1373));
#1344 = ORIENTED_EDGE('',*,*,#1345,.F.);
#1345 = EDGE_CURVE('',#1346,#1348,#1350,.T.);
#1346 = VERTEX_POINT('',#1347);
#1347 = CARTESIAN_POINT('',(-1.165734175856E-15,-8.5,2.));
#1348 = VERTEX_POINT('',#1349);
#1349 = CARTESIAN_POINT('',(1.5,-7.,2.));
#1350 = CIRCLE('',#1351,1.5);
#1351 = AXIS2_PLACEMENT_3D('',#1352,#1353,#1354);
#1352 = CARTESIAN_POINT('',(0.,-7.,2.));
#1353 = DIRECTION('',(0.,0.,1.));
#1354 = DIRECTION('',(1.,0.,0.));
#1355 = ORIENTED_EDGE('',*,*,#1356,.T.);
#1356 = EDGE_CURVE('',#1346,#1357,#1359,.T.);
#1357 = VERTEX_POINT('',#1358);
#1358 = CARTESIAN_POINT('',(-1.5,-7.,2.));
#1359 = CIRCLE('',#1360,1.5);
#1360 = AXIS2_PLACEMENT_3D('',#1361,#1362,#1363);
#1361 = CARTESIAN_POINT('',(-1.998401444325E-15,-7.,2.));
#1362 = DIRECTION('',(2.22044604925E-16,-2.465190328816E-32,-1.));
#1363 = DIRECTION('',(-1.,2.22044604925E-16,-2.22044604925E-16));
#1364 = ORIENTED_EDGE('',*,*,#1365,.T.);
#1365 = EDGE_CURVE('',#1357,#1366,#1368,.T.);
#1366 = VERTEX_POINT('',#1367);
#1367 = CARTESIAN_POINT('',(-8.326672684689E-16,-5.5,2.));
#1368 = CIRCLE('',#1369,1.5);
#1369 = AXIS2_PLACEMENT_3D('',#1370,#1371,#1372);
#1370 = CARTESIAN_POINT('',(-1.998401444325E-15,-7.,2.));
#1371 = DIRECTION('',(2.22044604925E-16,-2.465190328816E-32,-1.));
#1372 = DIRECTION('',(-1.,2.22044604925E-16,-2.22044604925E-16));
#1373 = ORIENTED_EDGE('',*,*,#1374,.F.);
#1374 = EDGE_CURVE('',#1348,#1366,#1375,.T.);
#1375 = CIRCLE('',#1376,1.5);
#1376 = AXIS2_PLACEMENT_3D('',#1377,#1378,#1379);
#1377 = CARTESIAN_POINT('',(0.,-7.,2.));
#1378 = DIRECTION('',(0.,0.,1.));
#1379 = DIRECTION('',(1.,0.,0.));
#1380 = FACE_BOUND('',#1381,.T.);
#1381 = EDGE_LOOP('',(#1382));
#1382 = ORIENTED_EDGE('',*,*,#1259,.F.);
#1383 = FACE_BOUND('',#1384,.T.);
#1384 = EDGE_LOOP('',(#1385));
#1385 = ORIENTED_EDGE('',*,*,#1284,.T.);
#1386 = FACE_BOUND('',#1387,.T.);
#1387 = EDGE_LOOP('',(#1388,#1399,#1408,#1417));
#1388 = ORIENTED_EDGE('',*,*,#1389,.F.);
#1389 = EDGE_CURVE('',#1390,#1392,#1394,.T.);
#1390 = VERTEX_POINT('',#1391);
#1391 = CARTESIAN_POINT('',(3.885780586188E-16,5.5,2.));
#1392 = VERTEX_POINT('',#1393);
#1393 = CARTESIAN_POINT('',(1.5,7.,2.));
#1394 = CIRCLE('',#1395,1.5);
#1395 = AXIS2_PLACEMENT_3D('',#1396,#1397,#1398);
#1396 = CARTESIAN_POINT('',(0.,7.,2.));
#1397 = DIRECTION('',(0.,0.,1.));
#1398 = DIRECTION('',(1.,0.,0.));
#1399 = ORIENTED_EDGE('',*,*,#1400,.T.);
#1400 = EDGE_CURVE('',#1390,#1401,#1403,.T.);
#1401 = VERTEX_POINT('',#1402);
#1402 = CARTESIAN_POINT('',(-1.5,7.,2.));
#1403 = CIRCLE('',#1404,1.5);
#1404 = AXIS2_PLACEMENT_3D('',#1405,#1406,#1407);
#1405 = CARTESIAN_POINT('',(1.110223024625E-15,7.,2.));
#1406 = DIRECTION('',(2.22044604925E-16,-2.465190328816E-32,-1.));
#1407 = DIRECTION('',(-1.,2.22044604925E-16,-2.22044604925E-16));
#1408 = ORIENTED_EDGE('',*,*,#1409,.T.);
#1409 = EDGE_CURVE('',#1401,#1410,#1412,.T.);
#1410 = VERTEX_POINT('',#1411);
#1411 = CARTESIAN_POINT('',(7.216449660064E-16,8.5,2.));
#1412 = CIRCLE('',#1413,1.5);
#1413 = AXIS2_PLACEMENT_3D('',#1414,#1415,#1416);
#1414 = CARTESIAN_POINT('',(1.110223024625E-15,7.,2.));
#1415 = DIRECTION('',(2.22044604925E-16,-2.465190328816E-32,-1.));
#1416 = DIRECTION('',(-1.,2.22044604925E-16,-2.22044604925E-16));
#1417 = ORIENTED_EDGE('',*,*,#1418,.F.);
#1418 = EDGE_CURVE('',#1392,#1410,#1419,.T.);
#1419 = CIRCLE('',#1420,1.5);
#1420 = AXIS2_PLACEMENT_3D('',#1421,#1422,#1423);
#1421 = CARTESIAN_POINT('',(0.,7.,2.));
#1422 = DIRECTION('',(0.,0.,1.));
#1423 = DIRECTION('',(1.,0.,0.));
#1424 = PLANE('',#1425);
#1425 = AXIS2_PLACEMENT_3D('',#1426,#1427,#1428);
#1426 = CARTESIAN_POINT('',(7.579122514774E-16,1.515824502955E-15,2.));
#1427 = DIRECTION('',(0.,0.,1.));
#1428 = DIRECTION('',(1.,0.,0.));
#1429 = ADVANCED_FACE('',(#1430),#1446,.F.);
#1430 = FACE_BOUND('',#1431,.F.);
#1431 = EDGE_LOOP('',(#1432,#1433,#1434,#1439,#1440,#1441,#1442,#1443,
    #1444,#1445));
#1432 = ORIENTED_EDGE('',*,*,#1176,.F.);
#1433 = ORIENTED_EDGE('',*,*,#1147,.T.);
#1434 = ORIENTED_EDGE('',*,*,#1435,.T.);
#1435 = EDGE_CURVE('',#1150,#1348,#1436,.T.);
#1436 = B_SPLINE_CURVE_WITH_KNOTS('',1,(#1437,#1438),.UNSPECIFIED.,.F.,
  .F.,(2,2),(-2.,0.),.PIECEWISE_BEZIER_KNOTS.);
#1437 = CARTESIAN_POINT('',(1.5,-7.,0.));
#1438 = CARTESIAN_POINT('',(1.5,-7.,2.));
#1439 = ORIENTED_EDGE('',*,*,#1345,.F.);
#1440 = ORIENTED_EDGE('',*,*,#1356,.T.);
#1441 = ORIENTED_EDGE('',*,*,#1365,.T.);
#1442 = ORIENTED_EDGE('',*,*,#1374,.F.);
#1443 = ORIENTED_EDGE('',*,*,#1435,.F.);
#1444 = ORIENTED_EDGE('',*,*,#1158,.T.);
#1445 = ORIENTED_EDGE('',*,*,#1167,.F.);
#1446 = CYLINDRICAL_SURFACE('',#1447,1.5);
#1447 = AXIS2_PLACEMENT_3D('',#1448,#1449,#1450);
#1448 = CARTESIAN_POINT('',(0.,-7.,2.));
#1449 = DIRECTION('',(0.,0.,1.));
#1450 = DIRECTION('',(1.,0.,0.));
#1451 = ADVANCED_FACE('',(#1452),#1468,.F.);
#1452 = FACE_BOUND('',#1453,.F.);
#1453 = EDGE_LOOP('',(#1454,#1455,#1456,#1461,#1462,#1463,#1464,#1465,
    #1466,#1467));
#1454 = ORIENTED_EDGE('',*,*,#1138,.F.);
#1455 = ORIENTED_EDGE('',*,*,#1109,.T.);
#1456 = ORIENTED_EDGE('',*,*,#1457,.T.);
#1457 = EDGE_CURVE('',#1112,#1310,#1458,.T.);
#1458 = B_SPLINE_CURVE_WITH_KNOTS('',1,(#1459,#1460),.UNSPECIFIED.,.F.,
  .F.,(2,2),(-2.,0.),.PIECEWISE_BEZIER_KNOTS.);
#1459 = CARTESIAN_POINT('',(4.,0.,0.));
#1460 = CARTESIAN_POINT('',(4.,0.,2.));
#1461 = ORIENTED_EDGE('',*,*,#1307,.F.);
#1462 = ORIENTED_EDGE('',*,*,#1318,.T.);
#1463 = ORIENTED_EDGE('',*,*,#1327,.T.);
#1464 = ORIENTED_EDGE('',*,*,#1336,.F.);
#1465 = ORIENTED_EDGE('',*,*,#1457,.F.);
#1466 = ORIENTED_EDGE('',*,*,#1120,.T.);
#1467 = ORIENTED_EDGE('',*,*,#1129,.F.);
#1468 = CYLINDRICAL_SURFACE('',#1469,4.);
#1469 = AXIS2_PLACEMENT_3D('',#1470,#1471,#1472);
#1470 = CARTESIAN_POINT('',(0.,0.,2.));
#1471 = DIRECTION('',(0.,0.,1.));
#1472 = DIRECTION('',(1.,0.,0.));
#1473 = ADVANCED_FACE('',(#1474),#1490,.F.);
#1474 = FACE_BOUND('',#1475,.F.);
#1475 = EDGE_LOOP('',(#1476,#1477,#1478,#1483,#1484,#1485,#1486,#1487,
    #1488,#1489));
#1476 = ORIENTED_EDGE('',*,*,#1409,.T.);
#1477 = ORIENTED_EDGE('',*,*,#1418,.F.);
#1478 = ORIENTED_EDGE('',*,*,#1479,.F.);
#1479 = EDGE_CURVE('',#1210,#1392,#1480,.T.);
#1480 = B_SPLINE_CURVE_WITH_KNOTS('',1,(#1481,#1482),.UNSPECIFIED.,.F.,
  .F.,(2,2),(-2.,0.),.PIECEWISE_BEZIER_KNOTS.);
#1481 = CARTESIAN_POINT('',(1.5,7.,0.));
#1482 = CARTESIAN_POINT('',(1.5,7.,2.));
#1483 = ORIENTED_EDGE('',*,*,#1218,.T.);
#1484 = ORIENTED_EDGE('',*,*,#1227,.F.);
#1485 = ORIENTED_EDGE('',*,*,#1236,.F.);
#1486 = ORIENTED_EDGE('',*,*,#1207,.T.);
#1487 = ORIENTED_EDGE('',*,*,#1479,.T.);
#1488 = ORIENTED_EDGE('',*,*,#1389,.F.);
#1489 = ORIENTED_EDGE('',*,*,#1400,.T.);
#1490 = CYLINDRICAL_SURFACE('',#1491,1.5);
#1491 = AXIS2_PLACEMENT_3D('',#1492,#1493,#1494);
#1492 = CARTESIAN_POINT('',(0.,7.,2.));
#1493 = DIRECTION('',(0.,0.,1.));
#1494 = DIRECTION('',(1.,0.,0.));
#1495 = ( GEOMETRIC_REPRESENTATION_CONTEXT(3) 
GLOBAL_UNCERTAINTY_ASSIGNED_CONTEXT((#1499)) 
GLOBAL_UNIT_ASSIGNED_CONTEXT((#1496,#1497,#1498)) REPRESENTATION_CONTEXT
('Context #1','3D Context with UNIT and UNCERTAINTY') );
#1496 = ( LENGTH_UNIT() NAMED_UNIT(*) SI_UNIT(.MILLI.,.METRE.) );
#1497 = ( NAMED_UNIT(*) PLANE_ANGLE_UNIT() SI_UNIT($,.RADIAN.) );
#1498 = ( NAMED_UNIT(*) SI_UNIT($,.STERADIAN.) SOLID_ANGLE_UNIT() );
#1499 = UNCERTAINTY_MEASURE_WITH_UNIT(LENGTH_MEASURE(5.E-07),#1496,
  'distance_accuracy_value','confusion accuracy');
#1500 = PRODUCT_RELATED_PRODUCT_CATEGORY('part',$,(#7));
#1501 = MECHANICAL_DESIGN_GEOMETRIC_PRESENTATION_REPRESENTATION('',(
    #1502),#1495);
#1502 = STYLED_ITEM('color',(#1503),#15);
#1503 = PRESENTATION_STYLE_ASSIGNMENT((#1504,#1510));
#1504 = SURFACE_STYLE_USAGE(.BOTH.,#1505);
#1505 = SURFACE_SIDE_STYLE('',(#1506));
#1506 = SURFACE_STYLE_FILL_AREA(#1507);
#1507 = FILL_AREA_STYLE('',(#1508));
#1508 = FILL_AREA_STYLE_COLOUR('',#1509);
#1509 = COLOUR_RGB('',0.678431390124,0.709803936702,0.741176476869);
#1510 = CURVE_STYLE('',#1511,POSITIVE_LENGTH_MEASURE(0.1),#1512);
#1511 = DRAUGHTING_PRE_DEFINED_CURVE_FONT('continuous');
#1512 = COLOUR_RGB('',9.803921802644E-02,9.803921802644E-02,
  9.803921802644E-02);
ENDSEC;
END-ISO-10303-21;
