ISO-10303-21;
HEADER;
FILE_DESCRIPTION(('FreeCAD Model'),'2;1');
FILE_NAME('Open CASCADE Shape Model','2025-12-16T23:21:13',('Author'),(
    ''),'Open CASCADE STEP processor 7.8','FreeCAD','Unknown');
FILE_SCHEMA(('AUTOMOTIVE_DESIGN { 1 0 10303 214 1 1 1 1 }'));
ENDSEC;
DATA;
#1 = APPLICATION_PROTOCOL_DEFINITION('international standard',
  'automotive_design',2000,#2);
#2 = APPLICATION_CONTEXT(
  'core data for automotive mechanical design processes');
#3 = SHAPE_DEFINITION_REPRESENTATION(#4,#10);
#4 = PRODUCT_DEFINITION_SHAPE('','',#5);
#5 = PRODUCT_DEFINITION('design','',#6,#9);
#6 = PRODUCT_DEFINITION_FORMATION('','',#7);
#7 = PRODUCT('Hinge__4040','Hinge__4040','',(#8));
#8 = PRODUCT_CONTEXT('',#2,'mechanical');
#9 = PRODUCT_DEFINITION_CONTEXT('part definition',#2,'design');
#10 = SHAPE_REPRESENTATION('',(#11,#15,#19),#23);
#11 = AXIS2_PLACEMENT_3D('',#12,#13,#14);
#12 = CARTESIAN_POINT('',(0.,0.,0.));
#13 = DIRECTION('',(0.,0.,1.));
#14 = DIRECTION('',(1.,0.,-0.));
#15 = AXIS2_PLACEMENT_3D('',#16,#17,#18);
#16 = CARTESIAN_POINT('',(0.,0.,0.));
#17 = DIRECTION('',(0.,0.,1.));
#18 = DIRECTION('',(1.,0.,0.));
#19 = AXIS2_PLACEMENT_3D('',#20,#21,#22);
#20 = CARTESIAN_POINT('',(0.,0.,0.));
#21 = DIRECTION('',(0.707106781187,-8.659560562355E-17,0.707106781187));
#22 = DIRECTION('',(-0.707106781187,8.659560562355E-17,0.707106781187));
#23 = ( GEOMETRIC_REPRESENTATION_CONTEXT(3) 
GLOBAL_UNCERTAINTY_ASSIGNED_CONTEXT((#27)) GLOBAL_UNIT_ASSIGNED_CONTEXT(
(#24,#25,#26)) REPRESENTATION_CONTEXT('Context #1',
  '3D Context with UNIT and UNCERTAINTY') );
#24 = ( LENGTH_UNIT() NAMED_UNIT(*) SI_UNIT(.MILLI.,.METRE.) );
#25 = ( NAMED_UNIT(*) PLANE_ANGLE_UNIT() SI_UNIT($,.RADIAN.) );
#26 = ( NAMED_UNIT(*) SI_UNIT($,.STERADIAN.) SOLID_ANGLE_UNIT() );
#27 = UNCERTAINTY_MEASURE_WITH_UNIT(LENGTH_MEASURE(1.E-07),#24,
  'distance_accuracy_value','confusion accuracy');
#28 = PRODUCT_RELATED_PRODUCT_CATEGORY('part',$,(#7));
#29 = SHAPE_DEFINITION_REPRESENTATION(#30,#36);
#30 = PRODUCT_DEFINITION_SHAPE('','',#31);
#31 = PRODUCT_DEFINITION('design','',#32,#35);
#32 = PRODUCT_DEFINITION_FORMATION('','',#33);
#33 = PRODUCT('Body','Body','',(#34));
#34 = PRODUCT_CONTEXT('',#2,'mechanical');
#35 = PRODUCT_DEFINITION_CONTEXT('part definition',#2,'design');
#36 = ADVANCED_BREP_SHAPE_REPRESENTATION('',(#11,#37),#668);
#37 = MANIFOLD_SOLID_BREP('',#38);
#38 = CLOSED_SHELL('',(#39,#143,#174,#199,#224,#260,#284,#318,#349,#400,
    #424,#449,#474,#531,#556,#571,#594,#617,#634,#651));
#39 = ADVANCED_FACE('',(#40,#116,#127),#138,.F.);
#40 = FACE_BOUND('',#41,.F.);
#41 = EDGE_LOOP('',(#42,#52,#61,#69,#77,#85,#93,#101,#109));
#42 = ORIENTED_EDGE('',*,*,#43,.T.);
#43 = EDGE_CURVE('',#44,#46,#48,.T.);
#44 = VERTEX_POINT('',#45);
#45 = CARTESIAN_POINT('',(30.,20.,-4.440892098501E-15));
#46 = VERTEX_POINT('',#47);
#47 = CARTESIAN_POINT('',(30.,-20.,4.440892098501E-15));
#48 = LINE('',#49,#50);
#49 = CARTESIAN_POINT('',(30.,25.,-5.551115123126E-15));
#50 = VECTOR('',#51,1.);
#51 = DIRECTION('',(0.,-1.,2.22044604925E-16));
#52 = ORIENTED_EDGE('',*,*,#53,.T.);
#53 = EDGE_CURVE('',#46,#54,#56,.T.);
#54 = VERTEX_POINT('',#55);
#55 = CARTESIAN_POINT('',(25.,-25.,5.107025913276E-15));
#56 = CIRCLE('',#57,5.);
#57 = AXIS2_PLACEMENT_3D('',#58,#59,#60);
#58 = CARTESIAN_POINT('',(25.,-20.,4.440892098501E-15));
#59 = DIRECTION('',(-0.,-2.22044604925E-16,-1.));
#60 = DIRECTION('',(0.,-1.,2.22044604925E-16));
#61 = ORIENTED_EDGE('',*,*,#62,.T.);
#62 = EDGE_CURVE('',#54,#63,#65,.T.);
#63 = VERTEX_POINT('',#64);
#64 = CARTESIAN_POINT('',(10.,-25.,5.551115123126E-15));
#65 = LINE('',#66,#67);
#66 = CARTESIAN_POINT('',(30.,-25.,3.552713678801E-15));
#67 = VECTOR('',#68,1.);
#68 = DIRECTION('',(-1.,0.,0.));
#69 = ORIENTED_EDGE('',*,*,#70,.F.);
#70 = EDGE_CURVE('',#71,#63,#73,.T.);
#71 = VERTEX_POINT('',#72);
#72 = CARTESIAN_POINT('',(10.,-12.5,2.6645352591E-15));
#73 = LINE('',#74,#75);
#74 = CARTESIAN_POINT('',(10.,25.,-5.551115123126E-15));
#75 = VECTOR('',#76,1.);
#76 = DIRECTION('',(0.,-1.,2.22044604925E-16));
#77 = ORIENTED_EDGE('',*,*,#78,.F.);
#78 = EDGE_CURVE('',#79,#71,#81,.T.);
#79 = VERTEX_POINT('',#80);
#80 = CARTESIAN_POINT('',(10.,-2.886579864025E-15,1.479114197289E-31));
#81 = LINE('',#82,#83);
#82 = CARTESIAN_POINT('',(10.,25.,-5.551115123126E-15));
#83 = VECTOR('',#84,1.);
#84 = DIRECTION('',(0.,-1.,2.22044604925E-16));
#85 = ORIENTED_EDGE('',*,*,#86,.F.);
#86 = EDGE_CURVE('',#87,#79,#89,.T.);
#87 = VERTEX_POINT('',#88);
#88 = CARTESIAN_POINT('',(10.,12.5,-2.6645352591E-15));
#89 = LINE('',#90,#91);
#90 = CARTESIAN_POINT('',(10.,25.,-5.551115123126E-15));
#91 = VECTOR('',#92,1.);
#92 = DIRECTION('',(0.,-1.,2.22044604925E-16));
#93 = ORIENTED_EDGE('',*,*,#94,.F.);
#94 = EDGE_CURVE('',#95,#87,#97,.T.);
#95 = VERTEX_POINT('',#96);
#96 = CARTESIAN_POINT('',(10.,25.,-5.551115123126E-15));
#97 = LINE('',#98,#99);
#98 = CARTESIAN_POINT('',(10.,25.,-5.551115123126E-15));
#99 = VECTOR('',#100,1.);
#100 = DIRECTION('',(0.,-1.,2.22044604925E-16));
#101 = ORIENTED_EDGE('',*,*,#102,.F.);
#102 = EDGE_CURVE('',#103,#95,#105,.T.);
#103 = VERTEX_POINT('',#104);
#104 = CARTESIAN_POINT('',(25.,25.,-5.107025913276E-15));
#105 = LINE('',#106,#107);
#106 = CARTESIAN_POINT('',(30.,25.,-3.552713678801E-15));
#107 = VECTOR('',#108,1.);
#108 = DIRECTION('',(-1.,0.,0.));
#109 = ORIENTED_EDGE('',*,*,#110,.F.);
#110 = EDGE_CURVE('',#44,#103,#111,.T.);
#111 = CIRCLE('',#112,5.);
#112 = AXIS2_PLACEMENT_3D('',#113,#114,#115);
#113 = CARTESIAN_POINT('',(25.,20.,-4.440892098501E-15));
#114 = DIRECTION('',(-0.,2.22044604925E-16,1.));
#115 = DIRECTION('',(0.,-1.,2.22044604925E-16));
#116 = FACE_BOUND('',#117,.F.);
#117 = EDGE_LOOP('',(#118));
#118 = ORIENTED_EDGE('',*,*,#119,.T.);
#119 = EDGE_CURVE('',#120,#120,#122,.T.);
#120 = VERTEX_POINT('',#121);
#121 = CARTESIAN_POINT('',(14.75,-15.,3.330669073875E-15));
#122 = CIRCLE('',#123,5.25);
#123 = AXIS2_PLACEMENT_3D('',#124,#125,#126);
#124 = CARTESIAN_POINT('',(20.,-15.,3.330669073875E-15));
#125 = DIRECTION('',(0.,2.22044604925E-16,1.));
#126 = DIRECTION('',(-1.,4.551120607044E-31,-1.010551777157E-46));
#127 = FACE_BOUND('',#128,.F.);
#128 = EDGE_LOOP('',(#129));
#129 = ORIENTED_EDGE('',*,*,#130,.T.);
#130 = EDGE_CURVE('',#131,#131,#133,.T.);
#131 = VERTEX_POINT('',#132);
#132 = CARTESIAN_POINT('',(14.75,15.,-3.330669073875E-15));
#133 = CIRCLE('',#134,5.25);
#134 = AXIS2_PLACEMENT_3D('',#135,#136,#137);
#135 = CARTESIAN_POINT('',(20.,15.,-3.330669073875E-15));
#136 = DIRECTION('',(0.,2.22044604925E-16,1.));
#137 = DIRECTION('',(-1.,-4.551120607044E-31,1.010551777157E-46));
#138 = PLANE('',#139);
#139 = AXIS2_PLACEMENT_3D('',#140,#141,#142);
#140 = CARTESIAN_POINT('',(30.,25.,-5.551115123126E-15));
#141 = DIRECTION('',(0.,-2.22044604925E-16,-1.));
#142 = DIRECTION('',(-1.,0.,0.));
#143 = ADVANCED_FACE('',(#144),#169,.F.);
#144 = FACE_BOUND('',#145,.F.);
#145 = EDGE_LOOP('',(#146,#156,#162,#163));
#146 = ORIENTED_EDGE('',*,*,#147,.T.);
#147 = EDGE_CURVE('',#148,#150,#152,.T.);
#148 = VERTEX_POINT('',#149);
#149 = CARTESIAN_POINT('',(30.,20.,-10.));
#150 = VERTEX_POINT('',#151);
#151 = CARTESIAN_POINT('',(30.,-20.,-10.));
#152 = LINE('',#153,#154);
#153 = CARTESIAN_POINT('',(30.,25.,-10.));
#154 = VECTOR('',#155,1.);
#155 = DIRECTION('',(0.,-1.,2.22044604925E-16));
#156 = ORIENTED_EDGE('',*,*,#157,.T.);
#157 = EDGE_CURVE('',#150,#46,#158,.T.);
#158 = LINE('',#159,#160);
#159 = CARTESIAN_POINT('',(30.,-20.,-10.));
#160 = VECTOR('',#161,1.);
#161 = DIRECTION('',(0.,2.22044604925E-16,1.));
#162 = ORIENTED_EDGE('',*,*,#43,.F.);
#163 = ORIENTED_EDGE('',*,*,#164,.F.);
#164 = EDGE_CURVE('',#148,#44,#165,.T.);
#165 = LINE('',#166,#167);
#166 = CARTESIAN_POINT('',(30.,20.,-10.));
#167 = VECTOR('',#168,1.);
#168 = DIRECTION('',(0.,2.22044604925E-16,1.));
#169 = PLANE('',#170);
#170 = AXIS2_PLACEMENT_3D('',#171,#172,#173);
#171 = CARTESIAN_POINT('',(30.,25.,-10.));
#172 = DIRECTION('',(-1.,0.,0.));
#173 = DIRECTION('',(0.,2.22044604925E-16,1.));
#174 = ADVANCED_FACE('',(#175),#194,.T.);
#175 = FACE_BOUND('',#176,.T.);
#176 = EDGE_LOOP('',(#177,#186,#192,#193));
#177 = ORIENTED_EDGE('',*,*,#178,.T.);
#178 = EDGE_CURVE('',#148,#179,#181,.T.);
#179 = VERTEX_POINT('',#180);
#180 = CARTESIAN_POINT('',(25.,25.,-10.));
#181 = CIRCLE('',#182,5.);
#182 = AXIS2_PLACEMENT_3D('',#183,#184,#185);
#183 = CARTESIAN_POINT('',(25.,20.,-10.));
#184 = DIRECTION('',(-0.,2.22044604925E-16,1.));
#185 = DIRECTION('',(0.,-1.,2.22044604925E-16));
#186 = ORIENTED_EDGE('',*,*,#187,.T.);
#187 = EDGE_CURVE('',#179,#103,#188,.T.);
#188 = LINE('',#189,#190);
#189 = CARTESIAN_POINT('',(25.,25.,-10.));
#190 = VECTOR('',#191,1.);
#191 = DIRECTION('',(0.,2.22044604925E-16,1.));
#192 = ORIENTED_EDGE('',*,*,#110,.F.);
#193 = ORIENTED_EDGE('',*,*,#164,.F.);
#194 = CYLINDRICAL_SURFACE('',#195,5.);
#195 = AXIS2_PLACEMENT_3D('',#196,#197,#198);
#196 = CARTESIAN_POINT('',(25.,20.,-10.));
#197 = DIRECTION('',(0.,2.22044604925E-16,1.));
#198 = DIRECTION('',(1.,0.,0.));
#199 = ADVANCED_FACE('',(#200),#219,.T.);
#200 = FACE_BOUND('',#201,.F.);
#201 = EDGE_LOOP('',(#202,#211,#217,#218));
#202 = ORIENTED_EDGE('',*,*,#203,.T.);
#203 = EDGE_CURVE('',#150,#204,#206,.T.);
#204 = VERTEX_POINT('',#205);
#205 = CARTESIAN_POINT('',(25.,-25.,-10.));
#206 = CIRCLE('',#207,5.);
#207 = AXIS2_PLACEMENT_3D('',#208,#209,#210);
#208 = CARTESIAN_POINT('',(25.,-20.,-10.));
#209 = DIRECTION('',(-0.,-2.22044604925E-16,-1.));
#210 = DIRECTION('',(0.,-1.,2.22044604925E-16));
#211 = ORIENTED_EDGE('',*,*,#212,.T.);
#212 = EDGE_CURVE('',#204,#54,#213,.T.);
#213 = LINE('',#214,#215);
#214 = CARTESIAN_POINT('',(25.,-25.,-10.));
#215 = VECTOR('',#216,1.);
#216 = DIRECTION('',(0.,2.22044604925E-16,1.));
#217 = ORIENTED_EDGE('',*,*,#53,.F.);
#218 = ORIENTED_EDGE('',*,*,#157,.F.);
#219 = CYLINDRICAL_SURFACE('',#220,5.);
#220 = AXIS2_PLACEMENT_3D('',#221,#222,#223);
#221 = CARTESIAN_POINT('',(25.,-20.,-10.));
#222 = DIRECTION('',(0.,2.22044604925E-16,1.));
#223 = DIRECTION('',(1.,0.,0.));
#224 = ADVANCED_FACE('',(#225,#244),#255,.T.);
#225 = FACE_BOUND('',#226,.T.);
#226 = EDGE_LOOP('',(#227,#235,#242,#243));
#227 = ORIENTED_EDGE('',*,*,#228,.F.);
#228 = EDGE_CURVE('',#229,#179,#231,.T.);
#229 = VERTEX_POINT('',#230);
#230 = CARTESIAN_POINT('',(-1.836970198721E-15,25.,-10.));
#231 = LINE('',#232,#233);
#232 = CARTESIAN_POINT('',(-1.836970198721E-15,25.,-10.));
#233 = VECTOR('',#234,1.);
#234 = DIRECTION('',(1.,0.,0.));
#235 = ORIENTED_EDGE('',*,*,#236,.F.);
#236 = EDGE_CURVE('',#95,#229,#237,.T.);
#237 = CIRCLE('',#238,10.);
#238 = AXIS2_PLACEMENT_3D('',#239,#240,#241);
#239 = CARTESIAN_POINT('',(0.,25.,-3.552713678801E-15));
#240 = DIRECTION('',(0.,-1.,2.22044604925E-16));
#241 = DIRECTION('',(1.,0.,0.));
#242 = ORIENTED_EDGE('',*,*,#102,.F.);
#243 = ORIENTED_EDGE('',*,*,#187,.F.);
#244 = FACE_BOUND('',#245,.T.);
#245 = EDGE_LOOP('',(#246));
#246 = ORIENTED_EDGE('',*,*,#247,.T.);
#247 = EDGE_CURVE('',#248,#248,#250,.T.);
#248 = VERTEX_POINT('',#249);
#249 = CARTESIAN_POINT('',(5.,25.,-5.551115123126E-15));
#250 = CIRCLE('',#251,5.);
#251 = AXIS2_PLACEMENT_3D('',#252,#253,#254);
#252 = CARTESIAN_POINT('',(0.,25.,-3.552713678801E-15));
#253 = DIRECTION('',(0.,-1.,2.22044604925E-16));
#254 = DIRECTION('',(1.,0.,0.));
#255 = PLANE('',#256);
#256 = AXIS2_PLACEMENT_3D('',#257,#258,#259);
#257 = CARTESIAN_POINT('',(8.405210787022,25.,-2.175029043079));
#258 = DIRECTION('',(0.,1.,0.));
#259 = DIRECTION('',(0.,0.,1.));
#260 = ADVANCED_FACE('',(#261),#279,.F.);
#261 = FACE_BOUND('',#262,.F.);
#262 = EDGE_LOOP('',(#263,#271,#277,#278));
#263 = ORIENTED_EDGE('',*,*,#264,.F.);
#264 = EDGE_CURVE('',#265,#204,#267,.T.);
#265 = VERTEX_POINT('',#266);
#266 = CARTESIAN_POINT('',(10.,-25.,-10.));
#267 = LINE('',#268,#269);
#268 = CARTESIAN_POINT('',(-1.836970198721E-15,-25.,-10.));
#269 = VECTOR('',#270,1.);
#270 = DIRECTION('',(1.,0.,0.));
#271 = ORIENTED_EDGE('',*,*,#272,.T.);
#272 = EDGE_CURVE('',#265,#63,#273,.T.);
#273 = LINE('',#274,#275);
#274 = CARTESIAN_POINT('',(10.,-25.,-10.));
#275 = VECTOR('',#276,1.);
#276 = DIRECTION('',(0.,0.,1.));
#277 = ORIENTED_EDGE('',*,*,#62,.F.);
#278 = ORIENTED_EDGE('',*,*,#212,.F.);
#279 = PLANE('',#280);
#280 = AXIS2_PLACEMENT_3D('',#281,#282,#283);
#281 = CARTESIAN_POINT('',(8.405210787022,-25.,-2.175029043079));
#282 = DIRECTION('',(0.,1.,0.));
#283 = DIRECTION('',(0.,0.,1.));
#284 = ADVANCED_FACE('',(#285),#313,.T.);
#285 = FACE_BOUND('',#286,.F.);
#286 = EDGE_LOOP('',(#287,#288,#289,#298,#307));
#287 = ORIENTED_EDGE('',*,*,#236,.F.);
#288 = ORIENTED_EDGE('',*,*,#94,.T.);
#289 = ORIENTED_EDGE('',*,*,#290,.F.);
#290 = EDGE_CURVE('',#291,#87,#293,.T.);
#291 = VERTEX_POINT('',#292);
#292 = CARTESIAN_POINT('',(-10.,12.5,-7.771561172376E-16));
#293 = CIRCLE('',#294,10.);
#294 = AXIS2_PLACEMENT_3D('',#295,#296,#297);
#295 = CARTESIAN_POINT('',(0.,12.5,-2.775557561563E-15));
#296 = DIRECTION('',(0.,1.,-2.22044604925E-16));
#297 = DIRECTION('',(1.,0.,0.));
#298 = ORIENTED_EDGE('',*,*,#299,.F.);
#299 = EDGE_CURVE('',#300,#291,#302,.T.);
#300 = VERTEX_POINT('',#301);
#301 = CARTESIAN_POINT('',(-1.806663519061E-15,12.5,-10.));
#302 = CIRCLE('',#303,10.);
#303 = AXIS2_PLACEMENT_3D('',#304,#305,#306);
#304 = CARTESIAN_POINT('',(0.,12.5,-2.775557561563E-15));
#305 = DIRECTION('',(0.,1.,-2.22044604925E-16));
#306 = DIRECTION('',(1.,0.,0.));
#307 = ORIENTED_EDGE('',*,*,#308,.F.);
#308 = EDGE_CURVE('',#229,#300,#309,.T.);
#309 = LINE('',#310,#311);
#310 = CARTESIAN_POINT('',(-1.836970198721E-15,25.,-10.));
#311 = VECTOR('',#312,1.);
#312 = DIRECTION('',(0.,-1.,2.22044604925E-16));
#313 = CYLINDRICAL_SURFACE('',#314,10.);
#314 = AXIS2_PLACEMENT_3D('',#315,#316,#317);
#315 = CARTESIAN_POINT('',(0.,25.,-5.551115123126E-15));
#316 = DIRECTION('',(0.,1.,-2.22044604925E-16));
#317 = DIRECTION('',(1.,0.,0.));
#318 = ADVANCED_FACE('',(#319),#344,.F.);
#319 = FACE_BOUND('',#320,.F.);
#320 = EDGE_LOOP('',(#321,#331,#337,#338));
#321 = ORIENTED_EDGE('',*,*,#322,.F.);
#322 = EDGE_CURVE('',#323,#325,#327,.T.);
#323 = VERTEX_POINT('',#324);
#324 = CARTESIAN_POINT('',(10.,12.5,-10.));
#325 = VERTEX_POINT('',#326);
#326 = CARTESIAN_POINT('',(10.,-2.22044604925E-15,-10.));
#327 = LINE('',#328,#329);
#328 = CARTESIAN_POINT('',(10.,12.5,-10.));
#329 = VECTOR('',#330,1.);
#330 = DIRECTION('',(0.,-1.,0.));
#331 = ORIENTED_EDGE('',*,*,#332,.T.);
#332 = EDGE_CURVE('',#323,#87,#333,.T.);
#333 = LINE('',#334,#335);
#334 = CARTESIAN_POINT('',(10.,12.5,-10.));
#335 = VECTOR('',#336,1.);
#336 = DIRECTION('',(0.,0.,1.));
#337 = ORIENTED_EDGE('',*,*,#86,.T.);
#338 = ORIENTED_EDGE('',*,*,#339,.F.);
#339 = EDGE_CURVE('',#325,#79,#340,.T.);
#340 = LINE('',#341,#342);
#341 = CARTESIAN_POINT('',(10.,-2.22044604925E-15,-10.));
#342 = VECTOR('',#343,1.);
#343 = DIRECTION('',(0.,0.,1.));
#344 = PLANE('',#345);
#345 = AXIS2_PLACEMENT_3D('',#346,#347,#348);
#346 = CARTESIAN_POINT('',(10.,12.5,-10.));
#347 = DIRECTION('',(1.,0.,0.));
#348 = DIRECTION('',(0.,-1.,0.));
#349 = ADVANCED_FACE('',(#350),#395,.T.);
#350 = FACE_BOUND('',#351,.F.);
#351 = EDGE_LOOP('',(#352,#361,#362,#371,#380,#388));
#352 = ORIENTED_EDGE('',*,*,#353,.T.);
#353 = EDGE_CURVE('',#354,#79,#356,.T.);
#354 = VERTEX_POINT('',#355);
#355 = CARTESIAN_POINT('',(-10.,-2.22044604925E-15,-4.930380657631E-31)
  );
#356 = CIRCLE('',#357,10.);
#357 = AXIS2_PLACEMENT_3D('',#358,#359,#360);
#358 = CARTESIAN_POINT('',(0.,-3.552713678801E-15,7.88860905221E-31));
#359 = DIRECTION('',(0.,1.,-2.22044604925E-16));
#360 = DIRECTION('',(1.,0.,0.));
#361 = ORIENTED_EDGE('',*,*,#78,.T.);
#362 = ORIENTED_EDGE('',*,*,#363,.F.);
#363 = EDGE_CURVE('',#364,#71,#366,.T.);
#364 = VERTEX_POINT('',#365);
#365 = CARTESIAN_POINT('',(-10.,-12.5,4.329869796038E-15));
#366 = CIRCLE('',#367,10.);
#367 = AXIS2_PLACEMENT_3D('',#368,#369,#370);
#368 = CARTESIAN_POINT('',(0.,-12.5,2.775557561563E-15));
#369 = DIRECTION('',(0.,1.,-2.22044604925E-16));
#370 = DIRECTION('',(1.,0.,0.));
#371 = ORIENTED_EDGE('',*,*,#372,.F.);
#372 = EDGE_CURVE('',#373,#364,#375,.T.);
#373 = VERTEX_POINT('',#374);
#374 = CARTESIAN_POINT('',(-1.806663519061E-15,-12.5,-10.));
#375 = CIRCLE('',#376,10.);
#376 = AXIS2_PLACEMENT_3D('',#377,#378,#379);
#377 = CARTESIAN_POINT('',(0.,-12.5,2.775557561563E-15));
#378 = DIRECTION('',(0.,1.,-2.22044604925E-16));
#379 = DIRECTION('',(1.,0.,0.));
#380 = ORIENTED_EDGE('',*,*,#381,.F.);
#381 = EDGE_CURVE('',#382,#373,#384,.T.);
#382 = VERTEX_POINT('',#383);
#383 = CARTESIAN_POINT('',(-1.806663519061E-15,-1.7763568394E-15,-10.));
#384 = LINE('',#385,#386);
#385 = CARTESIAN_POINT('',(-1.836970198721E-15,25.,-10.));
#386 = VECTOR('',#387,1.);
#387 = DIRECTION('',(0.,-1.,2.22044604925E-16));
#388 = ORIENTED_EDGE('',*,*,#389,.T.);
#389 = EDGE_CURVE('',#382,#354,#390,.T.);
#390 = CIRCLE('',#391,10.);
#391 = AXIS2_PLACEMENT_3D('',#392,#393,#394);
#392 = CARTESIAN_POINT('',(0.,-3.552713678801E-15,7.88860905221E-31));
#393 = DIRECTION('',(0.,1.,-2.22044604925E-16));
#394 = DIRECTION('',(1.,0.,0.));
#395 = CYLINDRICAL_SURFACE('',#396,10.);
#396 = AXIS2_PLACEMENT_3D('',#397,#398,#399);
#397 = CARTESIAN_POINT('',(0.,25.,-5.551115123126E-15));
#398 = DIRECTION('',(0.,1.,-2.22044604925E-16));
#399 = DIRECTION('',(1.,0.,0.));
#400 = ADVANCED_FACE('',(#401),#419,.F.);
#401 = FACE_BOUND('',#402,.F.);
#402 = EDGE_LOOP('',(#403,#411,#417,#418));
#403 = ORIENTED_EDGE('',*,*,#404,.F.);
#404 = EDGE_CURVE('',#405,#265,#407,.T.);
#405 = VERTEX_POINT('',#406);
#406 = CARTESIAN_POINT('',(10.,-12.5,-10.));
#407 = LINE('',#408,#409);
#408 = CARTESIAN_POINT('',(10.,-12.5,-10.));
#409 = VECTOR('',#410,1.);
#410 = DIRECTION('',(0.,-1.,0.));
#411 = ORIENTED_EDGE('',*,*,#412,.T.);
#412 = EDGE_CURVE('',#405,#71,#413,.T.);
#413 = LINE('',#414,#415);
#414 = CARTESIAN_POINT('',(10.,-12.5,-10.));
#415 = VECTOR('',#416,1.);
#416 = DIRECTION('',(0.,0.,1.));
#417 = ORIENTED_EDGE('',*,*,#70,.T.);
#418 = ORIENTED_EDGE('',*,*,#272,.F.);
#419 = PLANE('',#420);
#420 = AXIS2_PLACEMENT_3D('',#421,#422,#423);
#421 = CARTESIAN_POINT('',(10.,-12.5,-10.));
#422 = DIRECTION('',(1.,0.,0.));
#423 = DIRECTION('',(0.,-1.,0.));
#424 = ADVANCED_FACE('',(#425),#444,.F.);
#425 = FACE_BOUND('',#426,.T.);
#426 = EDGE_LOOP('',(#427,#435,#436,#437));
#427 = ORIENTED_EDGE('',*,*,#428,.F.);
#428 = EDGE_CURVE('',#120,#429,#431,.T.);
#429 = VERTEX_POINT('',#430);
#430 = CARTESIAN_POINT('',(16.75,-15.,-2.));
#431 = LINE('',#432,#433);
#432 = CARTESIAN_POINT('',(16.75,-15.,-2.));
#433 = VECTOR('',#434,1.);
#434 = DIRECTION('',(0.707106781187,-1.570092458684E-16,-0.707106781187)
  );
#435 = ORIENTED_EDGE('',*,*,#119,.T.);
#436 = ORIENTED_EDGE('',*,*,#428,.T.);
#437 = ORIENTED_EDGE('',*,*,#438,.F.);
#438 = EDGE_CURVE('',#429,#429,#439,.T.);
#439 = CIRCLE('',#440,3.25);
#440 = AXIS2_PLACEMENT_3D('',#441,#442,#443);
#441 = CARTESIAN_POINT('',(20.,-15.,-2.));
#442 = DIRECTION('',(0.,2.22044604925E-16,1.));
#443 = DIRECTION('',(-1.,4.551120607044E-31,-1.010551777157E-46));
#444 = CONICAL_SURFACE('',#445,3.25,0.785398163397);
#445 = AXIS2_PLACEMENT_3D('',#446,#447,#448);
#446 = CARTESIAN_POINT('',(20.,-15.,-2.));
#447 = DIRECTION('',(0.,2.22044604925E-16,1.));
#448 = DIRECTION('',(-1.,4.551120607044E-31,-1.010551777157E-46));
#449 = ADVANCED_FACE('',(#450),#469,.F.);
#450 = FACE_BOUND('',#451,.T.);
#451 = EDGE_LOOP('',(#452,#460,#461,#462));
#452 = ORIENTED_EDGE('',*,*,#453,.F.);
#453 = EDGE_CURVE('',#131,#454,#456,.T.);
#454 = VERTEX_POINT('',#455);
#455 = CARTESIAN_POINT('',(16.75,15.,-2.));
#456 = LINE('',#457,#458);
#457 = CARTESIAN_POINT('',(16.75,15.,-2.));
#458 = VECTOR('',#459,1.);
#459 = DIRECTION('',(0.707106781187,-1.570092458684E-16,-0.707106781187)
  );
#460 = ORIENTED_EDGE('',*,*,#130,.T.);
#461 = ORIENTED_EDGE('',*,*,#453,.T.);
#462 = ORIENTED_EDGE('',*,*,#463,.F.);
#463 = EDGE_CURVE('',#454,#454,#464,.T.);
#464 = CIRCLE('',#465,3.25);
#465 = AXIS2_PLACEMENT_3D('',#466,#467,#468);
#466 = CARTESIAN_POINT('',(20.,15.,-2.));
#467 = DIRECTION('',(0.,2.22044604925E-16,1.));
#468 = DIRECTION('',(-1.,-4.551120607044E-31,1.010551777157E-46));
#469 = CONICAL_SURFACE('',#470,3.25,0.785398163397);
#470 = AXIS2_PLACEMENT_3D('',#471,#472,#473);
#471 = CARTESIAN_POINT('',(20.,15.,-2.));
#472 = DIRECTION('',(0.,2.22044604925E-16,1.));
#473 = DIRECTION('',(-1.,-4.551120607044E-31,1.010551777157E-46));
#474 = ADVANCED_FACE('',(#475,#504,#515),#526,.F.);
#475 = FACE_BOUND('',#476,.F.);
#476 = EDGE_LOOP('',(#477,#478,#479,#480,#486,#487,#493,#494,#500,#501,
    #502,#503));
#477 = ORIENTED_EDGE('',*,*,#178,.T.);
#478 = ORIENTED_EDGE('',*,*,#228,.F.);
#479 = ORIENTED_EDGE('',*,*,#308,.T.);
#480 = ORIENTED_EDGE('',*,*,#481,.T.);
#481 = EDGE_CURVE('',#300,#323,#482,.T.);
#482 = LINE('',#483,#484);
#483 = CARTESIAN_POINT('',(-10.,12.5,-10.));
#484 = VECTOR('',#485,1.);
#485 = DIRECTION('',(1.,0.,0.));
#486 = ORIENTED_EDGE('',*,*,#322,.T.);
#487 = ORIENTED_EDGE('',*,*,#488,.T.);
#488 = EDGE_CURVE('',#325,#382,#489,.T.);
#489 = LINE('',#490,#491);
#490 = CARTESIAN_POINT('',(10.,-1.7763568394E-15,-10.));
#491 = VECTOR('',#492,1.);
#492 = DIRECTION('',(-1.,-0.,0.));
#493 = ORIENTED_EDGE('',*,*,#381,.T.);
#494 = ORIENTED_EDGE('',*,*,#495,.T.);
#495 = EDGE_CURVE('',#373,#405,#496,.T.);
#496 = LINE('',#497,#498);
#497 = CARTESIAN_POINT('',(-10.,-12.5,-10.));
#498 = VECTOR('',#499,1.);
#499 = DIRECTION('',(1.,0.,0.));
#500 = ORIENTED_EDGE('',*,*,#404,.T.);
#501 = ORIENTED_EDGE('',*,*,#264,.T.);
#502 = ORIENTED_EDGE('',*,*,#203,.F.);
#503 = ORIENTED_EDGE('',*,*,#147,.F.);
#504 = FACE_BOUND('',#505,.F.);
#505 = EDGE_LOOP('',(#506));
#506 = ORIENTED_EDGE('',*,*,#507,.F.);
#507 = EDGE_CURVE('',#508,#508,#510,.T.);
#508 = VERTEX_POINT('',#509);
#509 = CARTESIAN_POINT('',(16.75,-15.,-10.));
#510 = CIRCLE('',#511,3.25);
#511 = AXIS2_PLACEMENT_3D('',#512,#513,#514);
#512 = CARTESIAN_POINT('',(20.,-15.,-10.));
#513 = DIRECTION('',(0.,0.,1.));
#514 = DIRECTION('',(-1.,0.,0.));
#515 = FACE_BOUND('',#516,.F.);
#516 = EDGE_LOOP('',(#517));
#517 = ORIENTED_EDGE('',*,*,#518,.F.);
#518 = EDGE_CURVE('',#519,#519,#521,.T.);
#519 = VERTEX_POINT('',#520);
#520 = CARTESIAN_POINT('',(16.75,15.,-10.));
#521 = CIRCLE('',#522,3.25);
#522 = AXIS2_PLACEMENT_3D('',#523,#524,#525);
#523 = CARTESIAN_POINT('',(20.,15.,-10.));
#524 = DIRECTION('',(0.,0.,1.));
#525 = DIRECTION('',(-1.,0.,0.));
#526 = PLANE('',#527);
#527 = AXIS2_PLACEMENT_3D('',#528,#529,#530);
#528 = CARTESIAN_POINT('',(-1.836970198721E-15,25.,-10.));
#529 = DIRECTION('',(0.,2.22044604925E-16,1.));
#530 = DIRECTION('',(1.,0.,0.));
#531 = ADVANCED_FACE('',(#532),#551,.F.);
#532 = FACE_BOUND('',#533,.T.);
#533 = EDGE_LOOP('',(#534,#535,#543,#550));
#534 = ORIENTED_EDGE('',*,*,#247,.F.);
#535 = ORIENTED_EDGE('',*,*,#536,.T.);
#536 = EDGE_CURVE('',#248,#537,#539,.T.);
#537 = VERTEX_POINT('',#538);
#538 = CARTESIAN_POINT('',(5.,12.5,-2.775557561563E-15));
#539 = LINE('',#540,#541);
#540 = CARTESIAN_POINT('',(5.,25.,-5.551115123126E-15));
#541 = VECTOR('',#542,1.);
#542 = DIRECTION('',(0.,-1.,2.22044604925E-16));
#543 = ORIENTED_EDGE('',*,*,#544,.F.);
#544 = EDGE_CURVE('',#537,#537,#545,.T.);
#545 = CIRCLE('',#546,5.);
#546 = AXIS2_PLACEMENT_3D('',#547,#548,#549);
#547 = CARTESIAN_POINT('',(0.,12.5,-2.775557561563E-15));
#548 = DIRECTION('',(0.,1.,-2.22044604925E-16));
#549 = DIRECTION('',(1.,0.,0.));
#550 = ORIENTED_EDGE('',*,*,#536,.F.);
#551 = CYLINDRICAL_SURFACE('',#552,5.);
#552 = AXIS2_PLACEMENT_3D('',#553,#554,#555);
#553 = CARTESIAN_POINT('',(0.,25.,-5.551115123126E-15));
#554 = DIRECTION('',(0.,1.,-2.22044604925E-16));
#555 = DIRECTION('',(1.,0.,0.));
#556 = ADVANCED_FACE('',(#557,#563),#566,.F.);
#557 = FACE_BOUND('',#558,.F.);
#558 = EDGE_LOOP('',(#559,#560,#561,#562));
#559 = ORIENTED_EDGE('',*,*,#299,.T.);
#560 = ORIENTED_EDGE('',*,*,#290,.T.);
#561 = ORIENTED_EDGE('',*,*,#332,.F.);
#562 = ORIENTED_EDGE('',*,*,#481,.F.);
#563 = FACE_BOUND('',#564,.F.);
#564 = EDGE_LOOP('',(#565));
#565 = ORIENTED_EDGE('',*,*,#544,.F.);
#566 = PLANE('',#567);
#567 = AXIS2_PLACEMENT_3D('',#568,#569,#570);
#568 = CARTESIAN_POINT('',(-10.,12.5,-10.));
#569 = DIRECTION('',(0.,1.,0.));
#570 = DIRECTION('',(1.,0.,0.));
#571 = ADVANCED_FACE('',(#572,#578),#589,.F.);
#572 = FACE_BOUND('',#573,.F.);
#573 = EDGE_LOOP('',(#574,#575,#576,#577));
#574 = ORIENTED_EDGE('',*,*,#488,.F.);
#575 = ORIENTED_EDGE('',*,*,#339,.T.);
#576 = ORIENTED_EDGE('',*,*,#353,.F.);
#577 = ORIENTED_EDGE('',*,*,#389,.F.);
#578 = FACE_BOUND('',#579,.F.);
#579 = EDGE_LOOP('',(#580));
#580 = ORIENTED_EDGE('',*,*,#581,.T.);
#581 = EDGE_CURVE('',#582,#582,#584,.T.);
#582 = VERTEX_POINT('',#583);
#583 = CARTESIAN_POINT('',(5.,-3.552713678801E-15,7.88860905221E-31));
#584 = CIRCLE('',#585,5.);
#585 = AXIS2_PLACEMENT_3D('',#586,#587,#588);
#586 = CARTESIAN_POINT('',(0.,-3.552713678801E-15,7.88860905221E-31));
#587 = DIRECTION('',(0.,1.,-2.22044604925E-16));
#588 = DIRECTION('',(1.,0.,0.));
#589 = PLANE('',#590);
#590 = AXIS2_PLACEMENT_3D('',#591,#592,#593);
#591 = CARTESIAN_POINT('',(10.,-2.22044604925E-15,-10.));
#592 = DIRECTION('',(0.,-1.,0.));
#593 = DIRECTION('',(-1.,-0.,0.));
#594 = ADVANCED_FACE('',(#595,#601),#612,.F.);
#595 = FACE_BOUND('',#596,.F.);
#596 = EDGE_LOOP('',(#597,#598,#599,#600));
#597 = ORIENTED_EDGE('',*,*,#372,.T.);
#598 = ORIENTED_EDGE('',*,*,#363,.T.);
#599 = ORIENTED_EDGE('',*,*,#412,.F.);
#600 = ORIENTED_EDGE('',*,*,#495,.F.);
#601 = FACE_BOUND('',#602,.F.);
#602 = EDGE_LOOP('',(#603));
#603 = ORIENTED_EDGE('',*,*,#604,.F.);
#604 = EDGE_CURVE('',#605,#605,#607,.T.);
#605 = VERTEX_POINT('',#606);
#606 = CARTESIAN_POINT('',(5.,-12.5,2.775557561563E-15));
#607 = CIRCLE('',#608,5.);
#608 = AXIS2_PLACEMENT_3D('',#609,#610,#611);
#609 = CARTESIAN_POINT('',(0.,-12.5,2.775557561563E-15));
#610 = DIRECTION('',(0.,1.,-2.22044604925E-16));
#611 = DIRECTION('',(1.,0.,0.));
#612 = PLANE('',#613);
#613 = AXIS2_PLACEMENT_3D('',#614,#615,#616);
#614 = CARTESIAN_POINT('',(-10.,-12.5,-10.));
#615 = DIRECTION('',(0.,1.,0.));
#616 = DIRECTION('',(1.,0.,0.));
#617 = ADVANCED_FACE('',(#618),#629,.F.);
#618 = FACE_BOUND('',#619,.F.);
#619 = EDGE_LOOP('',(#620,#626,#627,#628));
#620 = ORIENTED_EDGE('',*,*,#621,.F.);
#621 = EDGE_CURVE('',#429,#508,#622,.T.);
#622 = LINE('',#623,#624);
#623 = CARTESIAN_POINT('',(16.75,-15.,0.));
#624 = VECTOR('',#625,1.);
#625 = DIRECTION('',(0.,0.,-1.));
#626 = ORIENTED_EDGE('',*,*,#438,.F.);
#627 = ORIENTED_EDGE('',*,*,#621,.T.);
#628 = ORIENTED_EDGE('',*,*,#507,.T.);
#629 = CYLINDRICAL_SURFACE('',#630,3.25);
#630 = AXIS2_PLACEMENT_3D('',#631,#632,#633);
#631 = CARTESIAN_POINT('',(20.,-15.,0.));
#632 = DIRECTION('',(0.,0.,1.));
#633 = DIRECTION('',(-1.,0.,0.));
#634 = ADVANCED_FACE('',(#635),#646,.F.);
#635 = FACE_BOUND('',#636,.F.);
#636 = EDGE_LOOP('',(#637,#643,#644,#645));
#637 = ORIENTED_EDGE('',*,*,#638,.F.);
#638 = EDGE_CURVE('',#454,#519,#639,.T.);
#639 = LINE('',#640,#641);
#640 = CARTESIAN_POINT('',(16.75,15.,0.));
#641 = VECTOR('',#642,1.);
#642 = DIRECTION('',(0.,0.,-1.));
#643 = ORIENTED_EDGE('',*,*,#463,.F.);
#644 = ORIENTED_EDGE('',*,*,#638,.T.);
#645 = ORIENTED_EDGE('',*,*,#518,.T.);
#646 = CYLINDRICAL_SURFACE('',#647,3.25);
#647 = AXIS2_PLACEMENT_3D('',#648,#649,#650);
#648 = CARTESIAN_POINT('',(20.,15.,0.));
#649 = DIRECTION('',(0.,0.,1.));
#650 = DIRECTION('',(-1.,0.,0.));
#651 = ADVANCED_FACE('',(#652),#663,.F.);
#652 = FACE_BOUND('',#653,.T.);
#653 = EDGE_LOOP('',(#654,#655,#661,#662));
#654 = ORIENTED_EDGE('',*,*,#581,.T.);
#655 = ORIENTED_EDGE('',*,*,#656,.T.);
#656 = EDGE_CURVE('',#582,#605,#657,.T.);
#657 = LINE('',#658,#659);
#658 = CARTESIAN_POINT('',(5.,25.,-5.551115123126E-15));
#659 = VECTOR('',#660,1.);
#660 = DIRECTION('',(0.,-1.,2.22044604925E-16));
#661 = ORIENTED_EDGE('',*,*,#604,.F.);
#662 = ORIENTED_EDGE('',*,*,#656,.F.);
#663 = CYLINDRICAL_SURFACE('',#664,5.);
#664 = AXIS2_PLACEMENT_3D('',#665,#666,#667);
#665 = CARTESIAN_POINT('',(0.,25.,-5.551115123126E-15));
#666 = DIRECTION('',(0.,1.,-2.22044604925E-16));
#667 = DIRECTION('',(1.,0.,0.));
#668 = ( GEOMETRIC_REPRESENTATION_CONTEXT(3) 
GLOBAL_UNCERTAINTY_ASSIGNED_CONTEXT((#672)) GLOBAL_UNIT_ASSIGNED_CONTEXT
((#669,#670,#671)) REPRESENTATION_CONTEXT('Context #1',
  '3D Context with UNIT and UNCERTAINTY') );
#669 = ( LENGTH_UNIT() NAMED_UNIT(*) SI_UNIT(.MILLI.,.METRE.) );
#670 = ( NAMED_UNIT(*) PLANE_ANGLE_UNIT() SI_UNIT($,.RADIAN.) );
#671 = ( NAMED_UNIT(*) SI_UNIT($,.STERADIAN.) SOLID_ANGLE_UNIT() );
#672 = UNCERTAINTY_MEASURE_WITH_UNIT(LENGTH_MEASURE(1.E-07),#669,
  'distance_accuracy_value','confusion accuracy');
#673 = CONTEXT_DEPENDENT_SHAPE_REPRESENTATION(#674,#676);
#674 = ( REPRESENTATION_RELATIONSHIP('','',#36,#10) 
REPRESENTATION_RELATIONSHIP_WITH_TRANSFORMATION(#675) 
SHAPE_REPRESENTATION_RELATIONSHIP() );
#675 = ITEM_DEFINED_TRANSFORMATION('','',#11,#15);
#676 = PRODUCT_DEFINITION_SHAPE('Placement','Placement of an item',#677
  );
#677 = NEXT_ASSEMBLY_USAGE_OCCURRENCE('1','Body','',#5,#31,$);
#678 = PRODUCT_RELATED_PRODUCT_CATEGORY('part',$,(#33));
#679 = SHAPE_DEFINITION_REPRESENTATION(#680,#686);
#680 = PRODUCT_DEFINITION_SHAPE('','',#681);
#681 = PRODUCT_DEFINITION('design','',#682,#685);
#682 = PRODUCT_DEFINITION_FORMATION('','',#683);
#683 = PRODUCT('Body001','Body001','',(#684));
#684 = PRODUCT_CONTEXT('',#2,'mechanical');
#685 = PRODUCT_DEFINITION_CONTEXT('part definition',#2,'design');
#686 = ADVANCED_BREP_SHAPE_REPRESENTATION('',(#11,#687),#1318);
#687 = MANIFOLD_SOLID_BREP('',#688);
#688 = CLOSED_SHELL('',(#689,#793,#824,#849,#874,#910,#934,#968,#999,
    #1050,#1074,#1099,#1124,#1181,#1206,#1221,#1244,#1267,#1284,#1301));
#689 = ADVANCED_FACE('',(#690,#766,#777),#788,.F.);
#690 = FACE_BOUND('',#691,.F.);
#691 = EDGE_LOOP('',(#692,#702,#711,#719,#727,#735,#743,#751,#759));
#692 = ORIENTED_EDGE('',*,*,#693,.T.);
#693 = EDGE_CURVE('',#694,#696,#698,.T.);
#694 = VERTEX_POINT('',#695);
#695 = CARTESIAN_POINT('',(30.,20.,-4.440892098501E-15));
#696 = VERTEX_POINT('',#697);
#697 = CARTESIAN_POINT('',(30.,-20.,4.440892098501E-15));
#698 = LINE('',#699,#700);
#699 = CARTESIAN_POINT('',(30.,25.,-5.551115123126E-15));
#700 = VECTOR('',#701,1.);
#701 = DIRECTION('',(0.,-1.,2.22044604925E-16));
#702 = ORIENTED_EDGE('',*,*,#703,.T.);
#703 = EDGE_CURVE('',#696,#704,#706,.T.);
#704 = VERTEX_POINT('',#705);
#705 = CARTESIAN_POINT('',(25.,-25.,5.107025913276E-15));
#706 = CIRCLE('',#707,5.);
#707 = AXIS2_PLACEMENT_3D('',#708,#709,#710);
#708 = CARTESIAN_POINT('',(25.,-20.,4.440892098501E-15));
#709 = DIRECTION('',(-0.,-2.22044604925E-16,-1.));
#710 = DIRECTION('',(0.,-1.,2.22044604925E-16));
#711 = ORIENTED_EDGE('',*,*,#712,.T.);
#712 = EDGE_CURVE('',#704,#713,#715,.T.);
#713 = VERTEX_POINT('',#714);
#714 = CARTESIAN_POINT('',(10.,-25.,5.551115123126E-15));
#715 = LINE('',#716,#717);
#716 = CARTESIAN_POINT('',(30.,-25.,3.552713678801E-15));
#717 = VECTOR('',#718,1.);
#718 = DIRECTION('',(-1.,0.,0.));
#719 = ORIENTED_EDGE('',*,*,#720,.F.);
#720 = EDGE_CURVE('',#721,#713,#723,.T.);
#721 = VERTEX_POINT('',#722);
#722 = CARTESIAN_POINT('',(10.,-12.5,2.6645352591E-15));
#723 = LINE('',#724,#725);
#724 = CARTESIAN_POINT('',(10.,25.,-5.551115123126E-15));
#725 = VECTOR('',#726,1.);
#726 = DIRECTION('',(0.,-1.,2.22044604925E-16));
#727 = ORIENTED_EDGE('',*,*,#728,.F.);
#728 = EDGE_CURVE('',#729,#721,#731,.T.);
#729 = VERTEX_POINT('',#730);
#730 = CARTESIAN_POINT('',(10.,-2.886579864025E-15,1.479114197289E-31));
#731 = LINE('',#732,#733);
#732 = CARTESIAN_POINT('',(10.,25.,-5.551115123126E-15));
#733 = VECTOR('',#734,1.);
#734 = DIRECTION('',(0.,-1.,2.22044604925E-16));
#735 = ORIENTED_EDGE('',*,*,#736,.F.);
#736 = EDGE_CURVE('',#737,#729,#739,.T.);
#737 = VERTEX_POINT('',#738);
#738 = CARTESIAN_POINT('',(10.,12.5,-2.6645352591E-15));
#739 = LINE('',#740,#741);
#740 = CARTESIAN_POINT('',(10.,25.,-5.551115123126E-15));
#741 = VECTOR('',#742,1.);
#742 = DIRECTION('',(0.,-1.,2.22044604925E-16));
#743 = ORIENTED_EDGE('',*,*,#744,.F.);
#744 = EDGE_CURVE('',#745,#737,#747,.T.);
#745 = VERTEX_POINT('',#746);
#746 = CARTESIAN_POINT('',(10.,25.,-5.551115123126E-15));
#747 = LINE('',#748,#749);
#748 = CARTESIAN_POINT('',(10.,25.,-5.551115123126E-15));
#749 = VECTOR('',#750,1.);
#750 = DIRECTION('',(0.,-1.,2.22044604925E-16));
#751 = ORIENTED_EDGE('',*,*,#752,.F.);
#752 = EDGE_CURVE('',#753,#745,#755,.T.);
#753 = VERTEX_POINT('',#754);
#754 = CARTESIAN_POINT('',(25.,25.,-5.107025913276E-15));
#755 = LINE('',#756,#757);
#756 = CARTESIAN_POINT('',(30.,25.,-3.552713678801E-15));
#757 = VECTOR('',#758,1.);
#758 = DIRECTION('',(-1.,0.,0.));
#759 = ORIENTED_EDGE('',*,*,#760,.F.);
#760 = EDGE_CURVE('',#694,#753,#761,.T.);
#761 = CIRCLE('',#762,5.);
#762 = AXIS2_PLACEMENT_3D('',#763,#764,#765);
#763 = CARTESIAN_POINT('',(25.,20.,-4.440892098501E-15));
#764 = DIRECTION('',(-0.,2.22044604925E-16,1.));
#765 = DIRECTION('',(0.,-1.,2.22044604925E-16));
#766 = FACE_BOUND('',#767,.F.);
#767 = EDGE_LOOP('',(#768));
#768 = ORIENTED_EDGE('',*,*,#769,.T.);
#769 = EDGE_CURVE('',#770,#770,#772,.T.);
#770 = VERTEX_POINT('',#771);
#771 = CARTESIAN_POINT('',(14.75,-15.,3.330669073875E-15));
#772 = CIRCLE('',#773,5.25);
#773 = AXIS2_PLACEMENT_3D('',#774,#775,#776);
#774 = CARTESIAN_POINT('',(20.,-15.,3.330669073875E-15));
#775 = DIRECTION('',(0.,2.22044604925E-16,1.));
#776 = DIRECTION('',(-1.,4.551120607044E-31,-1.010551777157E-46));
#777 = FACE_BOUND('',#778,.F.);
#778 = EDGE_LOOP('',(#779));
#779 = ORIENTED_EDGE('',*,*,#780,.T.);
#780 = EDGE_CURVE('',#781,#781,#783,.T.);
#781 = VERTEX_POINT('',#782);
#782 = CARTESIAN_POINT('',(14.75,15.,-3.330669073875E-15));
#783 = CIRCLE('',#784,5.25);
#784 = AXIS2_PLACEMENT_3D('',#785,#786,#787);
#785 = CARTESIAN_POINT('',(20.,15.,-3.330669073875E-15));
#786 = DIRECTION('',(0.,2.22044604925E-16,1.));
#787 = DIRECTION('',(-1.,-4.551120607044E-31,1.010551777157E-46));
#788 = PLANE('',#789);
#789 = AXIS2_PLACEMENT_3D('',#790,#791,#792);
#790 = CARTESIAN_POINT('',(30.,25.,-5.551115123126E-15));
#791 = DIRECTION('',(0.,-2.22044604925E-16,-1.));
#792 = DIRECTION('',(-1.,0.,0.));
#793 = ADVANCED_FACE('',(#794),#819,.F.);
#794 = FACE_BOUND('',#795,.F.);
#795 = EDGE_LOOP('',(#796,#806,#812,#813));
#796 = ORIENTED_EDGE('',*,*,#797,.T.);
#797 = EDGE_CURVE('',#798,#800,#802,.T.);
#798 = VERTEX_POINT('',#799);
#799 = CARTESIAN_POINT('',(30.,20.,-10.));
#800 = VERTEX_POINT('',#801);
#801 = CARTESIAN_POINT('',(30.,-20.,-10.));
#802 = LINE('',#803,#804);
#803 = CARTESIAN_POINT('',(30.,25.,-10.));
#804 = VECTOR('',#805,1.);
#805 = DIRECTION('',(0.,-1.,2.22044604925E-16));
#806 = ORIENTED_EDGE('',*,*,#807,.T.);
#807 = EDGE_CURVE('',#800,#696,#808,.T.);
#808 = LINE('',#809,#810);
#809 = CARTESIAN_POINT('',(30.,-20.,-10.));
#810 = VECTOR('',#811,1.);
#811 = DIRECTION('',(0.,2.22044604925E-16,1.));
#812 = ORIENTED_EDGE('',*,*,#693,.F.);
#813 = ORIENTED_EDGE('',*,*,#814,.F.);
#814 = EDGE_CURVE('',#798,#694,#815,.T.);
#815 = LINE('',#816,#817);
#816 = CARTESIAN_POINT('',(30.,20.,-10.));
#817 = VECTOR('',#818,1.);
#818 = DIRECTION('',(0.,2.22044604925E-16,1.));
#819 = PLANE('',#820);
#820 = AXIS2_PLACEMENT_3D('',#821,#822,#823);
#821 = CARTESIAN_POINT('',(30.,25.,-10.));
#822 = DIRECTION('',(-1.,0.,0.));
#823 = DIRECTION('',(0.,2.22044604925E-16,1.));
#824 = ADVANCED_FACE('',(#825),#844,.T.);
#825 = FACE_BOUND('',#826,.T.);
#826 = EDGE_LOOP('',(#827,#836,#842,#843));
#827 = ORIENTED_EDGE('',*,*,#828,.T.);
#828 = EDGE_CURVE('',#798,#829,#831,.T.);
#829 = VERTEX_POINT('',#830);
#830 = CARTESIAN_POINT('',(25.,25.,-10.));
#831 = CIRCLE('',#832,5.);
#832 = AXIS2_PLACEMENT_3D('',#833,#834,#835);
#833 = CARTESIAN_POINT('',(25.,20.,-10.));
#834 = DIRECTION('',(-0.,2.22044604925E-16,1.));
#835 = DIRECTION('',(0.,-1.,2.22044604925E-16));
#836 = ORIENTED_EDGE('',*,*,#837,.T.);
#837 = EDGE_CURVE('',#829,#753,#838,.T.);
#838 = LINE('',#839,#840);
#839 = CARTESIAN_POINT('',(25.,25.,-10.));
#840 = VECTOR('',#841,1.);
#841 = DIRECTION('',(0.,2.22044604925E-16,1.));
#842 = ORIENTED_EDGE('',*,*,#760,.F.);
#843 = ORIENTED_EDGE('',*,*,#814,.F.);
#844 = CYLINDRICAL_SURFACE('',#845,5.);
#845 = AXIS2_PLACEMENT_3D('',#846,#847,#848);
#846 = CARTESIAN_POINT('',(25.,20.,-10.));
#847 = DIRECTION('',(0.,2.22044604925E-16,1.));
#848 = DIRECTION('',(1.,0.,0.));
#849 = ADVANCED_FACE('',(#850),#869,.T.);
#850 = FACE_BOUND('',#851,.F.);
#851 = EDGE_LOOP('',(#852,#861,#867,#868));
#852 = ORIENTED_EDGE('',*,*,#853,.T.);
#853 = EDGE_CURVE('',#800,#854,#856,.T.);
#854 = VERTEX_POINT('',#855);
#855 = CARTESIAN_POINT('',(25.,-25.,-10.));
#856 = CIRCLE('',#857,5.);
#857 = AXIS2_PLACEMENT_3D('',#858,#859,#860);
#858 = CARTESIAN_POINT('',(25.,-20.,-10.));
#859 = DIRECTION('',(-0.,-2.22044604925E-16,-1.));
#860 = DIRECTION('',(0.,-1.,2.22044604925E-16));
#861 = ORIENTED_EDGE('',*,*,#862,.T.);
#862 = EDGE_CURVE('',#854,#704,#863,.T.);
#863 = LINE('',#864,#865);
#864 = CARTESIAN_POINT('',(25.,-25.,-10.));
#865 = VECTOR('',#866,1.);
#866 = DIRECTION('',(0.,2.22044604925E-16,1.));
#867 = ORIENTED_EDGE('',*,*,#703,.F.);
#868 = ORIENTED_EDGE('',*,*,#807,.F.);
#869 = CYLINDRICAL_SURFACE('',#870,5.);
#870 = AXIS2_PLACEMENT_3D('',#871,#872,#873);
#871 = CARTESIAN_POINT('',(25.,-20.,-10.));
#872 = DIRECTION('',(0.,2.22044604925E-16,1.));
#873 = DIRECTION('',(1.,0.,0.));
#874 = ADVANCED_FACE('',(#875,#894),#905,.T.);
#875 = FACE_BOUND('',#876,.T.);
#876 = EDGE_LOOP('',(#877,#885,#892,#893));
#877 = ORIENTED_EDGE('',*,*,#878,.F.);
#878 = EDGE_CURVE('',#879,#829,#881,.T.);
#879 = VERTEX_POINT('',#880);
#880 = CARTESIAN_POINT('',(-1.81848510441E-15,25.,-10.));
#881 = LINE('',#882,#883);
#882 = CARTESIAN_POINT('',(-1.8E-15,25.,-10.));
#883 = VECTOR('',#884,1.);
#884 = DIRECTION('',(1.,0.,0.));
#885 = ORIENTED_EDGE('',*,*,#886,.F.);
#886 = EDGE_CURVE('',#745,#879,#887,.T.);
#887 = CIRCLE('',#888,10.);
#888 = AXIS2_PLACEMENT_3D('',#889,#890,#891);
#889 = CARTESIAN_POINT('',(0.,25.,-3.552713678801E-15));
#890 = DIRECTION('',(0.,-1.,2.22044604925E-16));
#891 = DIRECTION('',(1.,0.,0.));
#892 = ORIENTED_EDGE('',*,*,#752,.F.);
#893 = ORIENTED_EDGE('',*,*,#837,.F.);
#894 = FACE_BOUND('',#895,.T.);
#895 = EDGE_LOOP('',(#896));
#896 = ORIENTED_EDGE('',*,*,#897,.T.);
#897 = EDGE_CURVE('',#898,#898,#900,.T.);
#898 = VERTEX_POINT('',#899);
#899 = CARTESIAN_POINT('',(5.,25.,-5.551115123126E-15));
#900 = CIRCLE('',#901,5.);
#901 = AXIS2_PLACEMENT_3D('',#902,#903,#904);
#902 = CARTESIAN_POINT('',(0.,25.,-3.552713678801E-15));
#903 = DIRECTION('',(0.,-1.,2.22044604925E-16));
#904 = DIRECTION('',(1.,0.,0.));
#905 = PLANE('',#906);
#906 = AXIS2_PLACEMENT_3D('',#907,#908,#909);
#907 = CARTESIAN_POINT('',(8.405210787022,25.,-2.175029043079));
#908 = DIRECTION('',(0.,1.,0.));
#909 = DIRECTION('',(0.,0.,1.));
#910 = ADVANCED_FACE('',(#911),#929,.F.);
#911 = FACE_BOUND('',#912,.F.);
#912 = EDGE_LOOP('',(#913,#921,#927,#928));
#913 = ORIENTED_EDGE('',*,*,#914,.F.);
#914 = EDGE_CURVE('',#915,#854,#917,.T.);
#915 = VERTEX_POINT('',#916);
#916 = CARTESIAN_POINT('',(10.,-25.,-10.));
#917 = LINE('',#918,#919);
#918 = CARTESIAN_POINT('',(-1.8E-15,-25.,-10.));
#919 = VECTOR('',#920,1.);
#920 = DIRECTION('',(1.,0.,0.));
#921 = ORIENTED_EDGE('',*,*,#922,.T.);
#922 = EDGE_CURVE('',#915,#713,#923,.T.);
#923 = LINE('',#924,#925);
#924 = CARTESIAN_POINT('',(10.,-25.,-10.));
#925 = VECTOR('',#926,1.);
#926 = DIRECTION('',(0.,0.,1.));
#927 = ORIENTED_EDGE('',*,*,#712,.F.);
#928 = ORIENTED_EDGE('',*,*,#862,.F.);
#929 = PLANE('',#930);
#930 = AXIS2_PLACEMENT_3D('',#931,#932,#933);
#931 = CARTESIAN_POINT('',(8.405210787022,-25.,-2.175029043079));
#932 = DIRECTION('',(0.,1.,0.));
#933 = DIRECTION('',(0.,0.,1.));
#934 = ADVANCED_FACE('',(#935),#963,.T.);
#935 = FACE_BOUND('',#936,.F.);
#936 = EDGE_LOOP('',(#937,#938,#939,#948,#957));
#937 = ORIENTED_EDGE('',*,*,#886,.F.);
#938 = ORIENTED_EDGE('',*,*,#744,.T.);
#939 = ORIENTED_EDGE('',*,*,#940,.F.);
#940 = EDGE_CURVE('',#941,#737,#943,.T.);
#941 = VERTEX_POINT('',#942);
#942 = CARTESIAN_POINT('',(-10.,12.5,-7.771561172376E-16));
#943 = CIRCLE('',#944,10.);
#944 = AXIS2_PLACEMENT_3D('',#945,#946,#947);
#945 = CARTESIAN_POINT('',(0.,12.5,-2.775557561563E-15));
#946 = DIRECTION('',(0.,1.,-2.22044604925E-16));
#947 = DIRECTION('',(1.,0.,0.));
#948 = ORIENTED_EDGE('',*,*,#949,.F.);
#949 = EDGE_CURVE('',#950,#941,#952,.T.);
#950 = VERTEX_POINT('',#951);
#951 = CARTESIAN_POINT('',(-1.797420971905E-15,12.5,-10.));
#952 = CIRCLE('',#953,10.);
#953 = AXIS2_PLACEMENT_3D('',#954,#955,#956);
#954 = CARTESIAN_POINT('',(0.,12.5,-2.775557561563E-15));
#955 = DIRECTION('',(0.,1.,-2.22044604925E-16));
#956 = DIRECTION('',(1.,0.,0.));
#957 = ORIENTED_EDGE('',*,*,#958,.F.);
#958 = EDGE_CURVE('',#879,#950,#959,.T.);
#959 = LINE('',#960,#961);
#960 = CARTESIAN_POINT('',(-1.81848510441E-15,25.,-10.));
#961 = VECTOR('',#962,1.);
#962 = DIRECTION('',(0.,-1.,2.22044604925E-16));
#963 = CYLINDRICAL_SURFACE('',#964,10.);
#964 = AXIS2_PLACEMENT_3D('',#965,#966,#967);
#965 = CARTESIAN_POINT('',(0.,25.,-5.551115123126E-15));
#966 = DIRECTION('',(0.,1.,-2.22044604925E-16));
#967 = DIRECTION('',(1.,0.,0.));
#968 = ADVANCED_FACE('',(#969),#994,.F.);
#969 = FACE_BOUND('',#970,.F.);
#970 = EDGE_LOOP('',(#971,#981,#987,#988));
#971 = ORIENTED_EDGE('',*,*,#972,.F.);
#972 = EDGE_CURVE('',#973,#975,#977,.T.);
#973 = VERTEX_POINT('',#974);
#974 = CARTESIAN_POINT('',(10.,12.5,-10.));
#975 = VERTEX_POINT('',#976);
#976 = CARTESIAN_POINT('',(10.,-2.22044604925E-15,-10.));
#977 = LINE('',#978,#979);
#978 = CARTESIAN_POINT('',(10.,12.5,-10.));
#979 = VECTOR('',#980,1.);
#980 = DIRECTION('',(0.,-1.,0.));
#981 = ORIENTED_EDGE('',*,*,#982,.T.);
#982 = EDGE_CURVE('',#973,#737,#983,.T.);
#983 = LINE('',#984,#985);
#984 = CARTESIAN_POINT('',(10.,12.5,-10.));
#985 = VECTOR('',#986,1.);
#986 = DIRECTION('',(0.,0.,1.));
#987 = ORIENTED_EDGE('',*,*,#736,.T.);
#988 = ORIENTED_EDGE('',*,*,#989,.F.);
#989 = EDGE_CURVE('',#975,#729,#990,.T.);
#990 = LINE('',#991,#992);
#991 = CARTESIAN_POINT('',(10.,-2.22044604925E-15,-10.));
#992 = VECTOR('',#993,1.);
#993 = DIRECTION('',(0.,0.,1.));
#994 = PLANE('',#995);
#995 = AXIS2_PLACEMENT_3D('',#996,#997,#998);
#996 = CARTESIAN_POINT('',(10.,12.5,-10.));
#997 = DIRECTION('',(1.,0.,0.));
#998 = DIRECTION('',(0.,-1.,0.));
#999 = ADVANCED_FACE('',(#1000),#1045,.T.);
#1000 = FACE_BOUND('',#1001,.F.);
#1001 = EDGE_LOOP('',(#1002,#1011,#1012,#1021,#1030,#1038));
#1002 = ORIENTED_EDGE('',*,*,#1003,.T.);
#1003 = EDGE_CURVE('',#1004,#729,#1006,.T.);
#1004 = VERTEX_POINT('',#1005);
#1005 = CARTESIAN_POINT('',(-10.,-2.22044604925E-15,-4.930380657631E-31)
  );
#1006 = CIRCLE('',#1007,10.);
#1007 = AXIS2_PLACEMENT_3D('',#1008,#1009,#1010);
#1008 = CARTESIAN_POINT('',(0.,-3.552713678801E-15,7.88860905221E-31));
#1009 = DIRECTION('',(0.,1.,-2.22044604925E-16));
#1010 = DIRECTION('',(1.,0.,0.));
#1011 = ORIENTED_EDGE('',*,*,#728,.T.);
#1012 = ORIENTED_EDGE('',*,*,#1013,.F.);
#1013 = EDGE_CURVE('',#1014,#721,#1016,.T.);
#1014 = VERTEX_POINT('',#1015);
#1015 = CARTESIAN_POINT('',(-10.,-12.5,4.329869796038E-15));
#1016 = CIRCLE('',#1017,10.);
#1017 = AXIS2_PLACEMENT_3D('',#1018,#1019,#1020);
#1018 = CARTESIAN_POINT('',(0.,-12.5,2.775557561563E-15));
#1019 = DIRECTION('',(0.,1.,-2.22044604925E-16));
#1020 = DIRECTION('',(1.,0.,0.));
#1021 = ORIENTED_EDGE('',*,*,#1022,.F.);
#1022 = EDGE_CURVE('',#1023,#1014,#1025,.T.);
#1023 = VERTEX_POINT('',#1024);
#1024 = CARTESIAN_POINT('',(-1.797420971905E-15,-12.5,-10.));
#1025 = CIRCLE('',#1026,10.);
#1026 = AXIS2_PLACEMENT_3D('',#1027,#1028,#1029);
#1027 = CARTESIAN_POINT('',(0.,-12.5,2.775557561563E-15));
#1028 = DIRECTION('',(0.,1.,-2.22044604925E-16));
#1029 = DIRECTION('',(1.,0.,0.));
#1030 = ORIENTED_EDGE('',*,*,#1031,.F.);
#1031 = EDGE_CURVE('',#1032,#1023,#1034,.T.);
#1032 = VERTEX_POINT('',#1033);
#1033 = CARTESIAN_POINT('',(-1.797420971905E-15,-1.7763568394E-15,-10.)
  );
#1034 = LINE('',#1035,#1036);
#1035 = CARTESIAN_POINT('',(-1.81848510441E-15,25.,-10.));
#1036 = VECTOR('',#1037,1.);
#1037 = DIRECTION('',(0.,-1.,2.22044604925E-16));
#1038 = ORIENTED_EDGE('',*,*,#1039,.T.);
#1039 = EDGE_CURVE('',#1032,#1004,#1040,.T.);
#1040 = CIRCLE('',#1041,10.);
#1041 = AXIS2_PLACEMENT_3D('',#1042,#1043,#1044);
#1042 = CARTESIAN_POINT('',(0.,-3.552713678801E-15,7.88860905221E-31));
#1043 = DIRECTION('',(0.,1.,-2.22044604925E-16));
#1044 = DIRECTION('',(1.,0.,0.));
#1045 = CYLINDRICAL_SURFACE('',#1046,10.);
#1046 = AXIS2_PLACEMENT_3D('',#1047,#1048,#1049);
#1047 = CARTESIAN_POINT('',(0.,25.,-5.551115123126E-15));
#1048 = DIRECTION('',(0.,1.,-2.22044604925E-16));
#1049 = DIRECTION('',(1.,0.,0.));
#1050 = ADVANCED_FACE('',(#1051),#1069,.F.);
#1051 = FACE_BOUND('',#1052,.F.);
#1052 = EDGE_LOOP('',(#1053,#1061,#1067,#1068));
#1053 = ORIENTED_EDGE('',*,*,#1054,.F.);
#1054 = EDGE_CURVE('',#1055,#915,#1057,.T.);
#1055 = VERTEX_POINT('',#1056);
#1056 = CARTESIAN_POINT('',(10.,-12.5,-10.));
#1057 = LINE('',#1058,#1059);
#1058 = CARTESIAN_POINT('',(10.,-12.5,-10.));
#1059 = VECTOR('',#1060,1.);
#1060 = DIRECTION('',(0.,-1.,0.));
#1061 = ORIENTED_EDGE('',*,*,#1062,.T.);
#1062 = EDGE_CURVE('',#1055,#721,#1063,.T.);
#1063 = LINE('',#1064,#1065);
#1064 = CARTESIAN_POINT('',(10.,-12.5,-10.));
#1065 = VECTOR('',#1066,1.);
#1066 = DIRECTION('',(0.,0.,1.));
#1067 = ORIENTED_EDGE('',*,*,#720,.T.);
#1068 = ORIENTED_EDGE('',*,*,#922,.F.);
#1069 = PLANE('',#1070);
#1070 = AXIS2_PLACEMENT_3D('',#1071,#1072,#1073);
#1071 = CARTESIAN_POINT('',(10.,-12.5,-10.));
#1072 = DIRECTION('',(1.,0.,0.));
#1073 = DIRECTION('',(0.,-1.,0.));
#1074 = ADVANCED_FACE('',(#1075),#1094,.F.);
#1075 = FACE_BOUND('',#1076,.T.);
#1076 = EDGE_LOOP('',(#1077,#1085,#1086,#1087));
#1077 = ORIENTED_EDGE('',*,*,#1078,.F.);
#1078 = EDGE_CURVE('',#770,#1079,#1081,.T.);
#1079 = VERTEX_POINT('',#1080);
#1080 = CARTESIAN_POINT('',(16.75,-15.,-2.));
#1081 = LINE('',#1082,#1083);
#1082 = CARTESIAN_POINT('',(16.75,-15.,-2.));
#1083 = VECTOR('',#1084,1.);
#1084 = DIRECTION('',(0.707106781187,-1.570092458684E-16,-0.707106781187
    ));
#1085 = ORIENTED_EDGE('',*,*,#769,.T.);
#1086 = ORIENTED_EDGE('',*,*,#1078,.T.);
#1087 = ORIENTED_EDGE('',*,*,#1088,.F.);
#1088 = EDGE_CURVE('',#1079,#1079,#1089,.T.);
#1089 = CIRCLE('',#1090,3.25);
#1090 = AXIS2_PLACEMENT_3D('',#1091,#1092,#1093);
#1091 = CARTESIAN_POINT('',(20.,-15.,-2.));
#1092 = DIRECTION('',(0.,2.22044604925E-16,1.));
#1093 = DIRECTION('',(-1.,4.551120607044E-31,-1.010551777157E-46));
#1094 = CONICAL_SURFACE('',#1095,3.25,0.785398163397);
#1095 = AXIS2_PLACEMENT_3D('',#1096,#1097,#1098);
#1096 = CARTESIAN_POINT('',(20.,-15.,-2.));
#1097 = DIRECTION('',(0.,2.22044604925E-16,1.));
#1098 = DIRECTION('',(-1.,4.551120607044E-31,-1.010551777157E-46));
#1099 = ADVANCED_FACE('',(#1100),#1119,.F.);
#1100 = FACE_BOUND('',#1101,.T.);
#1101 = EDGE_LOOP('',(#1102,#1110,#1111,#1112));
#1102 = ORIENTED_EDGE('',*,*,#1103,.F.);
#1103 = EDGE_CURVE('',#781,#1104,#1106,.T.);
#1104 = VERTEX_POINT('',#1105);
#1105 = CARTESIAN_POINT('',(16.75,15.,-2.));
#1106 = LINE('',#1107,#1108);
#1107 = CARTESIAN_POINT('',(16.75,15.,-2.));
#1108 = VECTOR('',#1109,1.);
#1109 = DIRECTION('',(0.707106781187,-1.570092458684E-16,-0.707106781187
    ));
#1110 = ORIENTED_EDGE('',*,*,#780,.T.);
#1111 = ORIENTED_EDGE('',*,*,#1103,.T.);
#1112 = ORIENTED_EDGE('',*,*,#1113,.F.);
#1113 = EDGE_CURVE('',#1104,#1104,#1114,.T.);
#1114 = CIRCLE('',#1115,3.25);
#1115 = AXIS2_PLACEMENT_3D('',#1116,#1117,#1118);
#1116 = CARTESIAN_POINT('',(20.,15.,-2.));
#1117 = DIRECTION('',(0.,2.22044604925E-16,1.));
#1118 = DIRECTION('',(-1.,-4.551120607044E-31,1.010551777157E-46));
#1119 = CONICAL_SURFACE('',#1120,3.25,0.785398163397);
#1120 = AXIS2_PLACEMENT_3D('',#1121,#1122,#1123);
#1121 = CARTESIAN_POINT('',(20.,15.,-2.));
#1122 = DIRECTION('',(0.,2.22044604925E-16,1.));
#1123 = DIRECTION('',(-1.,-4.551120607044E-31,1.010551777157E-46));
#1124 = ADVANCED_FACE('',(#1125,#1154,#1165),#1176,.F.);
#1125 = FACE_BOUND('',#1126,.F.);
#1126 = EDGE_LOOP('',(#1127,#1128,#1129,#1130,#1136,#1137,#1143,#1144,
    #1150,#1151,#1152,#1153));
#1127 = ORIENTED_EDGE('',*,*,#828,.T.);
#1128 = ORIENTED_EDGE('',*,*,#878,.F.);
#1129 = ORIENTED_EDGE('',*,*,#958,.T.);
#1130 = ORIENTED_EDGE('',*,*,#1131,.T.);
#1131 = EDGE_CURVE('',#950,#973,#1132,.T.);
#1132 = LINE('',#1133,#1134);
#1133 = CARTESIAN_POINT('',(-10.,12.5,-10.));
#1134 = VECTOR('',#1135,1.);
#1135 = DIRECTION('',(1.,0.,0.));
#1136 = ORIENTED_EDGE('',*,*,#972,.T.);
#1137 = ORIENTED_EDGE('',*,*,#1138,.T.);
#1138 = EDGE_CURVE('',#975,#1032,#1139,.T.);
#1139 = LINE('',#1140,#1141);
#1140 = CARTESIAN_POINT('',(10.,-1.7763568394E-15,-10.));
#1141 = VECTOR('',#1142,1.);
#1142 = DIRECTION('',(-1.,-0.,0.));
#1143 = ORIENTED_EDGE('',*,*,#1031,.T.);
#1144 = ORIENTED_EDGE('',*,*,#1145,.T.);
#1145 = EDGE_CURVE('',#1023,#1055,#1146,.T.);
#1146 = LINE('',#1147,#1148);
#1147 = CARTESIAN_POINT('',(-10.,-12.5,-10.));
#1148 = VECTOR('',#1149,1.);
#1149 = DIRECTION('',(1.,0.,0.));
#1150 = ORIENTED_EDGE('',*,*,#1054,.T.);
#1151 = ORIENTED_EDGE('',*,*,#914,.T.);
#1152 = ORIENTED_EDGE('',*,*,#853,.F.);
#1153 = ORIENTED_EDGE('',*,*,#797,.F.);
#1154 = FACE_BOUND('',#1155,.F.);
#1155 = EDGE_LOOP('',(#1156));
#1156 = ORIENTED_EDGE('',*,*,#1157,.F.);
#1157 = EDGE_CURVE('',#1158,#1158,#1160,.T.);
#1158 = VERTEX_POINT('',#1159);
#1159 = CARTESIAN_POINT('',(16.75,-15.,-10.));
#1160 = CIRCLE('',#1161,3.25);
#1161 = AXIS2_PLACEMENT_3D('',#1162,#1163,#1164);
#1162 = CARTESIAN_POINT('',(20.,-15.,-10.));
#1163 = DIRECTION('',(0.,0.,1.));
#1164 = DIRECTION('',(-1.,0.,0.));
#1165 = FACE_BOUND('',#1166,.F.);
#1166 = EDGE_LOOP('',(#1167));
#1167 = ORIENTED_EDGE('',*,*,#1168,.F.);
#1168 = EDGE_CURVE('',#1169,#1169,#1171,.T.);
#1169 = VERTEX_POINT('',#1170);
#1170 = CARTESIAN_POINT('',(16.75,15.,-10.));
#1171 = CIRCLE('',#1172,3.25);
#1172 = AXIS2_PLACEMENT_3D('',#1173,#1174,#1175);
#1173 = CARTESIAN_POINT('',(20.,15.,-10.));
#1174 = DIRECTION('',(0.,0.,1.));
#1175 = DIRECTION('',(-1.,0.,0.));
#1176 = PLANE('',#1177);
#1177 = AXIS2_PLACEMENT_3D('',#1178,#1179,#1180);
#1178 = CARTESIAN_POINT('',(-1.8E-15,25.,-10.));
#1179 = DIRECTION('',(0.,2.22044604925E-16,1.));
#1180 = DIRECTION('',(1.,0.,0.));
#1181 = ADVANCED_FACE('',(#1182),#1201,.F.);
#1182 = FACE_BOUND('',#1183,.T.);
#1183 = EDGE_LOOP('',(#1184,#1185,#1193,#1200));
#1184 = ORIENTED_EDGE('',*,*,#897,.F.);
#1185 = ORIENTED_EDGE('',*,*,#1186,.T.);
#1186 = EDGE_CURVE('',#898,#1187,#1189,.T.);
#1187 = VERTEX_POINT('',#1188);
#1188 = CARTESIAN_POINT('',(5.,12.5,-2.775557561563E-15));
#1189 = LINE('',#1190,#1191);
#1190 = CARTESIAN_POINT('',(5.,25.,-5.551115123126E-15));
#1191 = VECTOR('',#1192,1.);
#1192 = DIRECTION('',(0.,-1.,2.22044604925E-16));
#1193 = ORIENTED_EDGE('',*,*,#1194,.F.);
#1194 = EDGE_CURVE('',#1187,#1187,#1195,.T.);
#1195 = CIRCLE('',#1196,5.);
#1196 = AXIS2_PLACEMENT_3D('',#1197,#1198,#1199);
#1197 = CARTESIAN_POINT('',(0.,12.5,-2.775557561563E-15));
#1198 = DIRECTION('',(0.,1.,-2.22044604925E-16));
#1199 = DIRECTION('',(1.,0.,0.));
#1200 = ORIENTED_EDGE('',*,*,#1186,.F.);
#1201 = CYLINDRICAL_SURFACE('',#1202,5.);
#1202 = AXIS2_PLACEMENT_3D('',#1203,#1204,#1205);
#1203 = CARTESIAN_POINT('',(0.,25.,-5.551115123126E-15));
#1204 = DIRECTION('',(0.,1.,-2.22044604925E-16));
#1205 = DIRECTION('',(1.,0.,0.));
#1206 = ADVANCED_FACE('',(#1207,#1213),#1216,.F.);
#1207 = FACE_BOUND('',#1208,.F.);
#1208 = EDGE_LOOP('',(#1209,#1210,#1211,#1212));
#1209 = ORIENTED_EDGE('',*,*,#949,.T.);
#1210 = ORIENTED_EDGE('',*,*,#940,.T.);
#1211 = ORIENTED_EDGE('',*,*,#982,.F.);
#1212 = ORIENTED_EDGE('',*,*,#1131,.F.);
#1213 = FACE_BOUND('',#1214,.F.);
#1214 = EDGE_LOOP('',(#1215));
#1215 = ORIENTED_EDGE('',*,*,#1194,.F.);
#1216 = PLANE('',#1217);
#1217 = AXIS2_PLACEMENT_3D('',#1218,#1219,#1220);
#1218 = CARTESIAN_POINT('',(-10.,12.5,-10.));
#1219 = DIRECTION('',(0.,1.,0.));
#1220 = DIRECTION('',(1.,0.,0.));
#1221 = ADVANCED_FACE('',(#1222,#1228),#1239,.F.);
#1222 = FACE_BOUND('',#1223,.F.);
#1223 = EDGE_LOOP('',(#1224,#1225,#1226,#1227));
#1224 = ORIENTED_EDGE('',*,*,#1138,.F.);
#1225 = ORIENTED_EDGE('',*,*,#989,.T.);
#1226 = ORIENTED_EDGE('',*,*,#1003,.F.);
#1227 = ORIENTED_EDGE('',*,*,#1039,.F.);
#1228 = FACE_BOUND('',#1229,.F.);
#1229 = EDGE_LOOP('',(#1230));
#1230 = ORIENTED_EDGE('',*,*,#1231,.T.);
#1231 = EDGE_CURVE('',#1232,#1232,#1234,.T.);
#1232 = VERTEX_POINT('',#1233);
#1233 = CARTESIAN_POINT('',(5.,-3.552713678801E-15,7.88860905221E-31));
#1234 = CIRCLE('',#1235,5.);
#1235 = AXIS2_PLACEMENT_3D('',#1236,#1237,#1238);
#1236 = CARTESIAN_POINT('',(0.,-3.552713678801E-15,7.88860905221E-31));
#1237 = DIRECTION('',(0.,1.,-2.22044604925E-16));
#1238 = DIRECTION('',(1.,0.,0.));
#1239 = PLANE('',#1240);
#1240 = AXIS2_PLACEMENT_3D('',#1241,#1242,#1243);
#1241 = CARTESIAN_POINT('',(10.,-2.22044604925E-15,-10.));
#1242 = DIRECTION('',(0.,-1.,0.));
#1243 = DIRECTION('',(-1.,-0.,0.));
#1244 = ADVANCED_FACE('',(#1245,#1251),#1262,.F.);
#1245 = FACE_BOUND('',#1246,.F.);
#1246 = EDGE_LOOP('',(#1247,#1248,#1249,#1250));
#1247 = ORIENTED_EDGE('',*,*,#1022,.T.);
#1248 = ORIENTED_EDGE('',*,*,#1013,.T.);
#1249 = ORIENTED_EDGE('',*,*,#1062,.F.);
#1250 = ORIENTED_EDGE('',*,*,#1145,.F.);
#1251 = FACE_BOUND('',#1252,.F.);
#1252 = EDGE_LOOP('',(#1253));
#1253 = ORIENTED_EDGE('',*,*,#1254,.F.);
#1254 = EDGE_CURVE('',#1255,#1255,#1257,.T.);
#1255 = VERTEX_POINT('',#1256);
#1256 = CARTESIAN_POINT('',(5.,-12.5,2.775557561563E-15));
#1257 = CIRCLE('',#1258,5.);
#1258 = AXIS2_PLACEMENT_3D('',#1259,#1260,#1261);
#1259 = CARTESIAN_POINT('',(0.,-12.5,2.775557561563E-15));
#1260 = DIRECTION('',(0.,1.,-2.22044604925E-16));
#1261 = DIRECTION('',(1.,0.,0.));
#1262 = PLANE('',#1263);
#1263 = AXIS2_PLACEMENT_3D('',#1264,#1265,#1266);
#1264 = CARTESIAN_POINT('',(-10.,-12.5,-10.));
#1265 = DIRECTION('',(0.,1.,0.));
#1266 = DIRECTION('',(1.,0.,0.));
#1267 = ADVANCED_FACE('',(#1268),#1279,.F.);
#1268 = FACE_BOUND('',#1269,.F.);
#1269 = EDGE_LOOP('',(#1270,#1276,#1277,#1278));
#1270 = ORIENTED_EDGE('',*,*,#1271,.F.);
#1271 = EDGE_CURVE('',#1079,#1158,#1272,.T.);
#1272 = LINE('',#1273,#1274);
#1273 = CARTESIAN_POINT('',(16.75,-15.,0.));
#1274 = VECTOR('',#1275,1.);
#1275 = DIRECTION('',(0.,0.,-1.));
#1276 = ORIENTED_EDGE('',*,*,#1088,.F.);
#1277 = ORIENTED_EDGE('',*,*,#1271,.T.);
#1278 = ORIENTED_EDGE('',*,*,#1157,.T.);
#1279 = CYLINDRICAL_SURFACE('',#1280,3.25);
#1280 = AXIS2_PLACEMENT_3D('',#1281,#1282,#1283);
#1281 = CARTESIAN_POINT('',(20.,-15.,0.));
#1282 = DIRECTION('',(0.,0.,1.));
#1283 = DIRECTION('',(-1.,0.,0.));
#1284 = ADVANCED_FACE('',(#1285),#1296,.F.);
#1285 = FACE_BOUND('',#1286,.F.);
#1286 = EDGE_LOOP('',(#1287,#1293,#1294,#1295));
#1287 = ORIENTED_EDGE('',*,*,#1288,.F.);
#1288 = EDGE_CURVE('',#1104,#1169,#1289,.T.);
#1289 = LINE('',#1290,#1291);
#1290 = CARTESIAN_POINT('',(16.75,15.,0.));
#1291 = VECTOR('',#1292,1.);
#1292 = DIRECTION('',(0.,0.,-1.));
#1293 = ORIENTED_EDGE('',*,*,#1113,.F.);
#1294 = ORIENTED_EDGE('',*,*,#1288,.T.);
#1295 = ORIENTED_EDGE('',*,*,#1168,.T.);
#1296 = CYLINDRICAL_SURFACE('',#1297,3.25);
#1297 = AXIS2_PLACEMENT_3D('',#1298,#1299,#1300);
#1298 = CARTESIAN_POINT('',(20.,15.,0.));
#1299 = DIRECTION('',(0.,0.,1.));
#1300 = DIRECTION('',(-1.,0.,0.));
#1301 = ADVANCED_FACE('',(#1302),#1313,.F.);
#1302 = FACE_BOUND('',#1303,.T.);
#1303 = EDGE_LOOP('',(#1304,#1305,#1311,#1312));
#1304 = ORIENTED_EDGE('',*,*,#1231,.T.);
#1305 = ORIENTED_EDGE('',*,*,#1306,.T.);
#1306 = EDGE_CURVE('',#1232,#1255,#1307,.T.);
#1307 = LINE('',#1308,#1309);
#1308 = CARTESIAN_POINT('',(5.,25.,-5.551115123126E-15));
#1309 = VECTOR('',#1310,1.);
#1310 = DIRECTION('',(0.,-1.,2.22044604925E-16));
#1311 = ORIENTED_EDGE('',*,*,#1254,.F.);
#1312 = ORIENTED_EDGE('',*,*,#1306,.F.);
#1313 = CYLINDRICAL_SURFACE('',#1314,5.);
#1314 = AXIS2_PLACEMENT_3D('',#1315,#1316,#1317);
#1315 = CARTESIAN_POINT('',(0.,25.,-5.551115123126E-15));
#1316 = DIRECTION('',(0.,1.,-2.22044604925E-16));
#1317 = DIRECTION('',(1.,0.,0.));
#1318 = ( GEOMETRIC_REPRESENTATION_CONTEXT(3) 
GLOBAL_UNCERTAINTY_ASSIGNED_CONTEXT((#1322)) 
GLOBAL_UNIT_ASSIGNED_CONTEXT((#1319,#1320,#1321)) REPRESENTATION_CONTEXT
('Context #1','3D Context with UNIT and UNCERTAINTY') );
#1319 = ( LENGTH_UNIT() NAMED_UNIT(*) SI_UNIT(.MILLI.,.METRE.) );
#1320 = ( NAMED_UNIT(*) PLANE_ANGLE_UNIT() SI_UNIT($,.RADIAN.) );
#1321 = ( NAMED_UNIT(*) SI_UNIT($,.STERADIAN.) SOLID_ANGLE_UNIT() );
#1322 = UNCERTAINTY_MEASURE_WITH_UNIT(LENGTH_MEASURE(1.E-07),#1319,
  'distance_accuracy_value','confusion accuracy');
#1323 = CONTEXT_DEPENDENT_SHAPE_REPRESENTATION(#1324,#1326);
#1324 = ( REPRESENTATION_RELATIONSHIP('','',#686,#10) 
REPRESENTATION_RELATIONSHIP_WITH_TRANSFORMATION(#1325) 
SHAPE_REPRESENTATION_RELATIONSHIP() );
#1325 = ITEM_DEFINED_TRANSFORMATION('','',#11,#19);
#1326 = PRODUCT_DEFINITION_SHAPE('Placement','Placement of an item',
  #1327);
#1327 = NEXT_ASSEMBLY_USAGE_OCCURRENCE('2','Body001','',#5,#681,$);
#1328 = PRODUCT_RELATED_PRODUCT_CATEGORY('part',$,(#683));
#1329 = MECHANICAL_DESIGN_GEOMETRIC_PRESENTATION_REPRESENTATION('',(
    #1330),#668);
#1330 = STYLED_ITEM('color',(#1331),#37);
#1331 = PRESENTATION_STYLE_ASSIGNMENT((#1332,#1338));
#1332 = SURFACE_STYLE_USAGE(.BOTH.,#1333);
#1333 = SURFACE_SIDE_STYLE('',(#1334));
#1334 = SURFACE_STYLE_FILL_AREA(#1335);
#1335 = FILL_AREA_STYLE('',(#1336));
#1336 = FILL_AREA_STYLE_COLOUR('',#1337);
#1337 = COLOUR_RGB('',0.349019616187,0.349019616187,0.349019616187);
#1338 = CURVE_STYLE('',#1339,POSITIVE_LENGTH_MEASURE(0.1),#1340);
#1339 = DRAUGHTING_PRE_DEFINED_CURVE_FONT('continuous');
#1340 = COLOUR_RGB('',9.803921802644E-02,9.803921802644E-02,
  9.803921802644E-02);
#1341 = MECHANICAL_DESIGN_GEOMETRIC_PRESENTATION_REPRESENTATION('',(
    #1342),#1318);
#1342 = STYLED_ITEM('color',(#1343),#687);
#1343 = PRESENTATION_STYLE_ASSIGNMENT((#1344,#1349));
#1344 = SURFACE_STYLE_USAGE(.BOTH.,#1345);
#1345 = SURFACE_SIDE_STYLE('',(#1346));
#1346 = SURFACE_STYLE_FILL_AREA(#1347);
#1347 = FILL_AREA_STYLE('',(#1348));
#1348 = FILL_AREA_STYLE_COLOUR('',#1337);
#1349 = CURVE_STYLE('',#1350,POSITIVE_LENGTH_MEASURE(0.1),#1340);
#1350 = DRAUGHTING_PRE_DEFINED_CURVE_FONT('continuous');
ENDSEC;
END-ISO-10303-21;
