ISO-10303-21;
HEADER;
FILE_DESCRIPTION(('FreeCAD Model'),'2;1');
FILE_NAME('Open CASCADE Shape Model','2025-12-06T02:35:19',('Author'),(
    ''),'Open CASCADE STEP processor 7.8','FreeCAD','Unknown');
FILE_SCHEMA(('AUTOMOTIVE_DESIGN { 1 0 10303 214 1 1 1 1 }'));
ENDSEC;
DATA;
#1 = APPLICATION_PROTOCOL_DEFINITION('international standard',
  'automotive_design',2000,#2);
#2 = APPLICATION_CONTEXT(
  'core data for automotive mechanical design processes');
#3 = SHAPE_DEFINITION_REPRESENTATION(#4,#10);
#4 = PRODUCT_DEFINITION_SHAPE('','',#5);
#5 = PRODUCT_DEFINITION('design','',#6,#9);
#6 = PRODUCT_DEFINITION_FORMATION('','',#7);
#7 = PRODUCT('Body','Body','',(#8));
#8 = PRODUCT_CONTEXT('',#2,'mechanical');
#9 = PRODUCT_DEFINITION_CONTEXT('part definition',#2,'design');
#10 = ADVANCED_BREP_SHAPE_REPRESENTATION('',(#11,#15),#733);
#11 = AXIS2_PLACEMENT_3D('',#12,#13,#14);
#12 = CARTESIAN_POINT('',(0.,0.,0.));
#13 = DIRECTION('',(0.,0.,1.));
#14 = DIRECTION('',(1.,0.,-0.));
#15 = MANIFOLD_SOLID_BREP('',#16);
#16 = CLOSED_SHELL('',(#17,#57,#236,#261,#286,#449,#466,#483,#500,#517,
    #534,#551,#568,#585,#602,#619,#636,#653,#665,#682,#699,#716));
#17 = ADVANCED_FACE('',(#18),#52,.T.);
#18 = FACE_BOUND('',#19,.T.);
#19 = EDGE_LOOP('',(#20,#30,#38,#46));
#20 = ORIENTED_EDGE('',*,*,#21,.F.);
#21 = EDGE_CURVE('',#22,#24,#26,.T.);
#22 = VERTEX_POINT('',#23);
#23 = CARTESIAN_POINT('',(-40.5,1.5,110.));
#24 = VERTEX_POINT('',#25);
#25 = CARTESIAN_POINT('',(40.5,1.5,110.));
#26 = LINE('',#27,#28);
#27 = CARTESIAN_POINT('',(-42.5,1.5,110.));
#28 = VECTOR('',#29,1.);
#29 = DIRECTION('',(1.,0.,0.));
#30 = ORIENTED_EDGE('',*,*,#31,.T.);
#31 = EDGE_CURVE('',#22,#32,#34,.T.);
#32 = VERTEX_POINT('',#33);
#33 = CARTESIAN_POINT('',(-40.5,-1.5,110.));
#34 = LINE('',#35,#36);
#35 = CARTESIAN_POINT('',(-40.5,1.5,110.));
#36 = VECTOR('',#37,1.);
#37 = DIRECTION('',(0.,-1.,2.22044604925E-16));
#38 = ORIENTED_EDGE('',*,*,#39,.T.);
#39 = EDGE_CURVE('',#32,#40,#42,.T.);
#40 = VERTEX_POINT('',#41);
#41 = CARTESIAN_POINT('',(40.5,-1.5,110.));
#42 = LINE('',#43,#44);
#43 = CARTESIAN_POINT('',(-42.5,-1.5,110.));
#44 = VECTOR('',#45,1.);
#45 = DIRECTION('',(1.,0.,0.));
#46 = ORIENTED_EDGE('',*,*,#47,.F.);
#47 = EDGE_CURVE('',#24,#40,#48,.T.);
#48 = LINE('',#49,#50);
#49 = CARTESIAN_POINT('',(40.5,1.5,110.));
#50 = VECTOR('',#51,1.);
#51 = DIRECTION('',(0.,-1.,2.22044604925E-16));
#52 = PLANE('',#53);
#53 = AXIS2_PLACEMENT_3D('',#54,#55,#56);
#54 = CARTESIAN_POINT('',(-42.5,1.5,110.));
#55 = DIRECTION('',(0.,2.22044604925E-16,1.));
#56 = DIRECTION('',(1.,0.,0.));
#57 = ADVANCED_FACE('',(#58,#187,#198,#209,#220),#231,.T.);
#58 = FACE_BOUND('',#59,.T.);
#59 = EDGE_LOOP('',(#60,#61,#70,#78,#87,#95,#104,#112,#121,#129,#138,
    #146,#155,#163,#172,#180));
#60 = ORIENTED_EDGE('',*,*,#21,.T.);
#61 = ORIENTED_EDGE('',*,*,#62,.T.);
#62 = EDGE_CURVE('',#24,#63,#65,.T.);
#63 = VERTEX_POINT('',#64);
#64 = CARTESIAN_POINT('',(42.5,1.5,108.));
#65 = CIRCLE('',#66,2.);
#66 = AXIS2_PLACEMENT_3D('',#67,#68,#69);
#67 = CARTESIAN_POINT('',(40.5,1.5,108.));
#68 = DIRECTION('',(-0.,1.,-2.22044604925E-16));
#69 = DIRECTION('',(0.,-2.22044604925E-16,-1.));
#70 = ORIENTED_EDGE('',*,*,#71,.T.);
#71 = EDGE_CURVE('',#63,#72,#74,.T.);
#72 = VERTEX_POINT('',#73);
#73 = CARTESIAN_POINT('',(42.5,1.5,75.99999999999));
#74 = LINE('',#75,#76);
#75 = CARTESIAN_POINT('',(42.5,1.5,110.));
#76 = VECTOR('',#77,1.);
#77 = DIRECTION('',(0.,-2.22044604925E-16,-1.));
#78 = ORIENTED_EDGE('',*,*,#79,.T.);
#79 = EDGE_CURVE('',#72,#80,#82,.T.);
#80 = VERTEX_POINT('',#81);
#81 = CARTESIAN_POINT('',(40.5,1.5,73.99999999999));
#82 = CIRCLE('',#83,2.);
#83 = AXIS2_PLACEMENT_3D('',#84,#85,#86);
#84 = CARTESIAN_POINT('',(40.5,1.5,75.99999999999));
#85 = DIRECTION('',(-0.,1.,-2.22044604925E-16));
#86 = DIRECTION('',(0.,-2.22044604925E-16,-1.));
#87 = ORIENTED_EDGE('',*,*,#88,.T.);
#88 = EDGE_CURVE('',#80,#89,#91,.T.);
#89 = VERTEX_POINT('',#90);
#90 = CARTESIAN_POINT('',(20.,1.5,73.99999999999));
#91 = LINE('',#92,#93);
#92 = CARTESIAN_POINT('',(42.5,1.5,73.99999999999));
#93 = VECTOR('',#94,1.);
#94 = DIRECTION('',(-1.,0.,0.));
#95 = ORIENTED_EDGE('',*,*,#96,.T.);
#96 = EDGE_CURVE('',#89,#97,#99,.T.);
#97 = VERTEX_POINT('',#98);
#98 = CARTESIAN_POINT('',(18.,1.5,71.99999999999));
#99 = CIRCLE('',#100,2.);
#100 = AXIS2_PLACEMENT_3D('',#101,#102,#103);
#101 = CARTESIAN_POINT('',(20.,1.5,71.99999999999));
#102 = DIRECTION('',(0.,-1.,2.22044604925E-16));
#103 = DIRECTION('',(0.,-2.22044604925E-16,-1.));
#104 = ORIENTED_EDGE('',*,*,#105,.T.);
#105 = EDGE_CURVE('',#97,#106,#108,.T.);
#106 = VERTEX_POINT('',#107);
#107 = CARTESIAN_POINT('',(18.,1.5,2.));
#108 = LINE('',#109,#110);
#109 = CARTESIAN_POINT('',(18.,1.5,73.99999999999));
#110 = VECTOR('',#111,1.);
#111 = DIRECTION('',(0.,-2.22044604925E-16,-1.));
#112 = ORIENTED_EDGE('',*,*,#113,.T.);
#113 = EDGE_CURVE('',#106,#114,#116,.T.);
#114 = VERTEX_POINT('',#115);
#115 = CARTESIAN_POINT('',(16.,1.5,-5.551115123126E-16));
#116 = CIRCLE('',#117,2.);
#117 = AXIS2_PLACEMENT_3D('',#118,#119,#120);
#118 = CARTESIAN_POINT('',(16.,1.5,2.));
#119 = DIRECTION('',(-0.,1.,-2.22044604925E-16));
#120 = DIRECTION('',(0.,-2.22044604925E-16,-1.));
#121 = ORIENTED_EDGE('',*,*,#122,.T.);
#122 = EDGE_CURVE('',#114,#123,#125,.T.);
#123 = VERTEX_POINT('',#124);
#124 = CARTESIAN_POINT('',(-16.,1.5,-7.771561172376E-16));
#125 = LINE('',#126,#127);
#126 = CARTESIAN_POINT('',(18.,1.5,-4.440892098501E-16));
#127 = VECTOR('',#128,1.);
#128 = DIRECTION('',(-1.,0.,0.));
#129 = ORIENTED_EDGE('',*,*,#130,.T.);
#130 = EDGE_CURVE('',#123,#131,#133,.T.);
#131 = VERTEX_POINT('',#132);
#132 = CARTESIAN_POINT('',(-18.,1.5,2.));
#133 = CIRCLE('',#134,2.);
#134 = AXIS2_PLACEMENT_3D('',#135,#136,#137);
#135 = CARTESIAN_POINT('',(-16.,1.5,2.));
#136 = DIRECTION('',(-0.,1.,-2.22044604925E-16));
#137 = DIRECTION('',(0.,-2.22044604925E-16,-1.));
#138 = ORIENTED_EDGE('',*,*,#139,.T.);
#139 = EDGE_CURVE('',#131,#140,#142,.T.);
#140 = VERTEX_POINT('',#141);
#141 = CARTESIAN_POINT('',(-18.,1.5,72.));
#142 = LINE('',#143,#144);
#143 = CARTESIAN_POINT('',(-18.,1.5,-4.440892098501E-16));
#144 = VECTOR('',#145,1.);
#145 = DIRECTION('',(0.,2.22044604925E-16,1.));
#146 = ORIENTED_EDGE('',*,*,#147,.T.);
#147 = EDGE_CURVE('',#140,#148,#150,.T.);
#148 = VERTEX_POINT('',#149);
#149 = CARTESIAN_POINT('',(-20.,1.5,74.));
#150 = CIRCLE('',#151,2.);
#151 = AXIS2_PLACEMENT_3D('',#152,#153,#154);
#152 = CARTESIAN_POINT('',(-20.,1.5,72.));
#153 = DIRECTION('',(0.,-1.,2.22044604925E-16));
#154 = DIRECTION('',(0.,-2.22044604925E-16,-1.));
#155 = ORIENTED_EDGE('',*,*,#156,.T.);
#156 = EDGE_CURVE('',#148,#157,#159,.T.);
#157 = VERTEX_POINT('',#158);
#158 = CARTESIAN_POINT('',(-40.5,1.5,74.));
#159 = LINE('',#160,#161);
#160 = CARTESIAN_POINT('',(-18.,1.5,74.));
#161 = VECTOR('',#162,1.);
#162 = DIRECTION('',(-1.,0.,0.));
#163 = ORIENTED_EDGE('',*,*,#164,.T.);
#164 = EDGE_CURVE('',#157,#165,#167,.T.);
#165 = VERTEX_POINT('',#166);
#166 = CARTESIAN_POINT('',(-42.5,1.5,76.));
#167 = CIRCLE('',#168,2.);
#168 = AXIS2_PLACEMENT_3D('',#169,#170,#171);
#169 = CARTESIAN_POINT('',(-40.5,1.5,76.));
#170 = DIRECTION('',(-0.,1.,-2.22044604925E-16));
#171 = DIRECTION('',(0.,-2.22044604925E-16,-1.));
#172 = ORIENTED_EDGE('',*,*,#173,.T.);
#173 = EDGE_CURVE('',#165,#174,#176,.T.);
#174 = VERTEX_POINT('',#175);
#175 = CARTESIAN_POINT('',(-42.5,1.5,108.));
#176 = LINE('',#177,#178);
#177 = CARTESIAN_POINT('',(-42.5,1.5,74.));
#178 = VECTOR('',#179,1.);
#179 = DIRECTION('',(0.,2.22044604925E-16,1.));
#180 = ORIENTED_EDGE('',*,*,#181,.F.);
#181 = EDGE_CURVE('',#22,#174,#182,.T.);
#182 = CIRCLE('',#183,2.);
#183 = AXIS2_PLACEMENT_3D('',#184,#185,#186);
#184 = CARTESIAN_POINT('',(-40.5,1.5,108.));
#185 = DIRECTION('',(0.,-1.,2.22044604925E-16));
#186 = DIRECTION('',(0.,-2.22044604925E-16,-1.));
#187 = FACE_BOUND('',#188,.T.);
#188 = EDGE_LOOP('',(#189));
#189 = ORIENTED_EDGE('',*,*,#190,.T.);
#190 = EDGE_CURVE('',#191,#191,#193,.T.);
#191 = VERTEX_POINT('',#192);
#192 = CARTESIAN_POINT('',(32.,1.5,91.999999999995));
#193 = CIRCLE('',#194,4.5);
#194 = AXIS2_PLACEMENT_3D('',#195,#196,#197);
#195 = CARTESIAN_POINT('',(27.5,1.5,91.999999999995));
#196 = DIRECTION('',(0.,-1.,2.22044604925E-16));
#197 = DIRECTION('',(1.,0.,0.));
#198 = FACE_BOUND('',#199,.T.);
#199 = EDGE_LOOP('',(#200));
#200 = ORIENTED_EDGE('',*,*,#201,.T.);
#201 = EDGE_CURVE('',#202,#202,#204,.T.);
#202 = VERTEX_POINT('',#203);
#203 = CARTESIAN_POINT('',(-23.,1.5,91.999999999995));
#204 = CIRCLE('',#205,4.5);
#205 = AXIS2_PLACEMENT_3D('',#206,#207,#208);
#206 = CARTESIAN_POINT('',(-27.5,1.5,91.999999999995));
#207 = DIRECTION('',(0.,-1.,2.22044604925E-16));
#208 = DIRECTION('',(1.,0.,0.));
#209 = FACE_BOUND('',#210,.T.);
#210 = EDGE_LOOP('',(#211));
#211 = ORIENTED_EDGE('',*,*,#212,.T.);
#212 = EDGE_CURVE('',#213,#213,#215,.T.);
#213 = VERTEX_POINT('',#214);
#214 = CARTESIAN_POINT('',(4.5,1.5,50.));
#215 = CIRCLE('',#216,4.5);
#216 = AXIS2_PLACEMENT_3D('',#217,#218,#219);
#217 = CARTESIAN_POINT('',(0.,1.5,50.));
#218 = DIRECTION('',(0.,-1.,2.22044604925E-16));
#219 = DIRECTION('',(1.,0.,0.));
#220 = FACE_BOUND('',#221,.T.);
#221 = EDGE_LOOP('',(#222));
#222 = ORIENTED_EDGE('',*,*,#223,.T.);
#223 = EDGE_CURVE('',#224,#224,#226,.T.);
#224 = VERTEX_POINT('',#225);
#225 = CARTESIAN_POINT('',(4.5,1.5,20.));
#226 = CIRCLE('',#227,4.5);
#227 = AXIS2_PLACEMENT_3D('',#228,#229,#230);
#228 = CARTESIAN_POINT('',(0.,1.5,20.));
#229 = DIRECTION('',(0.,-1.,2.22044604925E-16));
#230 = DIRECTION('',(1.,0.,0.));
#231 = PLANE('',#232);
#232 = AXIS2_PLACEMENT_3D('',#233,#234,#235);
#233 = CARTESIAN_POINT('',(5.030058205513E-13,1.5,64.143185576326));
#234 = DIRECTION('',(0.,1.,-4.930380657631E-32));
#235 = DIRECTION('',(0.,4.930380657631E-32,1.));
#236 = ADVANCED_FACE('',(#237),#256,.T.);
#237 = FACE_BOUND('',#238,.T.);
#238 = EDGE_LOOP('',(#239,#240,#248,#255));
#239 = ORIENTED_EDGE('',*,*,#181,.T.);
#240 = ORIENTED_EDGE('',*,*,#241,.T.);
#241 = EDGE_CURVE('',#174,#242,#244,.T.);
#242 = VERTEX_POINT('',#243);
#243 = CARTESIAN_POINT('',(-42.5,-1.5,108.));
#244 = LINE('',#245,#246);
#245 = CARTESIAN_POINT('',(-42.5,1.5,108.));
#246 = VECTOR('',#247,1.);
#247 = DIRECTION('',(0.,-1.,2.22044604925E-16));
#248 = ORIENTED_EDGE('',*,*,#249,.F.);
#249 = EDGE_CURVE('',#32,#242,#250,.T.);
#250 = CIRCLE('',#251,2.);
#251 = AXIS2_PLACEMENT_3D('',#252,#253,#254);
#252 = CARTESIAN_POINT('',(-40.5,-1.5,108.));
#253 = DIRECTION('',(0.,-1.,2.22044604925E-16));
#254 = DIRECTION('',(0.,-2.22044604925E-16,-1.));
#255 = ORIENTED_EDGE('',*,*,#31,.F.);
#256 = CYLINDRICAL_SURFACE('',#257,2.);
#257 = AXIS2_PLACEMENT_3D('',#258,#259,#260);
#258 = CARTESIAN_POINT('',(-40.5,1.5,108.));
#259 = DIRECTION('',(0.,-1.,2.22044604925E-16));
#260 = DIRECTION('',(0.,2.22044604925E-16,1.));
#261 = ADVANCED_FACE('',(#262),#281,.T.);
#262 = FACE_BOUND('',#263,.F.);
#263 = EDGE_LOOP('',(#264,#265,#273,#280));
#264 = ORIENTED_EDGE('',*,*,#62,.T.);
#265 = ORIENTED_EDGE('',*,*,#266,.T.);
#266 = EDGE_CURVE('',#63,#267,#269,.T.);
#267 = VERTEX_POINT('',#268);
#268 = CARTESIAN_POINT('',(42.5,-1.5,108.));
#269 = LINE('',#270,#271);
#270 = CARTESIAN_POINT('',(42.5,1.5,108.));
#271 = VECTOR('',#272,1.);
#272 = DIRECTION('',(0.,-1.,2.22044604925E-16));
#273 = ORIENTED_EDGE('',*,*,#274,.F.);
#274 = EDGE_CURVE('',#40,#267,#275,.T.);
#275 = CIRCLE('',#276,2.);
#276 = AXIS2_PLACEMENT_3D('',#277,#278,#279);
#277 = CARTESIAN_POINT('',(40.5,-1.5,108.));
#278 = DIRECTION('',(-0.,1.,-2.22044604925E-16));
#279 = DIRECTION('',(0.,-2.22044604925E-16,-1.));
#280 = ORIENTED_EDGE('',*,*,#47,.F.);
#281 = CYLINDRICAL_SURFACE('',#282,2.);
#282 = AXIS2_PLACEMENT_3D('',#283,#284,#285);
#283 = CARTESIAN_POINT('',(40.5,1.5,108.));
#284 = DIRECTION('',(0.,-1.,2.22044604925E-16));
#285 = DIRECTION('',(0.,2.22044604925E-16,1.));
#286 = ADVANCED_FACE('',(#287,#400,#411,#422,#433),#444,.F.);
#287 = FACE_BOUND('',#288,.F.);
#288 = EDGE_LOOP('',(#289,#290,#291,#299,#308,#316,#325,#333,#342,#350,
    #359,#367,#376,#384,#393,#399));
#289 = ORIENTED_EDGE('',*,*,#39,.T.);
#290 = ORIENTED_EDGE('',*,*,#274,.T.);
#291 = ORIENTED_EDGE('',*,*,#292,.T.);
#292 = EDGE_CURVE('',#267,#293,#295,.T.);
#293 = VERTEX_POINT('',#294);
#294 = CARTESIAN_POINT('',(42.5,-1.5,75.99999999999));
#295 = LINE('',#296,#297);
#296 = CARTESIAN_POINT('',(42.5,-1.5,110.));
#297 = VECTOR('',#298,1.);
#298 = DIRECTION('',(0.,-2.22044604925E-16,-1.));
#299 = ORIENTED_EDGE('',*,*,#300,.T.);
#300 = EDGE_CURVE('',#293,#301,#303,.T.);
#301 = VERTEX_POINT('',#302);
#302 = CARTESIAN_POINT('',(40.5,-1.5,73.99999999999));
#303 = CIRCLE('',#304,2.);
#304 = AXIS2_PLACEMENT_3D('',#305,#306,#307);
#305 = CARTESIAN_POINT('',(40.5,-1.5,75.99999999999));
#306 = DIRECTION('',(-0.,1.,-2.22044604925E-16));
#307 = DIRECTION('',(0.,-2.22044604925E-16,-1.));
#308 = ORIENTED_EDGE('',*,*,#309,.T.);
#309 = EDGE_CURVE('',#301,#310,#312,.T.);
#310 = VERTEX_POINT('',#311);
#311 = CARTESIAN_POINT('',(20.,-1.5,73.99999999999));
#312 = LINE('',#313,#314);
#313 = CARTESIAN_POINT('',(42.5,-1.5,73.99999999999));
#314 = VECTOR('',#315,1.);
#315 = DIRECTION('',(-1.,0.,0.));
#316 = ORIENTED_EDGE('',*,*,#317,.T.);
#317 = EDGE_CURVE('',#310,#318,#320,.T.);
#318 = VERTEX_POINT('',#319);
#319 = CARTESIAN_POINT('',(18.,-1.5,71.99999999999));
#320 = CIRCLE('',#321,2.);
#321 = AXIS2_PLACEMENT_3D('',#322,#323,#324);
#322 = CARTESIAN_POINT('',(20.,-1.5,71.99999999999));
#323 = DIRECTION('',(0.,-1.,2.22044604925E-16));
#324 = DIRECTION('',(0.,-2.22044604925E-16,-1.));
#325 = ORIENTED_EDGE('',*,*,#326,.T.);
#326 = EDGE_CURVE('',#318,#327,#329,.T.);
#327 = VERTEX_POINT('',#328);
#328 = CARTESIAN_POINT('',(18.,-1.5,2.));
#329 = LINE('',#330,#331);
#330 = CARTESIAN_POINT('',(18.,-1.5,73.99999999999));
#331 = VECTOR('',#332,1.);
#332 = DIRECTION('',(0.,-2.22044604925E-16,-1.));
#333 = ORIENTED_EDGE('',*,*,#334,.T.);
#334 = EDGE_CURVE('',#327,#335,#337,.T.);
#335 = VERTEX_POINT('',#336);
#336 = CARTESIAN_POINT('',(16.,-1.5,1.110223024625E-16));
#337 = CIRCLE('',#338,2.);
#338 = AXIS2_PLACEMENT_3D('',#339,#340,#341);
#339 = CARTESIAN_POINT('',(16.,-1.5,2.));
#340 = DIRECTION('',(-0.,1.,-2.22044604925E-16));
#341 = DIRECTION('',(0.,-2.22044604925E-16,-1.));
#342 = ORIENTED_EDGE('',*,*,#343,.T.);
#343 = EDGE_CURVE('',#335,#344,#346,.T.);
#344 = VERTEX_POINT('',#345);
#345 = CARTESIAN_POINT('',(-16.,-1.5,-1.110223024625E-16));
#346 = LINE('',#347,#348);
#347 = CARTESIAN_POINT('',(18.,-1.5,4.440892098501E-16));
#348 = VECTOR('',#349,1.);
#349 = DIRECTION('',(-1.,0.,0.));
#350 = ORIENTED_EDGE('',*,*,#351,.T.);
#351 = EDGE_CURVE('',#344,#352,#354,.T.);
#352 = VERTEX_POINT('',#353);
#353 = CARTESIAN_POINT('',(-18.,-1.5,2.));
#354 = CIRCLE('',#355,2.);
#355 = AXIS2_PLACEMENT_3D('',#356,#357,#358);
#356 = CARTESIAN_POINT('',(-16.,-1.5,2.));
#357 = DIRECTION('',(-0.,1.,-2.22044604925E-16));
#358 = DIRECTION('',(0.,-2.22044604925E-16,-1.));
#359 = ORIENTED_EDGE('',*,*,#360,.T.);
#360 = EDGE_CURVE('',#352,#361,#363,.T.);
#361 = VERTEX_POINT('',#362);
#362 = CARTESIAN_POINT('',(-18.,-1.5,72.));
#363 = LINE('',#364,#365);
#364 = CARTESIAN_POINT('',(-18.,-1.5,4.440892098501E-16));
#365 = VECTOR('',#366,1.);
#366 = DIRECTION('',(0.,2.22044604925E-16,1.));
#367 = ORIENTED_EDGE('',*,*,#368,.T.);
#368 = EDGE_CURVE('',#361,#369,#371,.T.);
#369 = VERTEX_POINT('',#370);
#370 = CARTESIAN_POINT('',(-20.,-1.5,74.));
#371 = CIRCLE('',#372,2.);
#372 = AXIS2_PLACEMENT_3D('',#373,#374,#375);
#373 = CARTESIAN_POINT('',(-20.,-1.5,72.));
#374 = DIRECTION('',(0.,-1.,2.22044604925E-16));
#375 = DIRECTION('',(0.,-2.22044604925E-16,-1.));
#376 = ORIENTED_EDGE('',*,*,#377,.T.);
#377 = EDGE_CURVE('',#369,#378,#380,.T.);
#378 = VERTEX_POINT('',#379);
#379 = CARTESIAN_POINT('',(-40.5,-1.5,74.));
#380 = LINE('',#381,#382);
#381 = CARTESIAN_POINT('',(-18.,-1.5,74.));
#382 = VECTOR('',#383,1.);
#383 = DIRECTION('',(-1.,0.,0.));
#384 = ORIENTED_EDGE('',*,*,#385,.T.);
#385 = EDGE_CURVE('',#378,#386,#388,.T.);
#386 = VERTEX_POINT('',#387);
#387 = CARTESIAN_POINT('',(-42.5,-1.5,76.));
#388 = CIRCLE('',#389,2.);
#389 = AXIS2_PLACEMENT_3D('',#390,#391,#392);
#390 = CARTESIAN_POINT('',(-40.5,-1.5,76.));
#391 = DIRECTION('',(-0.,1.,-2.22044604925E-16));
#392 = DIRECTION('',(0.,-2.22044604925E-16,-1.));
#393 = ORIENTED_EDGE('',*,*,#394,.T.);
#394 = EDGE_CURVE('',#386,#242,#395,.T.);
#395 = LINE('',#396,#397);
#396 = CARTESIAN_POINT('',(-42.5,-1.5,74.));
#397 = VECTOR('',#398,1.);
#398 = DIRECTION('',(0.,2.22044604925E-16,1.));
#399 = ORIENTED_EDGE('',*,*,#249,.F.);
#400 = FACE_BOUND('',#401,.F.);
#401 = EDGE_LOOP('',(#402));
#402 = ORIENTED_EDGE('',*,*,#403,.T.);
#403 = EDGE_CURVE('',#404,#404,#406,.T.);
#404 = VERTEX_POINT('',#405);
#405 = CARTESIAN_POINT('',(32.,-1.5,91.999999999995));
#406 = CIRCLE('',#407,4.5);
#407 = AXIS2_PLACEMENT_3D('',#408,#409,#410);
#408 = CARTESIAN_POINT('',(27.5,-1.5,91.999999999995));
#409 = DIRECTION('',(0.,-1.,2.22044604925E-16));
#410 = DIRECTION('',(1.,0.,0.));
#411 = FACE_BOUND('',#412,.F.);
#412 = EDGE_LOOP('',(#413));
#413 = ORIENTED_EDGE('',*,*,#414,.T.);
#414 = EDGE_CURVE('',#415,#415,#417,.T.);
#415 = VERTEX_POINT('',#416);
#416 = CARTESIAN_POINT('',(-23.,-1.5,91.999999999995));
#417 = CIRCLE('',#418,4.5);
#418 = AXIS2_PLACEMENT_3D('',#419,#420,#421);
#419 = CARTESIAN_POINT('',(-27.5,-1.5,91.999999999995));
#420 = DIRECTION('',(0.,-1.,2.22044604925E-16));
#421 = DIRECTION('',(1.,0.,0.));
#422 = FACE_BOUND('',#423,.F.);
#423 = EDGE_LOOP('',(#424));
#424 = ORIENTED_EDGE('',*,*,#425,.T.);
#425 = EDGE_CURVE('',#426,#426,#428,.T.);
#426 = VERTEX_POINT('',#427);
#427 = CARTESIAN_POINT('',(4.5,-1.5,50.));
#428 = CIRCLE('',#429,4.5);
#429 = AXIS2_PLACEMENT_3D('',#430,#431,#432);
#430 = CARTESIAN_POINT('',(0.,-1.5,50.));
#431 = DIRECTION('',(0.,-1.,2.22044604925E-16));
#432 = DIRECTION('',(1.,0.,0.));
#433 = FACE_BOUND('',#434,.F.);
#434 = EDGE_LOOP('',(#435));
#435 = ORIENTED_EDGE('',*,*,#436,.T.);
#436 = EDGE_CURVE('',#437,#437,#439,.T.);
#437 = VERTEX_POINT('',#438);
#438 = CARTESIAN_POINT('',(4.5,-1.5,20.));
#439 = CIRCLE('',#440,4.5);
#440 = AXIS2_PLACEMENT_3D('',#441,#442,#443);
#441 = CARTESIAN_POINT('',(0.,-1.5,20.));
#442 = DIRECTION('',(0.,-1.,2.22044604925E-16));
#443 = DIRECTION('',(1.,0.,0.));
#444 = PLANE('',#445);
#445 = AXIS2_PLACEMENT_3D('',#446,#447,#448);
#446 = CARTESIAN_POINT('',(5.030058205513E-13,-1.5,64.143185576326));
#447 = DIRECTION('',(0.,1.,-4.930380657631E-32));
#448 = DIRECTION('',(0.,4.930380657631E-32,1.));
#449 = ADVANCED_FACE('',(#450),#461,.T.);
#450 = FACE_BOUND('',#451,.T.);
#451 = EDGE_LOOP('',(#452,#453,#459,#460));
#452 = ORIENTED_EDGE('',*,*,#173,.F.);
#453 = ORIENTED_EDGE('',*,*,#454,.T.);
#454 = EDGE_CURVE('',#165,#386,#455,.T.);
#455 = LINE('',#456,#457);
#456 = CARTESIAN_POINT('',(-42.5,1.5,76.));
#457 = VECTOR('',#458,1.);
#458 = DIRECTION('',(0.,-1.,2.22044604925E-16));
#459 = ORIENTED_EDGE('',*,*,#394,.T.);
#460 = ORIENTED_EDGE('',*,*,#241,.F.);
#461 = PLANE('',#462);
#462 = AXIS2_PLACEMENT_3D('',#463,#464,#465);
#463 = CARTESIAN_POINT('',(-42.5,1.5,74.));
#464 = DIRECTION('',(-1.,0.,0.));
#465 = DIRECTION('',(0.,2.22044604925E-16,1.));
#466 = ADVANCED_FACE('',(#467),#478,.T.);
#467 = FACE_BOUND('',#468,.T.);
#468 = EDGE_LOOP('',(#469,#470,#471,#472));
#469 = ORIENTED_EDGE('',*,*,#71,.F.);
#470 = ORIENTED_EDGE('',*,*,#266,.T.);
#471 = ORIENTED_EDGE('',*,*,#292,.T.);
#472 = ORIENTED_EDGE('',*,*,#473,.F.);
#473 = EDGE_CURVE('',#72,#293,#474,.T.);
#474 = LINE('',#475,#476);
#475 = CARTESIAN_POINT('',(42.5,1.5,75.99999999999));
#476 = VECTOR('',#477,1.);
#477 = DIRECTION('',(0.,-1.,2.22044604925E-16));
#478 = PLANE('',#479);
#479 = AXIS2_PLACEMENT_3D('',#480,#481,#482);
#480 = CARTESIAN_POINT('',(42.5,1.5,110.));
#481 = DIRECTION('',(1.,0.,0.));
#482 = DIRECTION('',(0.,-2.22044604925E-16,-1.));
#483 = ADVANCED_FACE('',(#484),#495,.T.);
#484 = FACE_BOUND('',#485,.F.);
#485 = EDGE_LOOP('',(#486,#487,#488,#489));
#486 = ORIENTED_EDGE('',*,*,#164,.T.);
#487 = ORIENTED_EDGE('',*,*,#454,.T.);
#488 = ORIENTED_EDGE('',*,*,#385,.F.);
#489 = ORIENTED_EDGE('',*,*,#490,.F.);
#490 = EDGE_CURVE('',#157,#378,#491,.T.);
#491 = LINE('',#492,#493);
#492 = CARTESIAN_POINT('',(-40.5,1.5,74.));
#493 = VECTOR('',#494,1.);
#494 = DIRECTION('',(0.,-1.,2.22044604925E-16));
#495 = CYLINDRICAL_SURFACE('',#496,2.);
#496 = AXIS2_PLACEMENT_3D('',#497,#498,#499);
#497 = CARTESIAN_POINT('',(-40.5,1.5,76.));
#498 = DIRECTION('',(0.,-1.,2.22044604925E-16));
#499 = DIRECTION('',(0.,-2.22044604925E-16,-1.));
#500 = ADVANCED_FACE('',(#501),#512,.T.);
#501 = FACE_BOUND('',#502,.F.);
#502 = EDGE_LOOP('',(#503,#504,#510,#511));
#503 = ORIENTED_EDGE('',*,*,#79,.T.);
#504 = ORIENTED_EDGE('',*,*,#505,.T.);
#505 = EDGE_CURVE('',#80,#301,#506,.T.);
#506 = LINE('',#507,#508);
#507 = CARTESIAN_POINT('',(40.5,1.5,73.99999999999));
#508 = VECTOR('',#509,1.);
#509 = DIRECTION('',(0.,-1.,2.22044604925E-16));
#510 = ORIENTED_EDGE('',*,*,#300,.F.);
#511 = ORIENTED_EDGE('',*,*,#473,.F.);
#512 = CYLINDRICAL_SURFACE('',#513,2.);
#513 = AXIS2_PLACEMENT_3D('',#514,#515,#516);
#514 = CARTESIAN_POINT('',(40.5,1.5,75.99999999999));
#515 = DIRECTION('',(0.,-1.,2.22044604925E-16));
#516 = DIRECTION('',(1.,0.,0.));
#517 = ADVANCED_FACE('',(#518),#529,.T.);
#518 = FACE_BOUND('',#519,.T.);
#519 = EDGE_LOOP('',(#520,#521,#527,#528));
#520 = ORIENTED_EDGE('',*,*,#156,.F.);
#521 = ORIENTED_EDGE('',*,*,#522,.T.);
#522 = EDGE_CURVE('',#148,#369,#523,.T.);
#523 = LINE('',#524,#525);
#524 = CARTESIAN_POINT('',(-20.,1.5,74.));
#525 = VECTOR('',#526,1.);
#526 = DIRECTION('',(0.,-1.,2.22044604925E-16));
#527 = ORIENTED_EDGE('',*,*,#377,.T.);
#528 = ORIENTED_EDGE('',*,*,#490,.F.);
#529 = PLANE('',#530);
#530 = AXIS2_PLACEMENT_3D('',#531,#532,#533);
#531 = CARTESIAN_POINT('',(-18.,1.5,74.));
#532 = DIRECTION('',(0.,-2.22044604925E-16,-1.));
#533 = DIRECTION('',(-1.,0.,0.));
#534 = ADVANCED_FACE('',(#535),#546,.T.);
#535 = FACE_BOUND('',#536,.T.);
#536 = EDGE_LOOP('',(#537,#538,#539,#540));
#537 = ORIENTED_EDGE('',*,*,#88,.F.);
#538 = ORIENTED_EDGE('',*,*,#505,.T.);
#539 = ORIENTED_EDGE('',*,*,#309,.T.);
#540 = ORIENTED_EDGE('',*,*,#541,.F.);
#541 = EDGE_CURVE('',#89,#310,#542,.T.);
#542 = LINE('',#543,#544);
#543 = CARTESIAN_POINT('',(20.,1.5,73.99999999999));
#544 = VECTOR('',#545,1.);
#545 = DIRECTION('',(0.,-1.,2.22044604925E-16));
#546 = PLANE('',#547);
#547 = AXIS2_PLACEMENT_3D('',#548,#549,#550);
#548 = CARTESIAN_POINT('',(42.5,1.5,73.99999999999));
#549 = DIRECTION('',(0.,-2.22044604925E-16,-1.));
#550 = DIRECTION('',(-1.,0.,0.));
#551 = ADVANCED_FACE('',(#552),#563,.F.);
#552 = FACE_BOUND('',#553,.F.);
#553 = EDGE_LOOP('',(#554,#555,#556,#557));
#554 = ORIENTED_EDGE('',*,*,#147,.T.);
#555 = ORIENTED_EDGE('',*,*,#522,.T.);
#556 = ORIENTED_EDGE('',*,*,#368,.F.);
#557 = ORIENTED_EDGE('',*,*,#558,.F.);
#558 = EDGE_CURVE('',#140,#361,#559,.T.);
#559 = LINE('',#560,#561);
#560 = CARTESIAN_POINT('',(-18.,1.5,72.));
#561 = VECTOR('',#562,1.);
#562 = DIRECTION('',(0.,-1.,2.22044604925E-16));
#563 = CYLINDRICAL_SURFACE('',#564,2.);
#564 = AXIS2_PLACEMENT_3D('',#565,#566,#567);
#565 = CARTESIAN_POINT('',(-20.,1.5,72.));
#566 = DIRECTION('',(0.,-1.,2.22044604925E-16));
#567 = DIRECTION('',(1.,0.,0.));
#568 = ADVANCED_FACE('',(#569),#580,.F.);
#569 = FACE_BOUND('',#570,.F.);
#570 = EDGE_LOOP('',(#571,#572,#578,#579));
#571 = ORIENTED_EDGE('',*,*,#96,.T.);
#572 = ORIENTED_EDGE('',*,*,#573,.T.);
#573 = EDGE_CURVE('',#97,#318,#574,.T.);
#574 = LINE('',#575,#576);
#575 = CARTESIAN_POINT('',(18.,1.5,71.99999999999));
#576 = VECTOR('',#577,1.);
#577 = DIRECTION('',(0.,-1.,2.22044604925E-16));
#578 = ORIENTED_EDGE('',*,*,#317,.F.);
#579 = ORIENTED_EDGE('',*,*,#541,.F.);
#580 = CYLINDRICAL_SURFACE('',#581,2.);
#581 = AXIS2_PLACEMENT_3D('',#582,#583,#584);
#582 = CARTESIAN_POINT('',(20.,1.5,71.99999999999));
#583 = DIRECTION('',(0.,-1.,2.22044604925E-16));
#584 = DIRECTION('',(0.,2.22044604925E-16,1.));
#585 = ADVANCED_FACE('',(#586),#597,.T.);
#586 = FACE_BOUND('',#587,.T.);
#587 = EDGE_LOOP('',(#588,#589,#595,#596));
#588 = ORIENTED_EDGE('',*,*,#139,.F.);
#589 = ORIENTED_EDGE('',*,*,#590,.T.);
#590 = EDGE_CURVE('',#131,#352,#591,.T.);
#591 = LINE('',#592,#593);
#592 = CARTESIAN_POINT('',(-18.,1.5,2.));
#593 = VECTOR('',#594,1.);
#594 = DIRECTION('',(0.,-1.,2.22044604925E-16));
#595 = ORIENTED_EDGE('',*,*,#360,.T.);
#596 = ORIENTED_EDGE('',*,*,#558,.F.);
#597 = PLANE('',#598);
#598 = AXIS2_PLACEMENT_3D('',#599,#600,#601);
#599 = CARTESIAN_POINT('',(-18.,1.5,-3.330669073875E-16));
#600 = DIRECTION('',(-1.,0.,0.));
#601 = DIRECTION('',(0.,2.22044604925E-16,1.));
#602 = ADVANCED_FACE('',(#603),#614,.T.);
#603 = FACE_BOUND('',#604,.T.);
#604 = EDGE_LOOP('',(#605,#606,#607,#608));
#605 = ORIENTED_EDGE('',*,*,#105,.F.);
#606 = ORIENTED_EDGE('',*,*,#573,.T.);
#607 = ORIENTED_EDGE('',*,*,#326,.T.);
#608 = ORIENTED_EDGE('',*,*,#609,.F.);
#609 = EDGE_CURVE('',#106,#327,#610,.T.);
#610 = LINE('',#611,#612);
#611 = CARTESIAN_POINT('',(18.,1.5,2.));
#612 = VECTOR('',#613,1.);
#613 = DIRECTION('',(0.,-1.,2.22044604925E-16));
#614 = PLANE('',#615);
#615 = AXIS2_PLACEMENT_3D('',#616,#617,#618);
#616 = CARTESIAN_POINT('',(18.,1.5,73.99999999999));
#617 = DIRECTION('',(1.,0.,0.));
#618 = DIRECTION('',(0.,-2.22044604925E-16,-1.));
#619 = ADVANCED_FACE('',(#620),#631,.T.);
#620 = FACE_BOUND('',#621,.F.);
#621 = EDGE_LOOP('',(#622,#623,#624,#625));
#622 = ORIENTED_EDGE('',*,*,#130,.T.);
#623 = ORIENTED_EDGE('',*,*,#590,.T.);
#624 = ORIENTED_EDGE('',*,*,#351,.F.);
#625 = ORIENTED_EDGE('',*,*,#626,.F.);
#626 = EDGE_CURVE('',#123,#344,#627,.T.);
#627 = LINE('',#628,#629);
#628 = CARTESIAN_POINT('',(-16.,1.5,-7.771561172376E-16));
#629 = VECTOR('',#630,1.);
#630 = DIRECTION('',(0.,-1.,2.22044604925E-16));
#631 = CYLINDRICAL_SURFACE('',#632,2.);
#632 = AXIS2_PLACEMENT_3D('',#633,#634,#635);
#633 = CARTESIAN_POINT('',(-16.,1.5,2.));
#634 = DIRECTION('',(0.,-1.,2.22044604925E-16));
#635 = DIRECTION('',(0.,-2.22044604925E-16,-1.));
#636 = ADVANCED_FACE('',(#637),#648,.T.);
#637 = FACE_BOUND('',#638,.F.);
#638 = EDGE_LOOP('',(#639,#640,#646,#647));
#639 = ORIENTED_EDGE('',*,*,#113,.T.);
#640 = ORIENTED_EDGE('',*,*,#641,.T.);
#641 = EDGE_CURVE('',#114,#335,#642,.T.);
#642 = LINE('',#643,#644);
#643 = CARTESIAN_POINT('',(16.,1.5,-5.551115123126E-16));
#644 = VECTOR('',#645,1.);
#645 = DIRECTION('',(0.,-1.,2.22044604925E-16));
#646 = ORIENTED_EDGE('',*,*,#334,.F.);
#647 = ORIENTED_EDGE('',*,*,#609,.F.);
#648 = CYLINDRICAL_SURFACE('',#649,2.);
#649 = AXIS2_PLACEMENT_3D('',#650,#651,#652);
#650 = CARTESIAN_POINT('',(16.,1.5,2.));
#651 = DIRECTION('',(0.,-1.,2.22044604925E-16));
#652 = DIRECTION('',(1.,0.,0.));
#653 = ADVANCED_FACE('',(#654),#660,.T.);
#654 = FACE_BOUND('',#655,.T.);
#655 = EDGE_LOOP('',(#656,#657,#658,#659));
#656 = ORIENTED_EDGE('',*,*,#122,.F.);
#657 = ORIENTED_EDGE('',*,*,#641,.T.);
#658 = ORIENTED_EDGE('',*,*,#343,.T.);
#659 = ORIENTED_EDGE('',*,*,#626,.F.);
#660 = PLANE('',#661);
#661 = AXIS2_PLACEMENT_3D('',#662,#663,#664);
#662 = CARTESIAN_POINT('',(18.,1.5,-3.330669073875E-16));
#663 = DIRECTION('',(0.,-2.22044604925E-16,-1.));
#664 = DIRECTION('',(-1.,0.,0.));
#665 = ADVANCED_FACE('',(#666),#677,.F.);
#666 = FACE_BOUND('',#667,.T.);
#667 = EDGE_LOOP('',(#668,#674,#675,#676));
#668 = ORIENTED_EDGE('',*,*,#669,.T.);
#669 = EDGE_CURVE('',#191,#404,#670,.T.);
#670 = LINE('',#671,#672);
#671 = CARTESIAN_POINT('',(32.,1.5,91.999999999995));
#672 = VECTOR('',#673,1.);
#673 = DIRECTION('',(0.,-1.,2.22044604925E-16));
#674 = ORIENTED_EDGE('',*,*,#403,.T.);
#675 = ORIENTED_EDGE('',*,*,#669,.F.);
#676 = ORIENTED_EDGE('',*,*,#190,.F.);
#677 = CYLINDRICAL_SURFACE('',#678,4.5);
#678 = AXIS2_PLACEMENT_3D('',#679,#680,#681);
#679 = CARTESIAN_POINT('',(27.5,1.5,91.999999999995));
#680 = DIRECTION('',(0.,1.,-2.22044604925E-16));
#681 = DIRECTION('',(1.,0.,0.));
#682 = ADVANCED_FACE('',(#683),#694,.F.);
#683 = FACE_BOUND('',#684,.T.);
#684 = EDGE_LOOP('',(#685,#691,#692,#693));
#685 = ORIENTED_EDGE('',*,*,#686,.T.);
#686 = EDGE_CURVE('',#202,#415,#687,.T.);
#687 = LINE('',#688,#689);
#688 = CARTESIAN_POINT('',(-23.,1.5,91.999999999995));
#689 = VECTOR('',#690,1.);
#690 = DIRECTION('',(0.,-1.,2.22044604925E-16));
#691 = ORIENTED_EDGE('',*,*,#414,.T.);
#692 = ORIENTED_EDGE('',*,*,#686,.F.);
#693 = ORIENTED_EDGE('',*,*,#201,.F.);
#694 = CYLINDRICAL_SURFACE('',#695,4.5);
#695 = AXIS2_PLACEMENT_3D('',#696,#697,#698);
#696 = CARTESIAN_POINT('',(-27.5,1.5,91.999999999995));
#697 = DIRECTION('',(0.,1.,-2.22044604925E-16));
#698 = DIRECTION('',(1.,0.,0.));
#699 = ADVANCED_FACE('',(#700),#711,.F.);
#700 = FACE_BOUND('',#701,.T.);
#701 = EDGE_LOOP('',(#702,#708,#709,#710));
#702 = ORIENTED_EDGE('',*,*,#703,.T.);
#703 = EDGE_CURVE('',#213,#426,#704,.T.);
#704 = LINE('',#705,#706);
#705 = CARTESIAN_POINT('',(4.5,1.5,50.));
#706 = VECTOR('',#707,1.);
#707 = DIRECTION('',(0.,-1.,2.22044604925E-16));
#708 = ORIENTED_EDGE('',*,*,#425,.T.);
#709 = ORIENTED_EDGE('',*,*,#703,.F.);
#710 = ORIENTED_EDGE('',*,*,#212,.F.);
#711 = CYLINDRICAL_SURFACE('',#712,4.5);
#712 = AXIS2_PLACEMENT_3D('',#713,#714,#715);
#713 = CARTESIAN_POINT('',(0.,1.5,50.));
#714 = DIRECTION('',(0.,1.,-2.22044604925E-16));
#715 = DIRECTION('',(1.,0.,0.));
#716 = ADVANCED_FACE('',(#717),#728,.F.);
#717 = FACE_BOUND('',#718,.T.);
#718 = EDGE_LOOP('',(#719,#725,#726,#727));
#719 = ORIENTED_EDGE('',*,*,#720,.T.);
#720 = EDGE_CURVE('',#224,#437,#721,.T.);
#721 = LINE('',#722,#723);
#722 = CARTESIAN_POINT('',(4.5,1.5,20.));
#723 = VECTOR('',#724,1.);
#724 = DIRECTION('',(0.,-1.,2.22044604925E-16));
#725 = ORIENTED_EDGE('',*,*,#436,.T.);
#726 = ORIENTED_EDGE('',*,*,#720,.F.);
#727 = ORIENTED_EDGE('',*,*,#223,.F.);
#728 = CYLINDRICAL_SURFACE('',#729,4.5);
#729 = AXIS2_PLACEMENT_3D('',#730,#731,#732);
#730 = CARTESIAN_POINT('',(0.,1.5,20.));
#731 = DIRECTION('',(0.,1.,-2.22044604925E-16));
#732 = DIRECTION('',(1.,0.,0.));
#733 = ( GEOMETRIC_REPRESENTATION_CONTEXT(3) 
GLOBAL_UNCERTAINTY_ASSIGNED_CONTEXT((#737)) GLOBAL_UNIT_ASSIGNED_CONTEXT
((#734,#735,#736)) REPRESENTATION_CONTEXT('Context #1',
  '3D Context with UNIT and UNCERTAINTY') );
#734 = ( LENGTH_UNIT() NAMED_UNIT(*) SI_UNIT(.MILLI.,.METRE.) );
#735 = ( NAMED_UNIT(*) PLANE_ANGLE_UNIT() SI_UNIT($,.RADIAN.) );
#736 = ( NAMED_UNIT(*) SI_UNIT($,.STERADIAN.) SOLID_ANGLE_UNIT() );
#737 = UNCERTAINTY_MEASURE_WITH_UNIT(LENGTH_MEASURE(1.E-07),#734,
  'distance_accuracy_value','confusion accuracy');
#738 = PRODUCT_RELATED_PRODUCT_CATEGORY('part',$,(#7));
#739 = MECHANICAL_DESIGN_GEOMETRIC_PRESENTATION_REPRESENTATION('',(#740)
  ,#733);
#740 = STYLED_ITEM('color',(#741),#15);
#741 = PRESENTATION_STYLE_ASSIGNMENT((#742,#748));
#742 = SURFACE_STYLE_USAGE(.BOTH.,#743);
#743 = SURFACE_SIDE_STYLE('',(#744));
#744 = SURFACE_STYLE_FILL_AREA(#745);
#745 = FILL_AREA_STYLE('',(#746));
#746 = FILL_AREA_STYLE_COLOUR('',#747);
#747 = COLOUR_RGB('',0.678430976034,0.709803998361,0.741176010593);
#748 = CURVE_STYLE('',#749,POSITIVE_LENGTH_MEASURE(0.1),#750);
#749 = DRAUGHTING_PRE_DEFINED_CURVE_FONT('continuous');
#750 = COLOUR_RGB('',9.803921802644E-02,9.803921802644E-02,
  9.803921802644E-02);
ENDSEC;
END-ISO-10303-21;
