ISO-10303-21;
HEADER;
FILE_DESCRIPTION(('FreeCAD Model'),'2;1');
FILE_NAME('Open CASCADE Shape Model','2025-12-06T02:56:41',('Author'),(
    ''),'Open CASCADE STEP processor 7.8','FreeCAD','Unknown');
FILE_SCHEMA(('AUTOMOTIVE_DESIGN { 1 0 10303 214 1 1 1 1 }'));
ENDSEC;
DATA;
#1 = APPLICATION_PROTOCOL_DEFINITION('international standard',
  'automotive_design',2000,#2);
#2 = APPLICATION_CONTEXT(
  'core data for automotive mechanical design processes');
#3 = SHAPE_DEFINITION_REPRESENTATION(#4,#10);
#4 = PRODUCT_DEFINITION_SHAPE('','',#5);
#5 = PRODUCT_DEFINITION('design','',#6,#9);
#6 = PRODUCT_DEFINITION_FORMATION('','',#7);
#7 = PRODUCT('Body','Body','',(#8));
#8 = PRODUCT_CONTEXT('',#2,'mechanical');
#9 = PRODUCT_DEFINITION_CONTEXT('part definition',#2,'design');
#10 = ADVANCED_BREP_SHAPE_REPRESENTATION('',(#11,#15),#1609);
#11 = AXIS2_PLACEMENT_3D('',#12,#13,#14);
#12 = CARTESIAN_POINT('',(0.,0.,0.));
#13 = DIRECTION('',(0.,0.,1.));
#14 = DIRECTION('',(1.,0.,-0.));
#15 = MANIFOLD_SOLID_BREP('',#16);
#16 = CLOSED_SHELL('',(#17,#269,#381,#406,#430,#477,#582,#598,#623,#661,
    #685,#710,#735,#759,#864,#889,#913,#937,#1042,#1067,#1085,#1109,
    #1127,#1143,#1168,#1193,#1218,#1243,#1273,#1285,#1307,#1324,#1341,
    #1353,#1375,#1392,#1409,#1421,#1433,#1461,#1473,#1495,#1512,#1529,
    #1541,#1563,#1580,#1597));
#17 = ADVANCED_FACE('',(#18,#220,#231,#242,#253),#264,.T.);
#18 = FACE_BOUND('',#19,.T.);
#19 = EDGE_LOOP('',(#20,#30,#39,#47,#55,#63,#72,#80,#89,#97,#106,#114,
    #123,#131,#139,#147,#156,#164,#172,#180,#189,#197,#206,#214));
#20 = ORIENTED_EDGE('',*,*,#21,.F.);
#21 = EDGE_CURVE('',#22,#24,#26,.T.);
#22 = VERTEX_POINT('',#23);
#23 = CARTESIAN_POINT('',(-24.1,16.6,3.6));
#24 = VERTEX_POINT('',#25);
#25 = CARTESIAN_POINT('',(-24.1,-20.,3.6));
#26 = LINE('',#27,#28);
#27 = CARTESIAN_POINT('',(-24.1,23.6,3.6));
#28 = VECTOR('',#29,1.);
#29 = DIRECTION('',(0.,-1.,0.));
#30 = ORIENTED_EDGE('',*,*,#31,.T.);
#31 = EDGE_CURVE('',#22,#32,#34,.T.);
#32 = VERTEX_POINT('',#33);
#33 = CARTESIAN_POINT('',(-17.1,23.6,3.6));
#34 = CIRCLE('',#35,7.);
#35 = AXIS2_PLACEMENT_3D('',#36,#37,#38);
#36 = CARTESIAN_POINT('',(-17.1,16.6,3.6));
#37 = DIRECTION('',(-0.,-0.,-1.));
#38 = DIRECTION('',(0.,-1.,0.));
#39 = ORIENTED_EDGE('',*,*,#40,.F.);
#40 = EDGE_CURVE('',#41,#32,#43,.T.);
#41 = VERTEX_POINT('',#42);
#42 = CARTESIAN_POINT('',(0.,23.6,3.6));
#43 = LINE('',#44,#45);
#44 = CARTESIAN_POINT('',(24.1,23.6,3.6));
#45 = VECTOR('',#46,1.);
#46 = DIRECTION('',(-1.,0.,0.));
#47 = ORIENTED_EDGE('',*,*,#48,.F.);
#48 = EDGE_CURVE('',#49,#41,#51,.T.);
#49 = VERTEX_POINT('',#50);
#50 = CARTESIAN_POINT('',(0.,50.,3.6));
#51 = LINE('',#52,#53);
#52 = CARTESIAN_POINT('',(0.,50.,3.6));
#53 = VECTOR('',#54,1.);
#54 = DIRECTION('',(0.,-1.,2.186802927292E-16));
#55 = ORIENTED_EDGE('',*,*,#56,.T.);
#56 = EDGE_CURVE('',#49,#57,#59,.T.);
#57 = VERTEX_POINT('',#58);
#58 = CARTESIAN_POINT('',(-45.,50.,3.6));
#59 = LINE('',#60,#61);
#60 = CARTESIAN_POINT('',(50.,50.,3.6));
#61 = VECTOR('',#62,1.);
#62 = DIRECTION('',(-1.,0.,0.));
#63 = ORIENTED_EDGE('',*,*,#64,.F.);
#64 = EDGE_CURVE('',#65,#57,#67,.T.);
#65 = VERTEX_POINT('',#66);
#66 = CARTESIAN_POINT('',(-50.,45.,3.6));
#67 = CIRCLE('',#68,5.);
#68 = AXIS2_PLACEMENT_3D('',#69,#70,#71);
#69 = CARTESIAN_POINT('',(-45.,45.,3.6));
#70 = DIRECTION('',(-0.,-0.,-1.));
#71 = DIRECTION('',(0.,-1.,0.));
#72 = ORIENTED_EDGE('',*,*,#73,.T.);
#73 = EDGE_CURVE('',#65,#74,#76,.T.);
#74 = VERTEX_POINT('',#75);
#75 = CARTESIAN_POINT('',(-50.,-45.,3.6));
#76 = LINE('',#77,#78);
#77 = CARTESIAN_POINT('',(-50.,50.,3.6));
#78 = VECTOR('',#79,1.);
#79 = DIRECTION('',(0.,-1.,0.));
#80 = ORIENTED_EDGE('',*,*,#81,.T.);
#81 = EDGE_CURVE('',#74,#82,#84,.T.);
#82 = VERTEX_POINT('',#83);
#83 = CARTESIAN_POINT('',(-45.,-50.,3.6));
#84 = CIRCLE('',#85,5.);
#85 = AXIS2_PLACEMENT_3D('',#86,#87,#88);
#86 = CARTESIAN_POINT('',(-45.,-45.,3.6));
#87 = DIRECTION('',(-0.,0.,1.));
#88 = DIRECTION('',(0.,-1.,0.));
#89 = ORIENTED_EDGE('',*,*,#90,.T.);
#90 = EDGE_CURVE('',#82,#91,#93,.T.);
#91 = VERTEX_POINT('',#92);
#92 = CARTESIAN_POINT('',(45.,-50.,3.6));
#93 = LINE('',#94,#95);
#94 = CARTESIAN_POINT('',(-50.,-50.,3.6));
#95 = VECTOR('',#96,1.);
#96 = DIRECTION('',(1.,0.,0.));
#97 = ORIENTED_EDGE('',*,*,#98,.T.);
#98 = EDGE_CURVE('',#91,#99,#101,.T.);
#99 = VERTEX_POINT('',#100);
#100 = CARTESIAN_POINT('',(50.,-45.,3.6));
#101 = CIRCLE('',#102,5.);
#102 = AXIS2_PLACEMENT_3D('',#103,#104,#105);
#103 = CARTESIAN_POINT('',(45.,-45.,3.6));
#104 = DIRECTION('',(-0.,0.,1.));
#105 = DIRECTION('',(0.,-1.,0.));
#106 = ORIENTED_EDGE('',*,*,#107,.T.);
#107 = EDGE_CURVE('',#99,#108,#110,.T.);
#108 = VERTEX_POINT('',#109);
#109 = CARTESIAN_POINT('',(50.,45.,3.6));
#110 = LINE('',#111,#112);
#111 = CARTESIAN_POINT('',(50.,-50.,3.6));
#112 = VECTOR('',#113,1.);
#113 = DIRECTION('',(0.,1.,0.));
#114 = ORIENTED_EDGE('',*,*,#115,.F.);
#115 = EDGE_CURVE('',#116,#108,#118,.T.);
#116 = VERTEX_POINT('',#117);
#117 = CARTESIAN_POINT('',(45.,50.,3.6));
#118 = CIRCLE('',#119,5.);
#119 = AXIS2_PLACEMENT_3D('',#120,#121,#122);
#120 = CARTESIAN_POINT('',(45.,45.,3.6));
#121 = DIRECTION('',(-0.,-0.,-1.));
#122 = DIRECTION('',(0.,-1.,0.));
#123 = ORIENTED_EDGE('',*,*,#124,.T.);
#124 = EDGE_CURVE('',#116,#125,#127,.T.);
#125 = VERTEX_POINT('',#126);
#126 = CARTESIAN_POINT('',(3.6,50.,3.6));
#127 = LINE('',#128,#129);
#128 = CARTESIAN_POINT('',(50.,50.,3.6));
#129 = VECTOR('',#130,1.);
#130 = DIRECTION('',(-1.,0.,0.));
#131 = ORIENTED_EDGE('',*,*,#132,.T.);
#132 = EDGE_CURVE('',#125,#133,#135,.T.);
#133 = VERTEX_POINT('',#134);
#134 = CARTESIAN_POINT('',(3.6,23.6,3.6));
#135 = LINE('',#136,#137);
#136 = CARTESIAN_POINT('',(3.6,50.,3.6));
#137 = VECTOR('',#138,1.);
#138 = DIRECTION('',(0.,-1.,2.186802927292E-16));
#139 = ORIENTED_EDGE('',*,*,#140,.F.);
#140 = EDGE_CURVE('',#141,#133,#143,.T.);
#141 = VERTEX_POINT('',#142);
#142 = CARTESIAN_POINT('',(17.1,23.6,3.6));
#143 = LINE('',#144,#145);
#144 = CARTESIAN_POINT('',(24.1,23.6,3.6));
#145 = VECTOR('',#146,1.);
#146 = DIRECTION('',(-1.,0.,0.));
#147 = ORIENTED_EDGE('',*,*,#148,.T.);
#148 = EDGE_CURVE('',#141,#149,#151,.T.);
#149 = VERTEX_POINT('',#150);
#150 = CARTESIAN_POINT('',(24.1,16.6,3.6));
#151 = CIRCLE('',#152,7.);
#152 = AXIS2_PLACEMENT_3D('',#153,#154,#155);
#153 = CARTESIAN_POINT('',(17.1,16.6,3.6));
#154 = DIRECTION('',(-0.,-0.,-1.));
#155 = DIRECTION('',(0.,-1.,0.));
#156 = ORIENTED_EDGE('',*,*,#157,.F.);
#157 = EDGE_CURVE('',#158,#149,#160,.T.);
#158 = VERTEX_POINT('',#159);
#159 = CARTESIAN_POINT('',(24.1,-20.,3.6));
#160 = LINE('',#161,#162);
#161 = CARTESIAN_POINT('',(24.1,-20.,3.6));
#162 = VECTOR('',#163,1.);
#163 = DIRECTION('',(0.,1.,0.));
#164 = ORIENTED_EDGE('',*,*,#165,.F.);
#165 = EDGE_CURVE('',#166,#158,#168,.T.);
#166 = VERTEX_POINT('',#167);
#167 = CARTESIAN_POINT('',(20.5,-20.,3.6));
#168 = LINE('',#169,#170);
#169 = CARTESIAN_POINT('',(20.5,-20.,3.6));
#170 = VECTOR('',#171,1.);
#171 = DIRECTION('',(1.,0.,0.));
#172 = ORIENTED_EDGE('',*,*,#173,.F.);
#173 = EDGE_CURVE('',#174,#166,#176,.T.);
#174 = VERTEX_POINT('',#175);
#175 = CARTESIAN_POINT('',(20.5,16.,3.6));
#176 = LINE('',#177,#178);
#177 = CARTESIAN_POINT('',(20.5,20.,3.6));
#178 = VECTOR('',#179,1.);
#179 = DIRECTION('',(0.,-1.,0.));
#180 = ORIENTED_EDGE('',*,*,#181,.F.);
#181 = EDGE_CURVE('',#182,#174,#184,.T.);
#182 = VERTEX_POINT('',#183);
#183 = CARTESIAN_POINT('',(16.5,20.,3.6));
#184 = CIRCLE('',#185,4.);
#185 = AXIS2_PLACEMENT_3D('',#186,#187,#188);
#186 = CARTESIAN_POINT('',(16.5,16.,3.6));
#187 = DIRECTION('',(-0.,-0.,-1.));
#188 = DIRECTION('',(0.,-1.,0.));
#189 = ORIENTED_EDGE('',*,*,#190,.F.);
#190 = EDGE_CURVE('',#191,#182,#193,.T.);
#191 = VERTEX_POINT('',#192);
#192 = CARTESIAN_POINT('',(-16.5,20.,3.6));
#193 = LINE('',#194,#195);
#194 = CARTESIAN_POINT('',(-20.5,20.,3.6));
#195 = VECTOR('',#196,1.);
#196 = DIRECTION('',(1.,0.,0.));
#197 = ORIENTED_EDGE('',*,*,#198,.F.);
#198 = EDGE_CURVE('',#199,#191,#201,.T.);
#199 = VERTEX_POINT('',#200);
#200 = CARTESIAN_POINT('',(-20.5,16.,3.6));
#201 = CIRCLE('',#202,4.);
#202 = AXIS2_PLACEMENT_3D('',#203,#204,#205);
#203 = CARTESIAN_POINT('',(-16.5,16.,3.6));
#204 = DIRECTION('',(-0.,-0.,-1.));
#205 = DIRECTION('',(0.,-1.,0.));
#206 = ORIENTED_EDGE('',*,*,#207,.F.);
#207 = EDGE_CURVE('',#208,#199,#210,.T.);
#208 = VERTEX_POINT('',#209);
#209 = CARTESIAN_POINT('',(-20.5,-20.,3.6));
#210 = LINE('',#211,#212);
#211 = CARTESIAN_POINT('',(-20.5,-20.,3.6));
#212 = VECTOR('',#213,1.);
#213 = DIRECTION('',(0.,1.,0.));
#214 = ORIENTED_EDGE('',*,*,#215,.F.);
#215 = EDGE_CURVE('',#24,#208,#216,.T.);
#216 = LINE('',#217,#218);
#217 = CARTESIAN_POINT('',(-24.1,-20.,3.6));
#218 = VECTOR('',#219,1.);
#219 = DIRECTION('',(1.,0.,0.));
#220 = FACE_BOUND('',#221,.T.);
#221 = EDGE_LOOP('',(#222));
#222 = ORIENTED_EDGE('',*,*,#223,.F.);
#223 = EDGE_CURVE('',#224,#224,#226,.T.);
#224 = VERTEX_POINT('',#225);
#225 = CARTESIAN_POINT('',(-30.6,-37.5,3.6));
#226 = CIRCLE('',#227,6.9);
#227 = AXIS2_PLACEMENT_3D('',#228,#229,#230);
#228 = CARTESIAN_POINT('',(-37.5,-37.5,3.6));
#229 = DIRECTION('',(0.,0.,1.));
#230 = DIRECTION('',(1.,0.,0.));
#231 = FACE_BOUND('',#232,.T.);
#232 = EDGE_LOOP('',(#233));
#233 = ORIENTED_EDGE('',*,*,#234,.F.);
#234 = EDGE_CURVE('',#235,#235,#237,.T.);
#235 = VERTEX_POINT('',#236);
#236 = CARTESIAN_POINT('',(44.4,-37.5,3.6));
#237 = CIRCLE('',#238,6.9);
#238 = AXIS2_PLACEMENT_3D('',#239,#240,#241);
#239 = CARTESIAN_POINT('',(37.5,-37.5,3.6));
#240 = DIRECTION('',(0.,0.,1.));
#241 = DIRECTION('',(1.,0.,0.));
#242 = FACE_BOUND('',#243,.T.);
#243 = EDGE_LOOP('',(#244));
#244 = ORIENTED_EDGE('',*,*,#245,.F.);
#245 = EDGE_CURVE('',#246,#246,#248,.T.);
#246 = VERTEX_POINT('',#247);
#247 = CARTESIAN_POINT('',(-30.6,37.5,3.6));
#248 = CIRCLE('',#249,6.9);
#249 = AXIS2_PLACEMENT_3D('',#250,#251,#252);
#250 = CARTESIAN_POINT('',(-37.5,37.5,3.6));
#251 = DIRECTION('',(0.,0.,1.));
#252 = DIRECTION('',(1.,0.,0.));
#253 = FACE_BOUND('',#254,.T.);
#254 = EDGE_LOOP('',(#255));
#255 = ORIENTED_EDGE('',*,*,#256,.F.);
#256 = EDGE_CURVE('',#257,#257,#259,.T.);
#257 = VERTEX_POINT('',#258);
#258 = CARTESIAN_POINT('',(44.4,37.5,3.6));
#259 = CIRCLE('',#260,6.9);
#260 = AXIS2_PLACEMENT_3D('',#261,#262,#263);
#261 = CARTESIAN_POINT('',(37.5,37.5,3.6));
#262 = DIRECTION('',(0.,0.,1.));
#263 = DIRECTION('',(1.,0.,0.));
#264 = PLANE('',#265);
#265 = AXIS2_PLACEMENT_3D('',#266,#267,#268);
#266 = CARTESIAN_POINT('',(-6.79927925876E-16,-2.458200962782E-15,3.6));
#267 = DIRECTION('',(0.,0.,1.));
#268 = DIRECTION('',(1.,0.,0.));
#269 = ADVANCED_FACE('',(#270,#304,#340),#376,.F.);
#270 = FACE_BOUND('',#271,.F.);
#271 = EDGE_LOOP('',(#272,#282,#291,#297,#298));
#272 = ORIENTED_EDGE('',*,*,#273,.T.);
#273 = EDGE_CURVE('',#274,#276,#278,.T.);
#274 = VERTEX_POINT('',#275);
#275 = CARTESIAN_POINT('',(-24.1,16.6,118.6));
#276 = VERTEX_POINT('',#277);
#277 = CARTESIAN_POINT('',(-24.1,-16.,118.6));
#278 = LINE('',#279,#280);
#279 = CARTESIAN_POINT('',(-24.1,23.6,118.6));
#280 = VECTOR('',#281,1.);
#281 = DIRECTION('',(0.,-1.,0.));
#282 = ORIENTED_EDGE('',*,*,#283,.F.);
#283 = EDGE_CURVE('',#284,#276,#286,.T.);
#284 = VERTEX_POINT('',#285);
#285 = CARTESIAN_POINT('',(-24.1,-20.,114.6));
#286 = CIRCLE('',#287,4.);
#287 = AXIS2_PLACEMENT_3D('',#288,#289,#290);
#288 = CARTESIAN_POINT('',(-24.1,-16.,114.6));
#289 = DIRECTION('',(-1.,0.,0.));
#290 = DIRECTION('',(0.,0.,1.));
#291 = ORIENTED_EDGE('',*,*,#292,.F.);
#292 = EDGE_CURVE('',#24,#284,#293,.T.);
#293 = LINE('',#294,#295);
#294 = CARTESIAN_POINT('',(-24.1,-20.,3.6));
#295 = VECTOR('',#296,1.);
#296 = DIRECTION('',(0.,0.,1.));
#297 = ORIENTED_EDGE('',*,*,#21,.F.);
#298 = ORIENTED_EDGE('',*,*,#299,.T.);
#299 = EDGE_CURVE('',#22,#274,#300,.T.);
#300 = LINE('',#301,#302);
#301 = CARTESIAN_POINT('',(-24.1,16.6,3.6));
#302 = VECTOR('',#303,1.);
#303 = DIRECTION('',(0.,0.,1.));
#304 = FACE_BOUND('',#305,.F.);
#305 = EDGE_LOOP('',(#306,#317,#325,#334));
#306 = ORIENTED_EDGE('',*,*,#307,.F.);
#307 = EDGE_CURVE('',#308,#310,#312,.T.);
#308 = VERTEX_POINT('',#309);
#309 = CARTESIAN_POINT('',(-24.1,4.9,95.));
#310 = VERTEX_POINT('',#311);
#311 = CARTESIAN_POINT('',(-24.1,-4.9,95.));
#312 = CIRCLE('',#313,4.9);
#313 = AXIS2_PLACEMENT_3D('',#314,#315,#316);
#314 = CARTESIAN_POINT('',(-24.1,-3.67341984632E-40,95.));
#315 = DIRECTION('',(1.,0.,0.));
#316 = DIRECTION('',(0.,1.,0.));
#317 = ORIENTED_EDGE('',*,*,#318,.T.);
#318 = EDGE_CURVE('',#308,#319,#321,.T.);
#319 = VERTEX_POINT('',#320);
#320 = CARTESIAN_POINT('',(-24.1,4.9,85.));
#321 = LINE('',#322,#323);
#322 = CARTESIAN_POINT('',(-24.1,4.9,49.3));
#323 = VECTOR('',#324,1.);
#324 = DIRECTION('',(0.,0.,-1.));
#325 = ORIENTED_EDGE('',*,*,#326,.F.);
#326 = EDGE_CURVE('',#327,#319,#329,.T.);
#327 = VERTEX_POINT('',#328);
#328 = CARTESIAN_POINT('',(-24.1,-4.9,85.));
#329 = CIRCLE('',#330,4.9);
#330 = AXIS2_PLACEMENT_3D('',#331,#332,#333);
#331 = CARTESIAN_POINT('',(-24.1,-1.139123788785E-16,85.));
#332 = DIRECTION('',(1.,0.,0.));
#333 = DIRECTION('',(0.,1.,0.));
#334 = ORIENTED_EDGE('',*,*,#335,.F.);
#335 = EDGE_CURVE('',#310,#327,#336,.T.);
#336 = LINE('',#337,#338);
#337 = CARTESIAN_POINT('',(-24.1,-4.9,49.3));
#338 = VECTOR('',#339,1.);
#339 = DIRECTION('',(0.,0.,-1.));
#340 = FACE_BOUND('',#341,.F.);
#341 = EDGE_LOOP('',(#342,#353,#361,#370));
#342 = ORIENTED_EDGE('',*,*,#343,.F.);
#343 = EDGE_CURVE('',#344,#346,#348,.T.);
#344 = VERTEX_POINT('',#345);
#345 = CARTESIAN_POINT('',(-24.1,4.9,40.));
#346 = VERTEX_POINT('',#347);
#347 = CARTESIAN_POINT('',(-24.1,-4.9,40.));
#348 = CIRCLE('',#349,4.9);
#349 = AXIS2_PLACEMENT_3D('',#350,#351,#352);
#350 = CARTESIAN_POINT('',(-24.1,0.,40.));
#351 = DIRECTION('',(1.,0.,0.));
#352 = DIRECTION('',(0.,1.,0.));
#353 = ORIENTED_EDGE('',*,*,#354,.T.);
#354 = EDGE_CURVE('',#344,#355,#357,.T.);
#355 = VERTEX_POINT('',#356);
#356 = CARTESIAN_POINT('',(-24.1,4.9,30.));
#357 = LINE('',#358,#359);
#358 = CARTESIAN_POINT('',(-24.1,4.9,21.8));
#359 = VECTOR('',#360,1.);
#360 = DIRECTION('',(0.,0.,-1.));
#361 = ORIENTED_EDGE('',*,*,#362,.F.);
#362 = EDGE_CURVE('',#363,#355,#365,.T.);
#363 = VERTEX_POINT('',#364);
#364 = CARTESIAN_POINT('',(-24.1,-4.9,30.));
#365 = CIRCLE('',#366,4.9);
#366 = AXIS2_PLACEMENT_3D('',#367,#368,#369);
#367 = CARTESIAN_POINT('',(-24.1,7.733039311279E-17,30.));
#368 = DIRECTION('',(1.,0.,0.));
#369 = DIRECTION('',(0.,1.,0.));
#370 = ORIENTED_EDGE('',*,*,#371,.F.);
#371 = EDGE_CURVE('',#346,#363,#372,.T.);
#372 = LINE('',#373,#374);
#373 = CARTESIAN_POINT('',(-24.1,-4.9,21.8));
#374 = VECTOR('',#375,1.);
#375 = DIRECTION('',(0.,0.,-1.));
#376 = PLANE('',#377);
#377 = AXIS2_PLACEMENT_3D('',#378,#379,#380);
#378 = CARTESIAN_POINT('',(-24.1,23.6,3.6));
#379 = DIRECTION('',(1.,0.,0.));
#380 = DIRECTION('',(0.,-1.,0.));
#381 = ADVANCED_FACE('',(#382),#401,.T.);
#382 = FACE_BOUND('',#383,.F.);
#383 = EDGE_LOOP('',(#384,#385,#393,#400));
#384 = ORIENTED_EDGE('',*,*,#31,.T.);
#385 = ORIENTED_EDGE('',*,*,#386,.T.);
#386 = EDGE_CURVE('',#32,#387,#389,.T.);
#387 = VERTEX_POINT('',#388);
#388 = CARTESIAN_POINT('',(-17.1,23.6,118.6));
#389 = LINE('',#390,#391);
#390 = CARTESIAN_POINT('',(-17.1,23.6,3.6));
#391 = VECTOR('',#392,1.);
#392 = DIRECTION('',(0.,0.,1.));
#393 = ORIENTED_EDGE('',*,*,#394,.F.);
#394 = EDGE_CURVE('',#274,#387,#395,.T.);
#395 = CIRCLE('',#396,7.);
#396 = AXIS2_PLACEMENT_3D('',#397,#398,#399);
#397 = CARTESIAN_POINT('',(-17.1,16.6,118.6));
#398 = DIRECTION('',(-0.,-0.,-1.));
#399 = DIRECTION('',(0.,-1.,0.));
#400 = ORIENTED_EDGE('',*,*,#299,.F.);
#401 = CYLINDRICAL_SURFACE('',#402,7.);
#402 = AXIS2_PLACEMENT_3D('',#403,#404,#405);
#403 = CARTESIAN_POINT('',(-17.1,16.6,3.6));
#404 = DIRECTION('',(0.,0.,1.));
#405 = DIRECTION('',(-1.,0.,0.));
#406 = ADVANCED_FACE('',(#407),#425,.F.);
#407 = FACE_BOUND('',#408,.F.);
#408 = EDGE_LOOP('',(#409,#410,#418,#424));
#409 = ORIENTED_EDGE('',*,*,#292,.T.);
#410 = ORIENTED_EDGE('',*,*,#411,.T.);
#411 = EDGE_CURVE('',#284,#412,#414,.T.);
#412 = VERTEX_POINT('',#413);
#413 = CARTESIAN_POINT('',(-20.5,-20.,114.6));
#414 = LINE('',#415,#416);
#415 = CARTESIAN_POINT('',(-24.1,-20.,114.6));
#416 = VECTOR('',#417,1.);
#417 = DIRECTION('',(1.,0.,0.));
#418 = ORIENTED_EDGE('',*,*,#419,.F.);
#419 = EDGE_CURVE('',#208,#412,#420,.T.);
#420 = LINE('',#421,#422);
#421 = CARTESIAN_POINT('',(-20.5,-20.,3.6));
#422 = VECTOR('',#423,1.);
#423 = DIRECTION('',(0.,0.,1.));
#424 = ORIENTED_EDGE('',*,*,#215,.F.);
#425 = PLANE('',#426);
#426 = AXIS2_PLACEMENT_3D('',#427,#428,#429);
#427 = CARTESIAN_POINT('',(-24.1,-20.,3.6));
#428 = DIRECTION('',(0.,1.,0.));
#429 = DIRECTION('',(1.,0.,0.));
#430 = ADVANCED_FACE('',(#431),#472,.F.);
#431 = FACE_BOUND('',#432,.F.);
#432 = EDGE_LOOP('',(#433,#434,#442,#448,#449,#450,#458,#466));
#433 = ORIENTED_EDGE('',*,*,#140,.F.);
#434 = ORIENTED_EDGE('',*,*,#435,.T.);
#435 = EDGE_CURVE('',#141,#436,#438,.T.);
#436 = VERTEX_POINT('',#437);
#437 = CARTESIAN_POINT('',(17.1,23.6,118.6));
#438 = LINE('',#439,#440);
#439 = CARTESIAN_POINT('',(17.1,23.6,3.6));
#440 = VECTOR('',#441,1.);
#441 = DIRECTION('',(0.,0.,1.));
#442 = ORIENTED_EDGE('',*,*,#443,.T.);
#443 = EDGE_CURVE('',#436,#387,#444,.T.);
#444 = LINE('',#445,#446);
#445 = CARTESIAN_POINT('',(24.1,23.6,118.6));
#446 = VECTOR('',#447,1.);
#447 = DIRECTION('',(-1.,0.,0.));
#448 = ORIENTED_EDGE('',*,*,#386,.F.);
#449 = ORIENTED_EDGE('',*,*,#40,.F.);
#450 = ORIENTED_EDGE('',*,*,#451,.F.);
#451 = EDGE_CURVE('',#452,#41,#454,.T.);
#452 = VERTEX_POINT('',#453);
#453 = CARTESIAN_POINT('',(0.,23.6,100.));
#454 = LINE('',#455,#456);
#455 = CARTESIAN_POINT('',(0.,23.6,100.));
#456 = VECTOR('',#457,1.);
#457 = DIRECTION('',(0.,-9.582007847387E-16,-1.));
#458 = ORIENTED_EDGE('',*,*,#459,.T.);
#459 = EDGE_CURVE('',#452,#460,#462,.T.);
#460 = VERTEX_POINT('',#461);
#461 = CARTESIAN_POINT('',(3.6,23.6,100.));
#462 = LINE('',#463,#464);
#463 = CARTESIAN_POINT('',(0.,23.6,100.));
#464 = VECTOR('',#465,1.);
#465 = DIRECTION('',(1.,0.,0.));
#466 = ORIENTED_EDGE('',*,*,#467,.T.);
#467 = EDGE_CURVE('',#460,#133,#468,.T.);
#468 = LINE('',#469,#470);
#469 = CARTESIAN_POINT('',(3.6,23.6,100.));
#470 = VECTOR('',#471,1.);
#471 = DIRECTION('',(0.,-9.582007847387E-16,-1.));
#472 = PLANE('',#473);
#473 = AXIS2_PLACEMENT_3D('',#474,#475,#476);
#474 = CARTESIAN_POINT('',(24.1,23.6,3.6));
#475 = DIRECTION('',(0.,-1.,0.));
#476 = DIRECTION('',(-1.,0.,0.));
#477 = ADVANCED_FACE('',(#478,#505,#541),#577,.F.);
#478 = FACE_BOUND('',#479,.F.);
#479 = EDGE_LOOP('',(#480,#481,#490,#498,#504));
#480 = ORIENTED_EDGE('',*,*,#419,.T.);
#481 = ORIENTED_EDGE('',*,*,#482,.T.);
#482 = EDGE_CURVE('',#412,#483,#485,.T.);
#483 = VERTEX_POINT('',#484);
#484 = CARTESIAN_POINT('',(-20.5,-16.,118.6));
#485 = CIRCLE('',#486,4.);
#486 = AXIS2_PLACEMENT_3D('',#487,#488,#489);
#487 = CARTESIAN_POINT('',(-20.5,-16.,114.6));
#488 = DIRECTION('',(-1.,0.,0.));
#489 = DIRECTION('',(0.,0.,1.));
#490 = ORIENTED_EDGE('',*,*,#491,.T.);
#491 = EDGE_CURVE('',#483,#492,#494,.T.);
#492 = VERTEX_POINT('',#493);
#493 = CARTESIAN_POINT('',(-20.5,16.,118.6));
#494 = LINE('',#495,#496);
#495 = CARTESIAN_POINT('',(-20.5,-20.,118.6));
#496 = VECTOR('',#497,1.);
#497 = DIRECTION('',(0.,1.,0.));
#498 = ORIENTED_EDGE('',*,*,#499,.F.);
#499 = EDGE_CURVE('',#199,#492,#500,.T.);
#500 = LINE('',#501,#502);
#501 = CARTESIAN_POINT('',(-20.5,16.,3.6));
#502 = VECTOR('',#503,1.);
#503 = DIRECTION('',(0.,0.,1.));
#504 = ORIENTED_EDGE('',*,*,#207,.F.);
#505 = FACE_BOUND('',#506,.F.);
#506 = EDGE_LOOP('',(#507,#517,#526,#534));
#507 = ORIENTED_EDGE('',*,*,#508,.T.);
#508 = EDGE_CURVE('',#509,#511,#513,.T.);
#509 = VERTEX_POINT('',#510);
#510 = CARTESIAN_POINT('',(-20.5,4.9,85.));
#511 = VERTEX_POINT('',#512);
#512 = CARTESIAN_POINT('',(-20.5,4.9,95.));
#513 = LINE('',#514,#515);
#514 = CARTESIAN_POINT('',(-20.5,4.9,49.3));
#515 = VECTOR('',#516,1.);
#516 = DIRECTION('',(0.,0.,1.));
#517 = ORIENTED_EDGE('',*,*,#518,.T.);
#518 = EDGE_CURVE('',#511,#519,#521,.T.);
#519 = VERTEX_POINT('',#520);
#520 = CARTESIAN_POINT('',(-20.5,-4.9,95.));
#521 = CIRCLE('',#522,4.9);
#522 = AXIS2_PLACEMENT_3D('',#523,#524,#525);
#523 = CARTESIAN_POINT('',(-20.5,-3.67341984632E-40,95.));
#524 = DIRECTION('',(1.,0.,0.));
#525 = DIRECTION('',(0.,1.,0.));
#526 = ORIENTED_EDGE('',*,*,#527,.F.);
#527 = EDGE_CURVE('',#528,#519,#530,.T.);
#528 = VERTEX_POINT('',#529);
#529 = CARTESIAN_POINT('',(-20.5,-4.9,85.));
#530 = LINE('',#531,#532);
#531 = CARTESIAN_POINT('',(-20.5,-4.9,49.3));
#532 = VECTOR('',#533,1.);
#533 = DIRECTION('',(0.,0.,1.));
#534 = ORIENTED_EDGE('',*,*,#535,.T.);
#535 = EDGE_CURVE('',#528,#509,#536,.T.);
#536 = CIRCLE('',#537,4.9);
#537 = AXIS2_PLACEMENT_3D('',#538,#539,#540);
#538 = CARTESIAN_POINT('',(-20.5,-1.139123788785E-16,85.));
#539 = DIRECTION('',(1.,0.,0.));
#540 = DIRECTION('',(0.,1.,0.));
#541 = FACE_BOUND('',#542,.F.);
#542 = EDGE_LOOP('',(#543,#553,#562,#570));
#543 = ORIENTED_EDGE('',*,*,#544,.T.);
#544 = EDGE_CURVE('',#545,#547,#549,.T.);
#545 = VERTEX_POINT('',#546);
#546 = CARTESIAN_POINT('',(-20.5,4.9,30.));
#547 = VERTEX_POINT('',#548);
#548 = CARTESIAN_POINT('',(-20.5,4.9,40.));
#549 = LINE('',#550,#551);
#550 = CARTESIAN_POINT('',(-20.5,4.9,21.8));
#551 = VECTOR('',#552,1.);
#552 = DIRECTION('',(0.,0.,1.));
#553 = ORIENTED_EDGE('',*,*,#554,.T.);
#554 = EDGE_CURVE('',#547,#555,#557,.T.);
#555 = VERTEX_POINT('',#556);
#556 = CARTESIAN_POINT('',(-20.5,-4.9,40.));
#557 = CIRCLE('',#558,4.9);
#558 = AXIS2_PLACEMENT_3D('',#559,#560,#561);
#559 = CARTESIAN_POINT('',(-20.5,0.,40.));
#560 = DIRECTION('',(1.,0.,0.));
#561 = DIRECTION('',(0.,1.,0.));
#562 = ORIENTED_EDGE('',*,*,#563,.F.);
#563 = EDGE_CURVE('',#564,#555,#566,.T.);
#564 = VERTEX_POINT('',#565);
#565 = CARTESIAN_POINT('',(-20.5,-4.9,30.));
#566 = LINE('',#567,#568);
#567 = CARTESIAN_POINT('',(-20.5,-4.9,21.8));
#568 = VECTOR('',#569,1.);
#569 = DIRECTION('',(0.,0.,1.));
#570 = ORIENTED_EDGE('',*,*,#571,.T.);
#571 = EDGE_CURVE('',#564,#545,#572,.T.);
#572 = CIRCLE('',#573,4.9);
#573 = AXIS2_PLACEMENT_3D('',#574,#575,#576);
#574 = CARTESIAN_POINT('',(-20.5,7.733039311279E-17,30.));
#575 = DIRECTION('',(1.,0.,0.));
#576 = DIRECTION('',(0.,1.,0.));
#577 = PLANE('',#578);
#578 = AXIS2_PLACEMENT_3D('',#579,#580,#581);
#579 = CARTESIAN_POINT('',(-20.5,-20.,3.6));
#580 = DIRECTION('',(-1.,0.,0.));
#581 = DIRECTION('',(0.,1.,0.));
#582 = ADVANCED_FACE('',(#583),#593,.F.);
#583 = FACE_BOUND('',#584,.T.);
#584 = EDGE_LOOP('',(#585,#591,#592));
#585 = ORIENTED_EDGE('',*,*,#586,.T.);
#586 = EDGE_CURVE('',#452,#49,#587,.T.);
#587 = LINE('',#588,#589);
#588 = CARTESIAN_POINT('',(0.,23.6,100.));
#589 = VECTOR('',#590,1.);
#590 = DIRECTION('',(0.,0.264133156675,-0.964486223616));
#591 = ORIENTED_EDGE('',*,*,#48,.T.);
#592 = ORIENTED_EDGE('',*,*,#451,.F.);
#593 = PLANE('',#594);
#594 = AXIS2_PLACEMENT_3D('',#595,#596,#597);
#595 = CARTESIAN_POINT('',(0.,31.087396823199,46.087396823199));
#596 = DIRECTION('',(1.,0.,0.));
#597 = DIRECTION('',(0.,0.,1.));
#598 = ADVANCED_FACE('',(#599),#618,.F.);
#599 = FACE_BOUND('',#600,.T.);
#600 = EDGE_LOOP('',(#601,#602,#610,#617));
#601 = ORIENTED_EDGE('',*,*,#198,.T.);
#602 = ORIENTED_EDGE('',*,*,#603,.T.);
#603 = EDGE_CURVE('',#191,#604,#606,.T.);
#604 = VERTEX_POINT('',#605);
#605 = CARTESIAN_POINT('',(-16.5,20.,118.6));
#606 = LINE('',#607,#608);
#607 = CARTESIAN_POINT('',(-16.5,20.,3.6));
#608 = VECTOR('',#609,1.);
#609 = DIRECTION('',(0.,0.,1.));
#610 = ORIENTED_EDGE('',*,*,#611,.F.);
#611 = EDGE_CURVE('',#492,#604,#612,.T.);
#612 = CIRCLE('',#613,4.);
#613 = AXIS2_PLACEMENT_3D('',#614,#615,#616);
#614 = CARTESIAN_POINT('',(-16.5,16.,118.6));
#615 = DIRECTION('',(-0.,-0.,-1.));
#616 = DIRECTION('',(0.,-1.,0.));
#617 = ORIENTED_EDGE('',*,*,#499,.F.);
#618 = CYLINDRICAL_SURFACE('',#619,4.);
#619 = AXIS2_PLACEMENT_3D('',#620,#621,#622);
#620 = CARTESIAN_POINT('',(-16.5,16.,3.6));
#621 = DIRECTION('',(0.,0.,1.));
#622 = DIRECTION('',(-1.,0.,0.));
#623 = ADVANCED_FACE('',(#624),#656,.F.);
#624 = FACE_BOUND('',#625,.F.);
#625 = EDGE_LOOP('',(#626,#636,#642,#643,#649,#650));
#626 = ORIENTED_EDGE('',*,*,#627,.F.);
#627 = EDGE_CURVE('',#628,#630,#632,.T.);
#628 = VERTEX_POINT('',#629);
#629 = CARTESIAN_POINT('',(45.,50.,0.));
#630 = VERTEX_POINT('',#631);
#631 = CARTESIAN_POINT('',(-45.,50.,0.));
#632 = LINE('',#633,#634);
#633 = CARTESIAN_POINT('',(50.,50.,0.));
#634 = VECTOR('',#635,1.);
#635 = DIRECTION('',(-1.,0.,0.));
#636 = ORIENTED_EDGE('',*,*,#637,.T.);
#637 = EDGE_CURVE('',#628,#116,#638,.T.);
#638 = LINE('',#639,#640);
#639 = CARTESIAN_POINT('',(45.,50.,0.));
#640 = VECTOR('',#641,1.);
#641 = DIRECTION('',(0.,0.,1.));
#642 = ORIENTED_EDGE('',*,*,#124,.T.);
#643 = ORIENTED_EDGE('',*,*,#644,.T.);
#644 = EDGE_CURVE('',#125,#49,#645,.T.);
#645 = LINE('',#646,#647);
#646 = CARTESIAN_POINT('',(50.,50.,3.6));
#647 = VECTOR('',#648,1.);
#648 = DIRECTION('',(-1.,0.,0.));
#649 = ORIENTED_EDGE('',*,*,#56,.T.);
#650 = ORIENTED_EDGE('',*,*,#651,.F.);
#651 = EDGE_CURVE('',#630,#57,#652,.T.);
#652 = LINE('',#653,#654);
#653 = CARTESIAN_POINT('',(-45.,50.,0.));
#654 = VECTOR('',#655,1.);
#655 = DIRECTION('',(0.,0.,1.));
#656 = PLANE('',#657);
#657 = AXIS2_PLACEMENT_3D('',#658,#659,#660);
#658 = CARTESIAN_POINT('',(50.,50.,0.));
#659 = DIRECTION('',(0.,-1.,0.));
#660 = DIRECTION('',(-1.,0.,0.));
#661 = ADVANCED_FACE('',(#662),#680,.F.);
#662 = FACE_BOUND('',#663,.F.);
#663 = EDGE_LOOP('',(#664,#665,#666,#674));
#664 = ORIENTED_EDGE('',*,*,#190,.F.);
#665 = ORIENTED_EDGE('',*,*,#603,.T.);
#666 = ORIENTED_EDGE('',*,*,#667,.T.);
#667 = EDGE_CURVE('',#604,#668,#670,.T.);
#668 = VERTEX_POINT('',#669);
#669 = CARTESIAN_POINT('',(16.5,20.,118.6));
#670 = LINE('',#671,#672);
#671 = CARTESIAN_POINT('',(-20.5,20.,118.6));
#672 = VECTOR('',#673,1.);
#673 = DIRECTION('',(1.,0.,0.));
#674 = ORIENTED_EDGE('',*,*,#675,.F.);
#675 = EDGE_CURVE('',#182,#668,#676,.T.);
#676 = LINE('',#677,#678);
#677 = CARTESIAN_POINT('',(16.5,20.,3.6));
#678 = VECTOR('',#679,1.);
#679 = DIRECTION('',(0.,0.,1.));
#680 = PLANE('',#681);
#681 = AXIS2_PLACEMENT_3D('',#682,#683,#684);
#682 = CARTESIAN_POINT('',(-20.5,20.,3.6));
#683 = DIRECTION('',(0.,1.,0.));
#684 = DIRECTION('',(1.,0.,0.));
#685 = ADVANCED_FACE('',(#686),#705,.T.);
#686 = FACE_BOUND('',#687,.F.);
#687 = EDGE_LOOP('',(#688,#697,#698,#699));
#688 = ORIENTED_EDGE('',*,*,#689,.T.);
#689 = EDGE_CURVE('',#690,#630,#692,.T.);
#690 = VERTEX_POINT('',#691);
#691 = CARTESIAN_POINT('',(-50.,45.,0.));
#692 = CIRCLE('',#693,5.);
#693 = AXIS2_PLACEMENT_3D('',#694,#695,#696);
#694 = CARTESIAN_POINT('',(-45.,45.,0.));
#695 = DIRECTION('',(-0.,-0.,-1.));
#696 = DIRECTION('',(0.,-1.,0.));
#697 = ORIENTED_EDGE('',*,*,#651,.T.);
#698 = ORIENTED_EDGE('',*,*,#64,.F.);
#699 = ORIENTED_EDGE('',*,*,#700,.F.);
#700 = EDGE_CURVE('',#690,#65,#701,.T.);
#701 = LINE('',#702,#703);
#702 = CARTESIAN_POINT('',(-50.,45.,0.));
#703 = VECTOR('',#704,1.);
#704 = DIRECTION('',(0.,0.,1.));
#705 = CYLINDRICAL_SURFACE('',#706,5.);
#706 = AXIS2_PLACEMENT_3D('',#707,#708,#709);
#707 = CARTESIAN_POINT('',(-45.,45.,0.));
#708 = DIRECTION('',(0.,0.,1.));
#709 = DIRECTION('',(-1.,0.,0.));
#710 = ADVANCED_FACE('',(#711),#730,.F.);
#711 = FACE_BOUND('',#712,.T.);
#712 = EDGE_LOOP('',(#713,#714,#722,#729));
#713 = ORIENTED_EDGE('',*,*,#181,.T.);
#714 = ORIENTED_EDGE('',*,*,#715,.T.);
#715 = EDGE_CURVE('',#174,#716,#718,.T.);
#716 = VERTEX_POINT('',#717);
#717 = CARTESIAN_POINT('',(20.5,16.,118.6));
#718 = LINE('',#719,#720);
#719 = CARTESIAN_POINT('',(20.5,16.,3.6));
#720 = VECTOR('',#721,1.);
#721 = DIRECTION('',(0.,0.,1.));
#722 = ORIENTED_EDGE('',*,*,#723,.F.);
#723 = EDGE_CURVE('',#668,#716,#724,.T.);
#724 = CIRCLE('',#725,4.);
#725 = AXIS2_PLACEMENT_3D('',#726,#727,#728);
#726 = CARTESIAN_POINT('',(16.5,16.,118.6));
#727 = DIRECTION('',(-0.,-0.,-1.));
#728 = DIRECTION('',(0.,-1.,0.));
#729 = ORIENTED_EDGE('',*,*,#675,.F.);
#730 = CYLINDRICAL_SURFACE('',#731,4.);
#731 = AXIS2_PLACEMENT_3D('',#732,#733,#734);
#732 = CARTESIAN_POINT('',(16.5,16.,3.6));
#733 = DIRECTION('',(0.,0.,1.));
#734 = DIRECTION('',(0.,1.,0.));
#735 = ADVANCED_FACE('',(#736),#754,.F.);
#736 = FACE_BOUND('',#737,.F.);
#737 = EDGE_LOOP('',(#738,#746,#747,#748));
#738 = ORIENTED_EDGE('',*,*,#739,.F.);
#739 = EDGE_CURVE('',#690,#740,#742,.T.);
#740 = VERTEX_POINT('',#741);
#741 = CARTESIAN_POINT('',(-50.,-45.,0.));
#742 = LINE('',#743,#744);
#743 = CARTESIAN_POINT('',(-50.,50.,0.));
#744 = VECTOR('',#745,1.);
#745 = DIRECTION('',(0.,-1.,0.));
#746 = ORIENTED_EDGE('',*,*,#700,.T.);
#747 = ORIENTED_EDGE('',*,*,#73,.T.);
#748 = ORIENTED_EDGE('',*,*,#749,.F.);
#749 = EDGE_CURVE('',#740,#74,#750,.T.);
#750 = LINE('',#751,#752);
#751 = CARTESIAN_POINT('',(-50.,-45.,0.));
#752 = VECTOR('',#753,1.);
#753 = DIRECTION('',(0.,0.,1.));
#754 = PLANE('',#755);
#755 = AXIS2_PLACEMENT_3D('',#756,#757,#758);
#756 = CARTESIAN_POINT('',(-50.,50.,0.));
#757 = DIRECTION('',(1.,0.,0.));
#758 = DIRECTION('',(0.,-1.,0.));
#759 = ADVANCED_FACE('',(#760,#787,#823),#859,.F.);
#760 = FACE_BOUND('',#761,.F.);
#761 = EDGE_LOOP('',(#762,#763,#764,#772,#781));
#762 = ORIENTED_EDGE('',*,*,#173,.F.);
#763 = ORIENTED_EDGE('',*,*,#715,.T.);
#764 = ORIENTED_EDGE('',*,*,#765,.T.);
#765 = EDGE_CURVE('',#716,#766,#768,.T.);
#766 = VERTEX_POINT('',#767);
#767 = CARTESIAN_POINT('',(20.5,-16.,118.6));
#768 = LINE('',#769,#770);
#769 = CARTESIAN_POINT('',(20.5,20.,118.6));
#770 = VECTOR('',#771,1.);
#771 = DIRECTION('',(0.,-1.,0.));
#772 = ORIENTED_EDGE('',*,*,#773,.F.);
#773 = EDGE_CURVE('',#774,#766,#776,.T.);
#774 = VERTEX_POINT('',#775);
#775 = CARTESIAN_POINT('',(20.5,-20.,114.6));
#776 = CIRCLE('',#777,4.);
#777 = AXIS2_PLACEMENT_3D('',#778,#779,#780);
#778 = CARTESIAN_POINT('',(20.5,-16.,114.6));
#779 = DIRECTION('',(-1.,0.,0.));
#780 = DIRECTION('',(0.,0.,1.));
#781 = ORIENTED_EDGE('',*,*,#782,.F.);
#782 = EDGE_CURVE('',#166,#774,#783,.T.);
#783 = LINE('',#784,#785);
#784 = CARTESIAN_POINT('',(20.5,-20.,3.6));
#785 = VECTOR('',#786,1.);
#786 = DIRECTION('',(0.,0.,1.));
#787 = FACE_BOUND('',#788,.F.);
#788 = EDGE_LOOP('',(#789,#800,#808,#817));
#789 = ORIENTED_EDGE('',*,*,#790,.F.);
#790 = EDGE_CURVE('',#791,#793,#795,.T.);
#791 = VERTEX_POINT('',#792);
#792 = CARTESIAN_POINT('',(20.5,4.9,95.));
#793 = VERTEX_POINT('',#794);
#794 = CARTESIAN_POINT('',(20.5,-4.9,95.));
#795 = CIRCLE('',#796,4.9);
#796 = AXIS2_PLACEMENT_3D('',#797,#798,#799);
#797 = CARTESIAN_POINT('',(20.5,-3.67341984632E-40,95.));
#798 = DIRECTION('',(1.,0.,0.));
#799 = DIRECTION('',(0.,1.,0.));
#800 = ORIENTED_EDGE('',*,*,#801,.T.);
#801 = EDGE_CURVE('',#791,#802,#804,.T.);
#802 = VERTEX_POINT('',#803);
#803 = CARTESIAN_POINT('',(20.5,4.9,85.));
#804 = LINE('',#805,#806);
#805 = CARTESIAN_POINT('',(20.5,4.9,49.3));
#806 = VECTOR('',#807,1.);
#807 = DIRECTION('',(0.,0.,-1.));
#808 = ORIENTED_EDGE('',*,*,#809,.F.);
#809 = EDGE_CURVE('',#810,#802,#812,.T.);
#810 = VERTEX_POINT('',#811);
#811 = CARTESIAN_POINT('',(20.5,-4.9,85.));
#812 = CIRCLE('',#813,4.9);
#813 = AXIS2_PLACEMENT_3D('',#814,#815,#816);
#814 = CARTESIAN_POINT('',(20.5,-1.139123788785E-16,85.));
#815 = DIRECTION('',(1.,0.,0.));
#816 = DIRECTION('',(0.,1.,0.));
#817 = ORIENTED_EDGE('',*,*,#818,.F.);
#818 = EDGE_CURVE('',#793,#810,#819,.T.);
#819 = LINE('',#820,#821);
#820 = CARTESIAN_POINT('',(20.5,-4.9,49.3));
#821 = VECTOR('',#822,1.);
#822 = DIRECTION('',(0.,0.,-1.));
#823 = FACE_BOUND('',#824,.F.);
#824 = EDGE_LOOP('',(#825,#836,#844,#853));
#825 = ORIENTED_EDGE('',*,*,#826,.F.);
#826 = EDGE_CURVE('',#827,#829,#831,.T.);
#827 = VERTEX_POINT('',#828);
#828 = CARTESIAN_POINT('',(20.5,4.9,40.));
#829 = VERTEX_POINT('',#830);
#830 = CARTESIAN_POINT('',(20.5,-4.9,40.));
#831 = CIRCLE('',#832,4.9);
#832 = AXIS2_PLACEMENT_3D('',#833,#834,#835);
#833 = CARTESIAN_POINT('',(20.5,0.,40.));
#834 = DIRECTION('',(1.,0.,0.));
#835 = DIRECTION('',(0.,1.,0.));
#836 = ORIENTED_EDGE('',*,*,#837,.T.);
#837 = EDGE_CURVE('',#827,#838,#840,.T.);
#838 = VERTEX_POINT('',#839);
#839 = CARTESIAN_POINT('',(20.5,4.9,30.));
#840 = LINE('',#841,#842);
#841 = CARTESIAN_POINT('',(20.5,4.9,21.8));
#842 = VECTOR('',#843,1.);
#843 = DIRECTION('',(0.,0.,-1.));
#844 = ORIENTED_EDGE('',*,*,#845,.F.);
#845 = EDGE_CURVE('',#846,#838,#848,.T.);
#846 = VERTEX_POINT('',#847);
#847 = CARTESIAN_POINT('',(20.5,-4.9,30.));
#848 = CIRCLE('',#849,4.9);
#849 = AXIS2_PLACEMENT_3D('',#850,#851,#852);
#850 = CARTESIAN_POINT('',(20.5,7.733039311279E-17,30.));
#851 = DIRECTION('',(1.,0.,0.));
#852 = DIRECTION('',(0.,1.,0.));
#853 = ORIENTED_EDGE('',*,*,#854,.F.);
#854 = EDGE_CURVE('',#829,#846,#855,.T.);
#855 = LINE('',#856,#857);
#856 = CARTESIAN_POINT('',(20.5,-4.9,21.8));
#857 = VECTOR('',#858,1.);
#858 = DIRECTION('',(0.,0.,-1.));
#859 = PLANE('',#860);
#860 = AXIS2_PLACEMENT_3D('',#861,#862,#863);
#861 = CARTESIAN_POINT('',(20.5,20.,3.6));
#862 = DIRECTION('',(1.,0.,0.));
#863 = DIRECTION('',(0.,-1.,0.));
#864 = ADVANCED_FACE('',(#865),#884,.T.);
#865 = FACE_BOUND('',#866,.T.);
#866 = EDGE_LOOP('',(#867,#876,#882,#883));
#867 = ORIENTED_EDGE('',*,*,#868,.T.);
#868 = EDGE_CURVE('',#740,#869,#871,.T.);
#869 = VERTEX_POINT('',#870);
#870 = CARTESIAN_POINT('',(-45.,-50.,0.));
#871 = CIRCLE('',#872,5.);
#872 = AXIS2_PLACEMENT_3D('',#873,#874,#875);
#873 = CARTESIAN_POINT('',(-45.,-45.,0.));
#874 = DIRECTION('',(-0.,0.,1.));
#875 = DIRECTION('',(0.,-1.,0.));
#876 = ORIENTED_EDGE('',*,*,#877,.T.);
#877 = EDGE_CURVE('',#869,#82,#878,.T.);
#878 = LINE('',#879,#880);
#879 = CARTESIAN_POINT('',(-45.,-50.,0.));
#880 = VECTOR('',#881,1.);
#881 = DIRECTION('',(0.,0.,1.));
#882 = ORIENTED_EDGE('',*,*,#81,.F.);
#883 = ORIENTED_EDGE('',*,*,#749,.F.);
#884 = CYLINDRICAL_SURFACE('',#885,5.);
#885 = AXIS2_PLACEMENT_3D('',#886,#887,#888);
#886 = CARTESIAN_POINT('',(-45.,-45.,0.));
#887 = DIRECTION('',(0.,0.,1.));
#888 = DIRECTION('',(-1.,0.,0.));
#889 = ADVANCED_FACE('',(#890),#908,.F.);
#890 = FACE_BOUND('',#891,.F.);
#891 = EDGE_LOOP('',(#892,#893,#901,#907));
#892 = ORIENTED_EDGE('',*,*,#782,.T.);
#893 = ORIENTED_EDGE('',*,*,#894,.T.);
#894 = EDGE_CURVE('',#774,#895,#897,.T.);
#895 = VERTEX_POINT('',#896);
#896 = CARTESIAN_POINT('',(24.1,-20.,114.6));
#897 = LINE('',#898,#899);
#898 = CARTESIAN_POINT('',(20.5,-20.,114.6));
#899 = VECTOR('',#900,1.);
#900 = DIRECTION('',(1.,0.,0.));
#901 = ORIENTED_EDGE('',*,*,#902,.F.);
#902 = EDGE_CURVE('',#158,#895,#903,.T.);
#903 = LINE('',#904,#905);
#904 = CARTESIAN_POINT('',(24.1,-20.,3.6));
#905 = VECTOR('',#906,1.);
#906 = DIRECTION('',(0.,0.,1.));
#907 = ORIENTED_EDGE('',*,*,#165,.F.);
#908 = PLANE('',#909);
#909 = AXIS2_PLACEMENT_3D('',#910,#911,#912);
#910 = CARTESIAN_POINT('',(20.5,-20.,3.6));
#911 = DIRECTION('',(0.,1.,0.));
#912 = DIRECTION('',(1.,0.,0.));
#913 = ADVANCED_FACE('',(#914),#932,.F.);
#914 = FACE_BOUND('',#915,.F.);
#915 = EDGE_LOOP('',(#916,#924,#925,#926));
#916 = ORIENTED_EDGE('',*,*,#917,.F.);
#917 = EDGE_CURVE('',#869,#918,#920,.T.);
#918 = VERTEX_POINT('',#919);
#919 = CARTESIAN_POINT('',(45.,-50.,0.));
#920 = LINE('',#921,#922);
#921 = CARTESIAN_POINT('',(-50.,-50.,0.));
#922 = VECTOR('',#923,1.);
#923 = DIRECTION('',(1.,0.,0.));
#924 = ORIENTED_EDGE('',*,*,#877,.T.);
#925 = ORIENTED_EDGE('',*,*,#90,.T.);
#926 = ORIENTED_EDGE('',*,*,#927,.F.);
#927 = EDGE_CURVE('',#918,#91,#928,.T.);
#928 = LINE('',#929,#930);
#929 = CARTESIAN_POINT('',(45.,-50.,0.));
#930 = VECTOR('',#931,1.);
#931 = DIRECTION('',(0.,0.,1.));
#932 = PLANE('',#933);
#933 = AXIS2_PLACEMENT_3D('',#934,#935,#936);
#934 = CARTESIAN_POINT('',(-50.,-50.,0.));
#935 = DIRECTION('',(0.,1.,0.));
#936 = DIRECTION('',(1.,0.,0.));
#937 = ADVANCED_FACE('',(#938,#965,#1001),#1037,.F.);
#938 = FACE_BOUND('',#939,.F.);
#939 = EDGE_LOOP('',(#940,#941,#942,#951,#959));
#940 = ORIENTED_EDGE('',*,*,#157,.F.);
#941 = ORIENTED_EDGE('',*,*,#902,.T.);
#942 = ORIENTED_EDGE('',*,*,#943,.T.);
#943 = EDGE_CURVE('',#895,#944,#946,.T.);
#944 = VERTEX_POINT('',#945);
#945 = CARTESIAN_POINT('',(24.1,-16.,118.6));
#946 = CIRCLE('',#947,4.);
#947 = AXIS2_PLACEMENT_3D('',#948,#949,#950);
#948 = CARTESIAN_POINT('',(24.1,-16.,114.6));
#949 = DIRECTION('',(-1.,0.,0.));
#950 = DIRECTION('',(0.,0.,1.));
#951 = ORIENTED_EDGE('',*,*,#952,.T.);
#952 = EDGE_CURVE('',#944,#953,#955,.T.);
#953 = VERTEX_POINT('',#954);
#954 = CARTESIAN_POINT('',(24.1,16.6,118.6));
#955 = LINE('',#956,#957);
#956 = CARTESIAN_POINT('',(24.1,-20.,118.6));
#957 = VECTOR('',#958,1.);
#958 = DIRECTION('',(0.,1.,0.));
#959 = ORIENTED_EDGE('',*,*,#960,.F.);
#960 = EDGE_CURVE('',#149,#953,#961,.T.);
#961 = LINE('',#962,#963);
#962 = CARTESIAN_POINT('',(24.1,16.6,3.6));
#963 = VECTOR('',#964,1.);
#964 = DIRECTION('',(0.,0.,1.));
#965 = FACE_BOUND('',#966,.F.);
#966 = EDGE_LOOP('',(#967,#977,#986,#994));
#967 = ORIENTED_EDGE('',*,*,#968,.F.);
#968 = EDGE_CURVE('',#969,#971,#973,.T.);
#969 = VERTEX_POINT('',#970);
#970 = CARTESIAN_POINT('',(24.1,4.9,95.));
#971 = VERTEX_POINT('',#972);
#972 = CARTESIAN_POINT('',(24.1,4.9,85.));
#973 = LINE('',#974,#975);
#974 = CARTESIAN_POINT('',(24.1,4.9,95.));
#975 = VECTOR('',#976,1.);
#976 = DIRECTION('',(0.,0.,-1.));
#977 = ORIENTED_EDGE('',*,*,#978,.T.);
#978 = EDGE_CURVE('',#969,#979,#981,.T.);
#979 = VERTEX_POINT('',#980);
#980 = CARTESIAN_POINT('',(24.1,-4.9,95.));
#981 = CIRCLE('',#982,4.9);
#982 = AXIS2_PLACEMENT_3D('',#983,#984,#985);
#983 = CARTESIAN_POINT('',(24.1,-3.67341984632E-40,95.));
#984 = DIRECTION('',(1.,0.,0.));
#985 = DIRECTION('',(0.,1.,0.));
#986 = ORIENTED_EDGE('',*,*,#987,.T.);
#987 = EDGE_CURVE('',#979,#988,#990,.T.);
#988 = VERTEX_POINT('',#989);
#989 = CARTESIAN_POINT('',(24.1,-4.9,85.));
#990 = LINE('',#991,#992);
#991 = CARTESIAN_POINT('',(24.1,-4.9,95.));
#992 = VECTOR('',#993,1.);
#993 = DIRECTION('',(0.,0.,-1.));
#994 = ORIENTED_EDGE('',*,*,#995,.T.);
#995 = EDGE_CURVE('',#988,#971,#996,.T.);
#996 = CIRCLE('',#997,4.9);
#997 = AXIS2_PLACEMENT_3D('',#998,#999,#1000);
#998 = CARTESIAN_POINT('',(24.1,-1.139123788785E-16,85.));
#999 = DIRECTION('',(1.,0.,0.));
#1000 = DIRECTION('',(0.,1.,0.));
#1001 = FACE_BOUND('',#1002,.F.);
#1002 = EDGE_LOOP('',(#1003,#1013,#1022,#1030));
#1003 = ORIENTED_EDGE('',*,*,#1004,.F.);
#1004 = EDGE_CURVE('',#1005,#1007,#1009,.T.);
#1005 = VERTEX_POINT('',#1006);
#1006 = CARTESIAN_POINT('',(24.1,4.9,40.));
#1007 = VERTEX_POINT('',#1008);
#1008 = CARTESIAN_POINT('',(24.1,4.9,30.));
#1009 = LINE('',#1010,#1011);
#1010 = CARTESIAN_POINT('',(24.1,4.9,40.));
#1011 = VECTOR('',#1012,1.);
#1012 = DIRECTION('',(0.,0.,-1.));
#1013 = ORIENTED_EDGE('',*,*,#1014,.T.);
#1014 = EDGE_CURVE('',#1005,#1015,#1017,.T.);
#1015 = VERTEX_POINT('',#1016);
#1016 = CARTESIAN_POINT('',(24.1,-4.9,40.));
#1017 = CIRCLE('',#1018,4.9);
#1018 = AXIS2_PLACEMENT_3D('',#1019,#1020,#1021);
#1019 = CARTESIAN_POINT('',(24.1,0.,40.));
#1020 = DIRECTION('',(1.,0.,0.));
#1021 = DIRECTION('',(0.,1.,0.));
#1022 = ORIENTED_EDGE('',*,*,#1023,.T.);
#1023 = EDGE_CURVE('',#1015,#1024,#1026,.T.);
#1024 = VERTEX_POINT('',#1025);
#1025 = CARTESIAN_POINT('',(24.1,-4.9,30.));
#1026 = LINE('',#1027,#1028);
#1027 = CARTESIAN_POINT('',(24.1,-4.9,40.));
#1028 = VECTOR('',#1029,1.);
#1029 = DIRECTION('',(0.,0.,-1.));
#1030 = ORIENTED_EDGE('',*,*,#1031,.T.);
#1031 = EDGE_CURVE('',#1024,#1007,#1032,.T.);
#1032 = CIRCLE('',#1033,4.9);
#1033 = AXIS2_PLACEMENT_3D('',#1034,#1035,#1036);
#1034 = CARTESIAN_POINT('',(24.1,7.733039311279E-17,30.));
#1035 = DIRECTION('',(1.,0.,0.));
#1036 = DIRECTION('',(0.,1.,0.));
#1037 = PLANE('',#1038);
#1038 = AXIS2_PLACEMENT_3D('',#1039,#1040,#1041);
#1039 = CARTESIAN_POINT('',(24.1,-20.,3.6));
#1040 = DIRECTION('',(-1.,0.,0.));
#1041 = DIRECTION('',(0.,1.,0.));
#1042 = ADVANCED_FACE('',(#1043),#1062,.T.);
#1043 = FACE_BOUND('',#1044,.T.);
#1044 = EDGE_LOOP('',(#1045,#1054,#1060,#1061));
#1045 = ORIENTED_EDGE('',*,*,#1046,.T.);
#1046 = EDGE_CURVE('',#918,#1047,#1049,.T.);
#1047 = VERTEX_POINT('',#1048);
#1048 = CARTESIAN_POINT('',(50.,-45.,0.));
#1049 = CIRCLE('',#1050,5.);
#1050 = AXIS2_PLACEMENT_3D('',#1051,#1052,#1053);
#1051 = CARTESIAN_POINT('',(45.,-45.,0.));
#1052 = DIRECTION('',(-0.,0.,1.));
#1053 = DIRECTION('',(0.,-1.,0.));
#1054 = ORIENTED_EDGE('',*,*,#1055,.T.);
#1055 = EDGE_CURVE('',#1047,#99,#1056,.T.);
#1056 = LINE('',#1057,#1058);
#1057 = CARTESIAN_POINT('',(50.,-45.,0.));
#1058 = VECTOR('',#1059,1.);
#1059 = DIRECTION('',(0.,0.,1.));
#1060 = ORIENTED_EDGE('',*,*,#98,.F.);
#1061 = ORIENTED_EDGE('',*,*,#927,.F.);
#1062 = CYLINDRICAL_SURFACE('',#1063,5.);
#1063 = AXIS2_PLACEMENT_3D('',#1064,#1065,#1066);
#1064 = CARTESIAN_POINT('',(45.,-45.,0.));
#1065 = DIRECTION('',(0.,0.,1.));
#1066 = DIRECTION('',(0.,-1.,0.));
#1067 = ADVANCED_FACE('',(#1068),#1080,.T.);
#1068 = FACE_BOUND('',#1069,.F.);
#1069 = EDGE_LOOP('',(#1070,#1071,#1072,#1079));
#1070 = ORIENTED_EDGE('',*,*,#148,.T.);
#1071 = ORIENTED_EDGE('',*,*,#960,.T.);
#1072 = ORIENTED_EDGE('',*,*,#1073,.F.);
#1073 = EDGE_CURVE('',#436,#953,#1074,.T.);
#1074 = CIRCLE('',#1075,7.);
#1075 = AXIS2_PLACEMENT_3D('',#1076,#1077,#1078);
#1076 = CARTESIAN_POINT('',(17.1,16.6,118.6));
#1077 = DIRECTION('',(-0.,-0.,-1.));
#1078 = DIRECTION('',(0.,-1.,0.));
#1079 = ORIENTED_EDGE('',*,*,#435,.F.);
#1080 = CYLINDRICAL_SURFACE('',#1081,7.);
#1081 = AXIS2_PLACEMENT_3D('',#1082,#1083,#1084);
#1082 = CARTESIAN_POINT('',(17.1,16.6,3.6));
#1083 = DIRECTION('',(0.,0.,1.));
#1084 = DIRECTION('',(0.,1.,0.));
#1085 = ADVANCED_FACE('',(#1086),#1104,.F.);
#1086 = FACE_BOUND('',#1087,.F.);
#1087 = EDGE_LOOP('',(#1088,#1096,#1097,#1098));
#1088 = ORIENTED_EDGE('',*,*,#1089,.F.);
#1089 = EDGE_CURVE('',#1047,#1090,#1092,.T.);
#1090 = VERTEX_POINT('',#1091);
#1091 = CARTESIAN_POINT('',(50.,45.,0.));
#1092 = LINE('',#1093,#1094);
#1093 = CARTESIAN_POINT('',(50.,-50.,0.));
#1094 = VECTOR('',#1095,1.);
#1095 = DIRECTION('',(0.,1.,0.));
#1096 = ORIENTED_EDGE('',*,*,#1055,.T.);
#1097 = ORIENTED_EDGE('',*,*,#107,.T.);
#1098 = ORIENTED_EDGE('',*,*,#1099,.F.);
#1099 = EDGE_CURVE('',#1090,#108,#1100,.T.);
#1100 = LINE('',#1101,#1102);
#1101 = CARTESIAN_POINT('',(50.,45.,0.));
#1102 = VECTOR('',#1103,1.);
#1103 = DIRECTION('',(0.,0.,1.));
#1104 = PLANE('',#1105);
#1105 = AXIS2_PLACEMENT_3D('',#1106,#1107,#1108);
#1106 = CARTESIAN_POINT('',(50.,-50.,0.));
#1107 = DIRECTION('',(-1.,0.,0.));
#1108 = DIRECTION('',(0.,1.,0.));
#1109 = ADVANCED_FACE('',(#1110),#1122,.T.);
#1110 = FACE_BOUND('',#1111,.F.);
#1111 = EDGE_LOOP('',(#1112,#1119,#1120,#1121));
#1112 = ORIENTED_EDGE('',*,*,#1113,.T.);
#1113 = EDGE_CURVE('',#628,#1090,#1114,.T.);
#1114 = CIRCLE('',#1115,5.);
#1115 = AXIS2_PLACEMENT_3D('',#1116,#1117,#1118);
#1116 = CARTESIAN_POINT('',(45.,45.,0.));
#1117 = DIRECTION('',(-0.,-0.,-1.));
#1118 = DIRECTION('',(0.,-1.,0.));
#1119 = ORIENTED_EDGE('',*,*,#1099,.T.);
#1120 = ORIENTED_EDGE('',*,*,#115,.F.);
#1121 = ORIENTED_EDGE('',*,*,#637,.F.);
#1122 = CYLINDRICAL_SURFACE('',#1123,5.);
#1123 = AXIS2_PLACEMENT_3D('',#1124,#1125,#1126);
#1124 = CARTESIAN_POINT('',(45.,45.,0.));
#1125 = DIRECTION('',(0.,0.,1.));
#1126 = DIRECTION('',(0.,1.,0.));
#1127 = ADVANCED_FACE('',(#1128),#1138,.T.);
#1128 = FACE_BOUND('',#1129,.F.);
#1129 = EDGE_LOOP('',(#1130,#1136,#1137));
#1130 = ORIENTED_EDGE('',*,*,#1131,.T.);
#1131 = EDGE_CURVE('',#460,#125,#1132,.T.);
#1132 = LINE('',#1133,#1134);
#1133 = CARTESIAN_POINT('',(3.6,23.6,100.));
#1134 = VECTOR('',#1135,1.);
#1135 = DIRECTION('',(0.,0.264133156675,-0.964486223616));
#1136 = ORIENTED_EDGE('',*,*,#132,.T.);
#1137 = ORIENTED_EDGE('',*,*,#467,.F.);
#1138 = PLANE('',#1139);
#1139 = AXIS2_PLACEMENT_3D('',#1140,#1141,#1142);
#1140 = CARTESIAN_POINT('',(3.6,31.087396823199,46.087396823199));
#1141 = DIRECTION('',(1.,0.,0.));
#1142 = DIRECTION('',(0.,0.,1.));
#1143 = ADVANCED_FACE('',(#1144),#1163,.F.);
#1144 = FACE_BOUND('',#1145,.T.);
#1145 = EDGE_LOOP('',(#1146,#1154,#1155,#1156));
#1146 = ORIENTED_EDGE('',*,*,#1147,.T.);
#1147 = EDGE_CURVE('',#1148,#224,#1150,.T.);
#1148 = VERTEX_POINT('',#1149);
#1149 = CARTESIAN_POINT('',(-30.6,-37.5,0.));
#1150 = LINE('',#1151,#1152);
#1151 = CARTESIAN_POINT('',(-30.6,-37.5,0.));
#1152 = VECTOR('',#1153,1.);
#1153 = DIRECTION('',(0.,0.,1.));
#1154 = ORIENTED_EDGE('',*,*,#223,.T.);
#1155 = ORIENTED_EDGE('',*,*,#1147,.F.);
#1156 = ORIENTED_EDGE('',*,*,#1157,.F.);
#1157 = EDGE_CURVE('',#1148,#1148,#1158,.T.);
#1158 = CIRCLE('',#1159,6.9);
#1159 = AXIS2_PLACEMENT_3D('',#1160,#1161,#1162);
#1160 = CARTESIAN_POINT('',(-37.5,-37.5,0.));
#1161 = DIRECTION('',(0.,0.,1.));
#1162 = DIRECTION('',(1.,0.,0.));
#1163 = CYLINDRICAL_SURFACE('',#1164,6.9);
#1164 = AXIS2_PLACEMENT_3D('',#1165,#1166,#1167);
#1165 = CARTESIAN_POINT('',(-37.5,-37.5,0.));
#1166 = DIRECTION('',(-0.,-0.,-1.));
#1167 = DIRECTION('',(1.,0.,0.));
#1168 = ADVANCED_FACE('',(#1169),#1188,.F.);
#1169 = FACE_BOUND('',#1170,.T.);
#1170 = EDGE_LOOP('',(#1171,#1179,#1180,#1181));
#1171 = ORIENTED_EDGE('',*,*,#1172,.T.);
#1172 = EDGE_CURVE('',#1173,#235,#1175,.T.);
#1173 = VERTEX_POINT('',#1174);
#1174 = CARTESIAN_POINT('',(44.4,-37.5,0.));
#1175 = LINE('',#1176,#1177);
#1176 = CARTESIAN_POINT('',(44.4,-37.5,0.));
#1177 = VECTOR('',#1178,1.);
#1178 = DIRECTION('',(0.,0.,1.));
#1179 = ORIENTED_EDGE('',*,*,#234,.T.);
#1180 = ORIENTED_EDGE('',*,*,#1172,.F.);
#1181 = ORIENTED_EDGE('',*,*,#1182,.F.);
#1182 = EDGE_CURVE('',#1173,#1173,#1183,.T.);
#1183 = CIRCLE('',#1184,6.9);
#1184 = AXIS2_PLACEMENT_3D('',#1185,#1186,#1187);
#1185 = CARTESIAN_POINT('',(37.5,-37.5,0.));
#1186 = DIRECTION('',(0.,0.,1.));
#1187 = DIRECTION('',(1.,0.,0.));
#1188 = CYLINDRICAL_SURFACE('',#1189,6.9);
#1189 = AXIS2_PLACEMENT_3D('',#1190,#1191,#1192);
#1190 = CARTESIAN_POINT('',(37.5,-37.5,0.));
#1191 = DIRECTION('',(-0.,-0.,-1.));
#1192 = DIRECTION('',(1.,0.,0.));
#1193 = ADVANCED_FACE('',(#1194),#1213,.F.);
#1194 = FACE_BOUND('',#1195,.T.);
#1195 = EDGE_LOOP('',(#1196,#1204,#1205,#1206));
#1196 = ORIENTED_EDGE('',*,*,#1197,.T.);
#1197 = EDGE_CURVE('',#1198,#246,#1200,.T.);
#1198 = VERTEX_POINT('',#1199);
#1199 = CARTESIAN_POINT('',(-30.6,37.5,0.));
#1200 = LINE('',#1201,#1202);
#1201 = CARTESIAN_POINT('',(-30.6,37.5,0.));
#1202 = VECTOR('',#1203,1.);
#1203 = DIRECTION('',(0.,0.,1.));
#1204 = ORIENTED_EDGE('',*,*,#245,.T.);
#1205 = ORIENTED_EDGE('',*,*,#1197,.F.);
#1206 = ORIENTED_EDGE('',*,*,#1207,.F.);
#1207 = EDGE_CURVE('',#1198,#1198,#1208,.T.);
#1208 = CIRCLE('',#1209,6.9);
#1209 = AXIS2_PLACEMENT_3D('',#1210,#1211,#1212);
#1210 = CARTESIAN_POINT('',(-37.5,37.5,0.));
#1211 = DIRECTION('',(0.,0.,1.));
#1212 = DIRECTION('',(1.,0.,0.));
#1213 = CYLINDRICAL_SURFACE('',#1214,6.9);
#1214 = AXIS2_PLACEMENT_3D('',#1215,#1216,#1217);
#1215 = CARTESIAN_POINT('',(-37.5,37.5,0.));
#1216 = DIRECTION('',(-0.,-0.,-1.));
#1217 = DIRECTION('',(1.,0.,0.));
#1218 = ADVANCED_FACE('',(#1219),#1238,.F.);
#1219 = FACE_BOUND('',#1220,.T.);
#1220 = EDGE_LOOP('',(#1221,#1229,#1230,#1231));
#1221 = ORIENTED_EDGE('',*,*,#1222,.T.);
#1222 = EDGE_CURVE('',#1223,#257,#1225,.T.);
#1223 = VERTEX_POINT('',#1224);
#1224 = CARTESIAN_POINT('',(44.4,37.5,0.));
#1225 = LINE('',#1226,#1227);
#1226 = CARTESIAN_POINT('',(44.4,37.5,0.));
#1227 = VECTOR('',#1228,1.);
#1228 = DIRECTION('',(0.,0.,1.));
#1229 = ORIENTED_EDGE('',*,*,#256,.T.);
#1230 = ORIENTED_EDGE('',*,*,#1222,.F.);
#1231 = ORIENTED_EDGE('',*,*,#1232,.F.);
#1232 = EDGE_CURVE('',#1223,#1223,#1233,.T.);
#1233 = CIRCLE('',#1234,6.9);
#1234 = AXIS2_PLACEMENT_3D('',#1235,#1236,#1237);
#1235 = CARTESIAN_POINT('',(37.5,37.5,0.));
#1236 = DIRECTION('',(0.,0.,1.));
#1237 = DIRECTION('',(1.,0.,0.));
#1238 = CYLINDRICAL_SURFACE('',#1239,6.9);
#1239 = AXIS2_PLACEMENT_3D('',#1240,#1241,#1242);
#1240 = CARTESIAN_POINT('',(37.5,37.5,0.));
#1241 = DIRECTION('',(-0.,-0.,-1.));
#1242 = DIRECTION('',(1.,0.,0.));
#1243 = ADVANCED_FACE('',(#1244),#1268,.T.);
#1244 = FACE_BOUND('',#1245,.T.);
#1245 = EDGE_LOOP('',(#1246,#1247,#1253,#1254,#1255,#1256,#1257,#1258,
    #1264,#1265,#1266,#1267));
#1246 = ORIENTED_EDGE('',*,*,#273,.T.);
#1247 = ORIENTED_EDGE('',*,*,#1248,.T.);
#1248 = EDGE_CURVE('',#276,#483,#1249,.T.);
#1249 = LINE('',#1250,#1251);
#1250 = CARTESIAN_POINT('',(-24.1,-16.,118.6));
#1251 = VECTOR('',#1252,1.);
#1252 = DIRECTION('',(1.,0.,0.));
#1253 = ORIENTED_EDGE('',*,*,#491,.T.);
#1254 = ORIENTED_EDGE('',*,*,#611,.T.);
#1255 = ORIENTED_EDGE('',*,*,#667,.T.);
#1256 = ORIENTED_EDGE('',*,*,#723,.T.);
#1257 = ORIENTED_EDGE('',*,*,#765,.T.);
#1258 = ORIENTED_EDGE('',*,*,#1259,.T.);
#1259 = EDGE_CURVE('',#766,#944,#1260,.T.);
#1260 = LINE('',#1261,#1262);
#1261 = CARTESIAN_POINT('',(20.5,-16.,118.6));
#1262 = VECTOR('',#1263,1.);
#1263 = DIRECTION('',(1.,0.,0.));
#1264 = ORIENTED_EDGE('',*,*,#952,.T.);
#1265 = ORIENTED_EDGE('',*,*,#1073,.F.);
#1266 = ORIENTED_EDGE('',*,*,#443,.T.);
#1267 = ORIENTED_EDGE('',*,*,#394,.F.);
#1268 = PLANE('',#1269);
#1269 = AXIS2_PLACEMENT_3D('',#1270,#1271,#1272);
#1270 = CARTESIAN_POINT('',(3.442196788944E-14,7.47526555387,118.6));
#1271 = DIRECTION('',(0.,0.,1.));
#1272 = DIRECTION('',(1.,0.,0.));
#1273 = ADVANCED_FACE('',(#1274),#1280,.T.);
#1274 = FACE_BOUND('',#1275,.F.);
#1275 = EDGE_LOOP('',(#1276,#1277,#1278,#1279));
#1276 = ORIENTED_EDGE('',*,*,#283,.T.);
#1277 = ORIENTED_EDGE('',*,*,#1248,.T.);
#1278 = ORIENTED_EDGE('',*,*,#482,.F.);
#1279 = ORIENTED_EDGE('',*,*,#411,.F.);
#1280 = CYLINDRICAL_SURFACE('',#1281,4.);
#1281 = AXIS2_PLACEMENT_3D('',#1282,#1283,#1284);
#1282 = CARTESIAN_POINT('',(-24.1,-16.,114.6));
#1283 = DIRECTION('',(1.,0.,0.));
#1284 = DIRECTION('',(0.,-1.,0.));
#1285 = ADVANCED_FACE('',(#1286),#1302,.F.);
#1286 = FACE_BOUND('',#1287,.F.);
#1287 = EDGE_LOOP('',(#1288,#1289,#1295,#1296));
#1288 = ORIENTED_EDGE('',*,*,#518,.F.);
#1289 = ORIENTED_EDGE('',*,*,#1290,.T.);
#1290 = EDGE_CURVE('',#511,#308,#1291,.T.);
#1291 = LINE('',#1292,#1293);
#1292 = CARTESIAN_POINT('',(24.1,4.9,95.));
#1293 = VECTOR('',#1294,1.);
#1294 = DIRECTION('',(-1.,-0.,-0.));
#1295 = ORIENTED_EDGE('',*,*,#307,.T.);
#1296 = ORIENTED_EDGE('',*,*,#1297,.F.);
#1297 = EDGE_CURVE('',#519,#310,#1298,.T.);
#1298 = LINE('',#1299,#1300);
#1299 = CARTESIAN_POINT('',(24.1,-4.9,95.));
#1300 = VECTOR('',#1301,1.);
#1301 = DIRECTION('',(-1.,-0.,-0.));
#1302 = CYLINDRICAL_SURFACE('',#1303,4.9);
#1303 = AXIS2_PLACEMENT_3D('',#1304,#1305,#1306);
#1304 = CARTESIAN_POINT('',(24.1,-3.67341984632E-40,95.));
#1305 = DIRECTION('',(1.,0.,0.));
#1306 = DIRECTION('',(0.,1.,0.));
#1307 = ADVANCED_FACE('',(#1308),#1319,.F.);
#1308 = FACE_BOUND('',#1309,.F.);
#1309 = EDGE_LOOP('',(#1310,#1311,#1312,#1313));
#1310 = ORIENTED_EDGE('',*,*,#527,.T.);
#1311 = ORIENTED_EDGE('',*,*,#1297,.T.);
#1312 = ORIENTED_EDGE('',*,*,#335,.T.);
#1313 = ORIENTED_EDGE('',*,*,#1314,.F.);
#1314 = EDGE_CURVE('',#528,#327,#1315,.T.);
#1315 = LINE('',#1316,#1317);
#1316 = CARTESIAN_POINT('',(24.1,-4.9,85.));
#1317 = VECTOR('',#1318,1.);
#1318 = DIRECTION('',(-1.,-0.,-0.));
#1319 = PLANE('',#1320);
#1320 = AXIS2_PLACEMENT_3D('',#1321,#1322,#1323);
#1321 = CARTESIAN_POINT('',(24.1,-4.9,95.));
#1322 = DIRECTION('',(0.,-1.,0.));
#1323 = DIRECTION('',(0.,0.,-1.));
#1324 = ADVANCED_FACE('',(#1325),#1336,.F.);
#1325 = FACE_BOUND('',#1326,.F.);
#1326 = EDGE_LOOP('',(#1327,#1328,#1329,#1330));
#1327 = ORIENTED_EDGE('',*,*,#535,.F.);
#1328 = ORIENTED_EDGE('',*,*,#1314,.T.);
#1329 = ORIENTED_EDGE('',*,*,#326,.T.);
#1330 = ORIENTED_EDGE('',*,*,#1331,.F.);
#1331 = EDGE_CURVE('',#509,#319,#1332,.T.);
#1332 = LINE('',#1333,#1334);
#1333 = CARTESIAN_POINT('',(24.1,4.9,85.));
#1334 = VECTOR('',#1335,1.);
#1335 = DIRECTION('',(-1.,-0.,-0.));
#1336 = CYLINDRICAL_SURFACE('',#1337,4.9);
#1337 = AXIS2_PLACEMENT_3D('',#1338,#1339,#1340);
#1338 = CARTESIAN_POINT('',(24.1,-1.139123788785E-16,85.));
#1339 = DIRECTION('',(1.,0.,0.));
#1340 = DIRECTION('',(0.,1.,0.));
#1341 = ADVANCED_FACE('',(#1342),#1348,.T.);
#1342 = FACE_BOUND('',#1343,.T.);
#1343 = EDGE_LOOP('',(#1344,#1345,#1346,#1347));
#1344 = ORIENTED_EDGE('',*,*,#508,.T.);
#1345 = ORIENTED_EDGE('',*,*,#1290,.T.);
#1346 = ORIENTED_EDGE('',*,*,#318,.T.);
#1347 = ORIENTED_EDGE('',*,*,#1331,.F.);
#1348 = PLANE('',#1349);
#1349 = AXIS2_PLACEMENT_3D('',#1350,#1351,#1352);
#1350 = CARTESIAN_POINT('',(24.1,4.9,95.));
#1351 = DIRECTION('',(0.,-1.,0.));
#1352 = DIRECTION('',(0.,0.,-1.));
#1353 = ADVANCED_FACE('',(#1354),#1370,.F.);
#1354 = FACE_BOUND('',#1355,.F.);
#1355 = EDGE_LOOP('',(#1356,#1357,#1363,#1364));
#1356 = ORIENTED_EDGE('',*,*,#554,.F.);
#1357 = ORIENTED_EDGE('',*,*,#1358,.T.);
#1358 = EDGE_CURVE('',#547,#344,#1359,.T.);
#1359 = LINE('',#1360,#1361);
#1360 = CARTESIAN_POINT('',(24.1,4.9,40.));
#1361 = VECTOR('',#1362,1.);
#1362 = DIRECTION('',(-1.,-0.,-0.));
#1363 = ORIENTED_EDGE('',*,*,#343,.T.);
#1364 = ORIENTED_EDGE('',*,*,#1365,.F.);
#1365 = EDGE_CURVE('',#555,#346,#1366,.T.);
#1366 = LINE('',#1367,#1368);
#1367 = CARTESIAN_POINT('',(24.1,-4.9,40.));
#1368 = VECTOR('',#1369,1.);
#1369 = DIRECTION('',(-1.,-0.,-0.));
#1370 = CYLINDRICAL_SURFACE('',#1371,4.9);
#1371 = AXIS2_PLACEMENT_3D('',#1372,#1373,#1374);
#1372 = CARTESIAN_POINT('',(24.1,0.,40.));
#1373 = DIRECTION('',(1.,0.,0.));
#1374 = DIRECTION('',(0.,1.,0.));
#1375 = ADVANCED_FACE('',(#1376),#1387,.F.);
#1376 = FACE_BOUND('',#1377,.F.);
#1377 = EDGE_LOOP('',(#1378,#1379,#1380,#1381));
#1378 = ORIENTED_EDGE('',*,*,#563,.T.);
#1379 = ORIENTED_EDGE('',*,*,#1365,.T.);
#1380 = ORIENTED_EDGE('',*,*,#371,.T.);
#1381 = ORIENTED_EDGE('',*,*,#1382,.F.);
#1382 = EDGE_CURVE('',#564,#363,#1383,.T.);
#1383 = LINE('',#1384,#1385);
#1384 = CARTESIAN_POINT('',(24.1,-4.9,30.));
#1385 = VECTOR('',#1386,1.);
#1386 = DIRECTION('',(-1.,-0.,-0.));
#1387 = PLANE('',#1388);
#1388 = AXIS2_PLACEMENT_3D('',#1389,#1390,#1391);
#1389 = CARTESIAN_POINT('',(24.1,-4.9,40.));
#1390 = DIRECTION('',(0.,-1.,0.));
#1391 = DIRECTION('',(0.,0.,-1.));
#1392 = ADVANCED_FACE('',(#1393),#1404,.F.);
#1393 = FACE_BOUND('',#1394,.F.);
#1394 = EDGE_LOOP('',(#1395,#1396,#1397,#1398));
#1395 = ORIENTED_EDGE('',*,*,#571,.F.);
#1396 = ORIENTED_EDGE('',*,*,#1382,.T.);
#1397 = ORIENTED_EDGE('',*,*,#362,.T.);
#1398 = ORIENTED_EDGE('',*,*,#1399,.F.);
#1399 = EDGE_CURVE('',#545,#355,#1400,.T.);
#1400 = LINE('',#1401,#1402);
#1401 = CARTESIAN_POINT('',(24.1,4.9,30.));
#1402 = VECTOR('',#1403,1.);
#1403 = DIRECTION('',(-1.,-0.,-0.));
#1404 = CYLINDRICAL_SURFACE('',#1405,4.9);
#1405 = AXIS2_PLACEMENT_3D('',#1406,#1407,#1408);
#1406 = CARTESIAN_POINT('',(24.1,7.733039311279E-17,30.));
#1407 = DIRECTION('',(1.,0.,0.));
#1408 = DIRECTION('',(0.,1.,0.));
#1409 = ADVANCED_FACE('',(#1410),#1416,.T.);
#1410 = FACE_BOUND('',#1411,.T.);
#1411 = EDGE_LOOP('',(#1412,#1413,#1414,#1415));
#1412 = ORIENTED_EDGE('',*,*,#544,.T.);
#1413 = ORIENTED_EDGE('',*,*,#1358,.T.);
#1414 = ORIENTED_EDGE('',*,*,#354,.T.);
#1415 = ORIENTED_EDGE('',*,*,#1399,.F.);
#1416 = PLANE('',#1417);
#1417 = AXIS2_PLACEMENT_3D('',#1418,#1419,#1420);
#1418 = CARTESIAN_POINT('',(24.1,4.9,40.));
#1419 = DIRECTION('',(0.,-1.,0.));
#1420 = DIRECTION('',(0.,0.,-1.));
#1421 = ADVANCED_FACE('',(#1422),#1428,.T.);
#1422 = FACE_BOUND('',#1423,.T.);
#1423 = EDGE_LOOP('',(#1424,#1425,#1426,#1427));
#1424 = ORIENTED_EDGE('',*,*,#459,.T.);
#1425 = ORIENTED_EDGE('',*,*,#1131,.T.);
#1426 = ORIENTED_EDGE('',*,*,#644,.T.);
#1427 = ORIENTED_EDGE('',*,*,#586,.F.);
#1428 = PLANE('',#1429);
#1429 = AXIS2_PLACEMENT_3D('',#1430,#1431,#1432);
#1430 = CARTESIAN_POINT('',(0.,23.6,100.));
#1431 = DIRECTION('',(0.,0.964486223616,0.264133156675));
#1432 = DIRECTION('',(0.,0.264133156675,-0.964486223616));
#1433 = ADVANCED_FACE('',(#1434,#1444,#1447,#1450,#1453),#1456,.F.);
#1434 = FACE_BOUND('',#1435,.F.);
#1435 = EDGE_LOOP('',(#1436,#1437,#1438,#1439,#1440,#1441,#1442,#1443));
#1436 = ORIENTED_EDGE('',*,*,#739,.T.);
#1437 = ORIENTED_EDGE('',*,*,#868,.T.);
#1438 = ORIENTED_EDGE('',*,*,#917,.T.);
#1439 = ORIENTED_EDGE('',*,*,#1046,.T.);
#1440 = ORIENTED_EDGE('',*,*,#1089,.T.);
#1441 = ORIENTED_EDGE('',*,*,#1113,.F.);
#1442 = ORIENTED_EDGE('',*,*,#627,.T.);
#1443 = ORIENTED_EDGE('',*,*,#689,.F.);
#1444 = FACE_BOUND('',#1445,.T.);
#1445 = EDGE_LOOP('',(#1446));
#1446 = ORIENTED_EDGE('',*,*,#1157,.T.);
#1447 = FACE_BOUND('',#1448,.T.);
#1448 = EDGE_LOOP('',(#1449));
#1449 = ORIENTED_EDGE('',*,*,#1182,.T.);
#1450 = FACE_BOUND('',#1451,.T.);
#1451 = EDGE_LOOP('',(#1452));
#1452 = ORIENTED_EDGE('',*,*,#1207,.T.);
#1453 = FACE_BOUND('',#1454,.T.);
#1454 = EDGE_LOOP('',(#1455));
#1455 = ORIENTED_EDGE('',*,*,#1232,.T.);
#1456 = PLANE('',#1457);
#1457 = AXIS2_PLACEMENT_3D('',#1458,#1459,#1460);
#1458 = CARTESIAN_POINT('',(-6.79927925876E-16,-2.458200962782E-15,0.));
#1459 = DIRECTION('',(0.,0.,1.));
#1460 = DIRECTION('',(1.,0.,0.));
#1461 = ADVANCED_FACE('',(#1462),#1468,.T.);
#1462 = FACE_BOUND('',#1463,.F.);
#1463 = EDGE_LOOP('',(#1464,#1465,#1466,#1467));
#1464 = ORIENTED_EDGE('',*,*,#773,.T.);
#1465 = ORIENTED_EDGE('',*,*,#1259,.T.);
#1466 = ORIENTED_EDGE('',*,*,#943,.F.);
#1467 = ORIENTED_EDGE('',*,*,#894,.F.);
#1468 = CYLINDRICAL_SURFACE('',#1469,4.);
#1469 = AXIS2_PLACEMENT_3D('',#1470,#1471,#1472);
#1470 = CARTESIAN_POINT('',(20.5,-16.,114.6));
#1471 = DIRECTION('',(1.,0.,0.));
#1472 = DIRECTION('',(0.,-1.,0.));
#1473 = ADVANCED_FACE('',(#1474),#1490,.F.);
#1474 = FACE_BOUND('',#1475,.F.);
#1475 = EDGE_LOOP('',(#1476,#1477,#1483,#1484));
#1476 = ORIENTED_EDGE('',*,*,#978,.F.);
#1477 = ORIENTED_EDGE('',*,*,#1478,.T.);
#1478 = EDGE_CURVE('',#969,#791,#1479,.T.);
#1479 = LINE('',#1480,#1481);
#1480 = CARTESIAN_POINT('',(24.1,4.9,95.));
#1481 = VECTOR('',#1482,1.);
#1482 = DIRECTION('',(-1.,-0.,-0.));
#1483 = ORIENTED_EDGE('',*,*,#790,.T.);
#1484 = ORIENTED_EDGE('',*,*,#1485,.F.);
#1485 = EDGE_CURVE('',#979,#793,#1486,.T.);
#1486 = LINE('',#1487,#1488);
#1487 = CARTESIAN_POINT('',(24.1,-4.9,95.));
#1488 = VECTOR('',#1489,1.);
#1489 = DIRECTION('',(-1.,-0.,-0.));
#1490 = CYLINDRICAL_SURFACE('',#1491,4.9);
#1491 = AXIS2_PLACEMENT_3D('',#1492,#1493,#1494);
#1492 = CARTESIAN_POINT('',(24.1,-3.67341984632E-40,95.));
#1493 = DIRECTION('',(1.,0.,0.));
#1494 = DIRECTION('',(0.,1.,0.));
#1495 = ADVANCED_FACE('',(#1496),#1507,.F.);
#1496 = FACE_BOUND('',#1497,.F.);
#1497 = EDGE_LOOP('',(#1498,#1499,#1500,#1501));
#1498 = ORIENTED_EDGE('',*,*,#987,.F.);
#1499 = ORIENTED_EDGE('',*,*,#1485,.T.);
#1500 = ORIENTED_EDGE('',*,*,#818,.T.);
#1501 = ORIENTED_EDGE('',*,*,#1502,.F.);
#1502 = EDGE_CURVE('',#988,#810,#1503,.T.);
#1503 = LINE('',#1504,#1505);
#1504 = CARTESIAN_POINT('',(24.1,-4.9,85.));
#1505 = VECTOR('',#1506,1.);
#1506 = DIRECTION('',(-1.,-0.,-0.));
#1507 = PLANE('',#1508);
#1508 = AXIS2_PLACEMENT_3D('',#1509,#1510,#1511);
#1509 = CARTESIAN_POINT('',(24.1,-4.9,95.));
#1510 = DIRECTION('',(0.,-1.,0.));
#1511 = DIRECTION('',(0.,0.,-1.));
#1512 = ADVANCED_FACE('',(#1513),#1524,.F.);
#1513 = FACE_BOUND('',#1514,.F.);
#1514 = EDGE_LOOP('',(#1515,#1516,#1517,#1518));
#1515 = ORIENTED_EDGE('',*,*,#995,.F.);
#1516 = ORIENTED_EDGE('',*,*,#1502,.T.);
#1517 = ORIENTED_EDGE('',*,*,#809,.T.);
#1518 = ORIENTED_EDGE('',*,*,#1519,.F.);
#1519 = EDGE_CURVE('',#971,#802,#1520,.T.);
#1520 = LINE('',#1521,#1522);
#1521 = CARTESIAN_POINT('',(24.1,4.9,85.));
#1522 = VECTOR('',#1523,1.);
#1523 = DIRECTION('',(-1.,-0.,-0.));
#1524 = CYLINDRICAL_SURFACE('',#1525,4.9);
#1525 = AXIS2_PLACEMENT_3D('',#1526,#1527,#1528);
#1526 = CARTESIAN_POINT('',(24.1,-1.139123788785E-16,85.));
#1527 = DIRECTION('',(1.,0.,0.));
#1528 = DIRECTION('',(0.,1.,0.));
#1529 = ADVANCED_FACE('',(#1530),#1536,.T.);
#1530 = FACE_BOUND('',#1531,.T.);
#1531 = EDGE_LOOP('',(#1532,#1533,#1534,#1535));
#1532 = ORIENTED_EDGE('',*,*,#968,.F.);
#1533 = ORIENTED_EDGE('',*,*,#1478,.T.);
#1534 = ORIENTED_EDGE('',*,*,#801,.T.);
#1535 = ORIENTED_EDGE('',*,*,#1519,.F.);
#1536 = PLANE('',#1537);
#1537 = AXIS2_PLACEMENT_3D('',#1538,#1539,#1540);
#1538 = CARTESIAN_POINT('',(24.1,4.9,95.));
#1539 = DIRECTION('',(0.,-1.,0.));
#1540 = DIRECTION('',(0.,0.,-1.));
#1541 = ADVANCED_FACE('',(#1542),#1558,.F.);
#1542 = FACE_BOUND('',#1543,.F.);
#1543 = EDGE_LOOP('',(#1544,#1545,#1551,#1552));
#1544 = ORIENTED_EDGE('',*,*,#1014,.F.);
#1545 = ORIENTED_EDGE('',*,*,#1546,.T.);
#1546 = EDGE_CURVE('',#1005,#827,#1547,.T.);
#1547 = LINE('',#1548,#1549);
#1548 = CARTESIAN_POINT('',(24.1,4.9,40.));
#1549 = VECTOR('',#1550,1.);
#1550 = DIRECTION('',(-1.,-0.,-0.));
#1551 = ORIENTED_EDGE('',*,*,#826,.T.);
#1552 = ORIENTED_EDGE('',*,*,#1553,.F.);
#1553 = EDGE_CURVE('',#1015,#829,#1554,.T.);
#1554 = LINE('',#1555,#1556);
#1555 = CARTESIAN_POINT('',(24.1,-4.9,40.));
#1556 = VECTOR('',#1557,1.);
#1557 = DIRECTION('',(-1.,-0.,-0.));
#1558 = CYLINDRICAL_SURFACE('',#1559,4.9);
#1559 = AXIS2_PLACEMENT_3D('',#1560,#1561,#1562);
#1560 = CARTESIAN_POINT('',(24.1,0.,40.));
#1561 = DIRECTION('',(1.,0.,0.));
#1562 = DIRECTION('',(0.,1.,0.));
#1563 = ADVANCED_FACE('',(#1564),#1575,.F.);
#1564 = FACE_BOUND('',#1565,.F.);
#1565 = EDGE_LOOP('',(#1566,#1567,#1568,#1569));
#1566 = ORIENTED_EDGE('',*,*,#1023,.F.);
#1567 = ORIENTED_EDGE('',*,*,#1553,.T.);
#1568 = ORIENTED_EDGE('',*,*,#854,.T.);
#1569 = ORIENTED_EDGE('',*,*,#1570,.F.);
#1570 = EDGE_CURVE('',#1024,#846,#1571,.T.);
#1571 = LINE('',#1572,#1573);
#1572 = CARTESIAN_POINT('',(24.1,-4.9,30.));
#1573 = VECTOR('',#1574,1.);
#1574 = DIRECTION('',(-1.,-0.,-0.));
#1575 = PLANE('',#1576);
#1576 = AXIS2_PLACEMENT_3D('',#1577,#1578,#1579);
#1577 = CARTESIAN_POINT('',(24.1,-4.9,40.));
#1578 = DIRECTION('',(0.,-1.,0.));
#1579 = DIRECTION('',(0.,0.,-1.));
#1580 = ADVANCED_FACE('',(#1581),#1592,.F.);
#1581 = FACE_BOUND('',#1582,.F.);
#1582 = EDGE_LOOP('',(#1583,#1584,#1585,#1586));
#1583 = ORIENTED_EDGE('',*,*,#1031,.F.);
#1584 = ORIENTED_EDGE('',*,*,#1570,.T.);
#1585 = ORIENTED_EDGE('',*,*,#845,.T.);
#1586 = ORIENTED_EDGE('',*,*,#1587,.F.);
#1587 = EDGE_CURVE('',#1007,#838,#1588,.T.);
#1588 = LINE('',#1589,#1590);
#1589 = CARTESIAN_POINT('',(24.1,4.9,30.));
#1590 = VECTOR('',#1591,1.);
#1591 = DIRECTION('',(-1.,-0.,-0.));
#1592 = CYLINDRICAL_SURFACE('',#1593,4.9);
#1593 = AXIS2_PLACEMENT_3D('',#1594,#1595,#1596);
#1594 = CARTESIAN_POINT('',(24.1,7.733039311279E-17,30.));
#1595 = DIRECTION('',(1.,0.,0.));
#1596 = DIRECTION('',(0.,1.,0.));
#1597 = ADVANCED_FACE('',(#1598),#1604,.T.);
#1598 = FACE_BOUND('',#1599,.T.);
#1599 = EDGE_LOOP('',(#1600,#1601,#1602,#1603));
#1600 = ORIENTED_EDGE('',*,*,#1004,.F.);
#1601 = ORIENTED_EDGE('',*,*,#1546,.T.);
#1602 = ORIENTED_EDGE('',*,*,#837,.T.);
#1603 = ORIENTED_EDGE('',*,*,#1587,.F.);
#1604 = PLANE('',#1605);
#1605 = AXIS2_PLACEMENT_3D('',#1606,#1607,#1608);
#1606 = CARTESIAN_POINT('',(24.1,4.9,40.));
#1607 = DIRECTION('',(0.,-1.,0.));
#1608 = DIRECTION('',(0.,0.,-1.));
#1609 = ( GEOMETRIC_REPRESENTATION_CONTEXT(3) 
GLOBAL_UNCERTAINTY_ASSIGNED_CONTEXT((#1613)) 
GLOBAL_UNIT_ASSIGNED_CONTEXT((#1610,#1611,#1612)) REPRESENTATION_CONTEXT
('Context #1','3D Context with UNIT and UNCERTAINTY') );
#1610 = ( LENGTH_UNIT() NAMED_UNIT(*) SI_UNIT(.MILLI.,.METRE.) );
#1611 = ( NAMED_UNIT(*) PLANE_ANGLE_UNIT() SI_UNIT($,.RADIAN.) );
#1612 = ( NAMED_UNIT(*) SI_UNIT($,.STERADIAN.) SOLID_ANGLE_UNIT() );
#1613 = UNCERTAINTY_MEASURE_WITH_UNIT(LENGTH_MEASURE(5.E-05),#1610,
  'distance_accuracy_value','confusion accuracy');
#1614 = PRODUCT_RELATED_PRODUCT_CATEGORY('part',$,(#7));
#1615 = MECHANICAL_DESIGN_GEOMETRIC_PRESENTATION_REPRESENTATION('',(
    #1616),#1609);
#1616 = STYLED_ITEM('color',(#1617),#15);
#1617 = PRESENTATION_STYLE_ASSIGNMENT((#1618,#1624));
#1618 = SURFACE_STYLE_USAGE(.BOTH.,#1619);
#1619 = SURFACE_SIDE_STYLE('',(#1620));
#1620 = SURFACE_STYLE_FILL_AREA(#1621);
#1621 = FILL_AREA_STYLE('',(#1622));
#1622 = FILL_AREA_STYLE_COLOUR('',#1623);
#1623 = COLOUR_RGB('',0.678430976034,0.709803998361,0.741176010593);
#1624 = CURVE_STYLE('',#1625,POSITIVE_LENGTH_MEASURE(0.1),#1626);
#1625 = DRAUGHTING_PRE_DEFINED_CURVE_FONT('continuous');
#1626 = COLOUR_RGB('',9.803921802644E-02,9.803921802644E-02,
  9.803921802644E-02);
ENDSEC;
END-ISO-10303-21;
